%TF.GenerationSoftware,KiCad,Pcbnew,9.0.4*%
%TF.CreationDate,2025-12-11T10:44:19+01:00*%
%TF.ProjectId,pvmeter,70766d65-7465-4722-9e6b-696361645f70,1.4*%
%TF.SameCoordinates,Original*%
%TF.FileFunction,Legend,Bot*%
%TF.FilePolarity,Positive*%
%FSLAX46Y46*%
G04 Gerber Fmt 4.6, Leading zero omitted, Abs format (unit mm)*
G04 Created by KiCad (PCBNEW 9.0.4) date 2025-12-11 10:44:19*
%MOMM*%
%LPD*%
G01*
G04 APERTURE LIST*
G04 Aperture macros list*
%AMFreePoly0*
4,1,19,-0.850000,0.510000,-0.510000,0.850000,0.255000,0.850000,0.408997,0.829726,0.552500,0.770285,0.675729,0.675729,0.770285,0.552500,0.829726,0.408997,0.850000,0.255000,0.850000,-0.510000,0.510000,-0.850000,-0.255000,-0.850000,-0.408997,-0.829726,-0.552500,-0.770285,-0.675729,-0.675729,-0.770285,-0.552500,-0.829726,-0.408997,-0.850000,-0.255000,-0.850000,0.510000,-0.850000,0.510000,
$1*%
G04 Aperture macros list end*
%ADD10R,1.600000X1.600000*%
%ADD11C,1.600000*%
%ADD12C,3.000000*%
%ADD13FreePoly0,0.000000*%
%ADD14C,1.700000*%
%ADD15R,1.700000X1.700000*%
%ADD16O,1.700000X1.700000*%
%ADD17O,2.000000X1.700000*%
%ADD18R,2.000000X1.700000*%
%ADD19R,2.200000X2.200000*%
%ADD20C,2.200000*%
%ADD21R,1.500000X1.600000*%
%ADD22C,3.100000*%
%ADD23R,3.100000X3.100000*%
G04 APERTURE END LIST*
%LPC*%
D10*
X137900000Y-77930000D03*
D11*
X137900000Y-72930000D03*
X226920000Y-133510000D03*
D10*
X226920000Y-128510000D03*
D12*
X173041250Y-103470000D03*
X173041250Y-111090000D03*
D13*
X103010000Y-51200000D03*
D14*
X103010000Y-53740000D03*
X103010000Y-56280000D03*
X103010000Y-58820000D03*
X103010000Y-61360000D03*
X103010000Y-63900000D03*
X103010000Y-66440000D03*
X103010000Y-68980000D03*
X125870000Y-68980000D03*
X125870000Y-66440000D03*
X125870000Y-63900000D03*
X125870000Y-61360000D03*
X125870000Y-58820000D03*
X125870000Y-56280000D03*
X125870000Y-53740000D03*
X125870000Y-51200000D03*
X105550000Y-51200000D03*
X105550000Y-53740000D03*
X105550000Y-56280000D03*
X105550000Y-58820000D03*
X105550000Y-61360000D03*
X105550000Y-63900000D03*
X105550000Y-66440000D03*
X105550000Y-68980000D03*
X123330000Y-68980000D03*
X123330000Y-66440000D03*
X123330000Y-63900000D03*
X123330000Y-61360000D03*
X123330000Y-58820000D03*
X123330000Y-56280000D03*
X123330000Y-53740000D03*
X123330000Y-51200000D03*
D15*
X86750000Y-135300000D03*
D16*
X86750000Y-132760000D03*
X86750000Y-130220000D03*
X86750000Y-127680000D03*
X86750000Y-125140000D03*
D11*
X220010000Y-71500000D03*
X210010000Y-71500000D03*
D17*
X189550000Y-46600000D03*
D18*
X195550000Y-46600000D03*
D17*
X201550000Y-80200000D03*
X183550000Y-80200000D03*
D12*
X177785000Y-103490000D03*
X177785000Y-111110000D03*
D19*
X156000000Y-96512500D03*
D20*
X156000000Y-109262500D03*
D15*
X86050000Y-67510000D03*
D16*
X86050000Y-64970000D03*
X86050000Y-62430000D03*
X86050000Y-59890000D03*
X86050000Y-57350000D03*
X86050000Y-54810000D03*
X86050000Y-52270000D03*
X86050000Y-49730000D03*
D21*
X213560000Y-130493400D03*
D11*
X213560000Y-132993400D03*
X213560000Y-134993400D03*
X213560000Y-137493400D03*
D12*
X210850000Y-127423400D03*
X210850000Y-140563400D03*
X129240000Y-110960000D03*
X129240000Y-103340000D03*
D22*
X223100000Y-60700000D03*
X213100000Y-60700000D03*
D23*
X223100000Y-47700000D03*
D22*
X213100000Y-47700000D03*
D12*
X134010000Y-110960000D03*
X134010000Y-103340000D03*
%LPD*%
M02*
