%TF.GenerationSoftware,KiCad,Pcbnew,9.0.4*%
%TF.CreationDate,2025-12-11T10:44:19+01:00*%
%TF.ProjectId,pvmeter,70766d65-7465-4722-9e6b-696361645f70,1.4*%
%TF.SameCoordinates,Original*%
%TF.FileFunction,Copper,L1,Top*%
%TF.FilePolarity,Positive*%
%FSLAX46Y46*%
G04 Gerber Fmt 4.6, Leading zero omitted, Abs format (unit mm)*
G04 Created by KiCad (PCBNEW 9.0.4) date 2025-12-11 10:44:19*
%MOMM*%
%LPD*%
G01*
G04 APERTURE LIST*
G04 Aperture macros list*
%AMRoundRect*
0 Rectangle with rounded corners*
0 $1 Rounding radius*
0 $2 $3 $4 $5 $6 $7 $8 $9 X,Y pos of 4 corners*
0 Add a 4 corners polygon primitive as box body*
4,1,4,$2,$3,$4,$5,$6,$7,$8,$9,$2,$3,0*
0 Add four circle primitives for the rounded corners*
1,1,$1+$1,$2,$3*
1,1,$1+$1,$4,$5*
1,1,$1+$1,$6,$7*
1,1,$1+$1,$8,$9*
0 Add four rect primitives between the rounded corners*
20,1,$1+$1,$2,$3,$4,$5,0*
20,1,$1+$1,$4,$5,$6,$7,0*
20,1,$1+$1,$6,$7,$8,$9,0*
20,1,$1+$1,$8,$9,$2,$3,0*%
%AMFreePoly0*
4,1,19,-0.850000,0.510000,-0.510000,0.850000,0.255000,0.850000,0.408997,0.829726,0.552500,0.770285,0.675729,0.675729,0.770285,0.552500,0.829726,0.408997,0.850000,0.255000,0.850000,-0.510000,0.510000,-0.850000,-0.255000,-0.850000,-0.408997,-0.829726,-0.552500,-0.770285,-0.675729,-0.675729,-0.770285,-0.552500,-0.829726,-0.408997,-0.850000,-0.255000,-0.850000,0.510000,-0.850000,0.510000,
$1*%
G04 Aperture macros list end*
%TA.AperFunction,ComponentPad*%
%ADD10R,1.600000X1.600000*%
%TD*%
%TA.AperFunction,ComponentPad*%
%ADD11C,1.600000*%
%TD*%
%TA.AperFunction,SMDPad,CuDef*%
%ADD12RoundRect,0.250000X0.625000X-0.312500X0.625000X0.312500X-0.625000X0.312500X-0.625000X-0.312500X0*%
%TD*%
%TA.AperFunction,SMDPad,CuDef*%
%ADD13R,2.200000X2.500000*%
%TD*%
%TA.AperFunction,SMDPad,CuDef*%
%ADD14R,2.200000X1.550000*%
%TD*%
%TA.AperFunction,SMDPad,CuDef*%
%ADD15RoundRect,0.250000X-0.312500X-0.625000X0.312500X-0.625000X0.312500X0.625000X-0.312500X0.625000X0*%
%TD*%
%TA.AperFunction,ComponentPad*%
%ADD16C,3.000000*%
%TD*%
%TA.AperFunction,SMDPad,CuDef*%
%ADD17RoundRect,0.375000X0.375000X-0.625000X0.375000X0.625000X-0.375000X0.625000X-0.375000X-0.625000X0*%
%TD*%
%TA.AperFunction,SMDPad,CuDef*%
%ADD18RoundRect,0.500000X1.400000X-0.500000X1.400000X0.500000X-1.400000X0.500000X-1.400000X-0.500000X0*%
%TD*%
%TA.AperFunction,SMDPad,CuDef*%
%ADD19RoundRect,0.250000X-0.650000X0.412500X-0.650000X-0.412500X0.650000X-0.412500X0.650000X0.412500X0*%
%TD*%
%TA.AperFunction,SMDPad,CuDef*%
%ADD20RoundRect,0.307018X-0.567982X-0.692982X0.567982X-0.692982X0.567982X0.692982X-0.567982X0.692982X0*%
%TD*%
%TA.AperFunction,SMDPad,CuDef*%
%ADD21RoundRect,0.315790X-0.584210X-0.684210X0.584210X-0.684210X0.584210X0.684210X-0.584210X0.684210X0*%
%TD*%
%TA.AperFunction,ComponentPad*%
%ADD22FreePoly0,0.000000*%
%TD*%
%TA.AperFunction,ComponentPad*%
%ADD23C,1.700000*%
%TD*%
%TA.AperFunction,ComponentPad*%
%ADD24R,1.700000X1.700000*%
%TD*%
%TA.AperFunction,ComponentPad*%
%ADD25O,1.700000X1.700000*%
%TD*%
%TA.AperFunction,SMDPad,CuDef*%
%ADD26RoundRect,0.250000X0.650000X-0.412500X0.650000X0.412500X-0.650000X0.412500X-0.650000X-0.412500X0*%
%TD*%
%TA.AperFunction,ComponentPad*%
%ADD27O,2.000000X1.700000*%
%TD*%
%TA.AperFunction,ComponentPad*%
%ADD28R,2.000000X1.700000*%
%TD*%
%TA.AperFunction,ComponentPad*%
%ADD29R,2.200000X2.200000*%
%TD*%
%TA.AperFunction,ComponentPad*%
%ADD30C,2.200000*%
%TD*%
%TA.AperFunction,SMDPad,CuDef*%
%ADD31RoundRect,0.250000X0.312500X0.625000X-0.312500X0.625000X-0.312500X-0.625000X0.312500X-0.625000X0*%
%TD*%
%TA.AperFunction,ComponentPad*%
%ADD32R,1.500000X1.600000*%
%TD*%
%TA.AperFunction,SMDPad,CuDef*%
%ADD33RoundRect,0.249999X1.425001X-0.512501X1.425001X0.512501X-1.425001X0.512501X-1.425001X-0.512501X0*%
%TD*%
%TA.AperFunction,SMDPad,CuDef*%
%ADD34R,2.500000X2.200000*%
%TD*%
%TA.AperFunction,SMDPad,CuDef*%
%ADD35R,1.550000X2.200000*%
%TD*%
%TA.AperFunction,ComponentPad*%
%ADD36C,3.100000*%
%TD*%
%TA.AperFunction,ComponentPad*%
%ADD37R,3.100000X3.100000*%
%TD*%
%TA.AperFunction,ViaPad*%
%ADD38C,0.450000*%
%TD*%
%TA.AperFunction,Conductor*%
%ADD39C,0.800000*%
%TD*%
%TA.AperFunction,Conductor*%
%ADD40C,0.400000*%
%TD*%
%TA.AperFunction,Conductor*%
%ADD41C,0.300000*%
%TD*%
%TA.AperFunction,Conductor*%
%ADD42C,0.250000*%
%TD*%
%TA.AperFunction,Conductor*%
%ADD43C,1.000000*%
%TD*%
%TA.AperFunction,Conductor*%
%ADD44C,3.000000*%
%TD*%
G04 APERTURE END LIST*
D10*
X137900000Y-77930000D03*
D11*
X137900000Y-72930000D03*
X226920000Y-133510000D03*
D10*
X226920000Y-128510000D03*
D12*
X137900000Y-61725000D03*
X137900000Y-58800000D03*
D13*
X142400000Y-61017500D03*
D14*
X142400000Y-58442500D03*
D15*
X91487500Y-127900000D03*
X94412500Y-127900000D03*
D16*
X173041250Y-103470000D03*
X173041250Y-111090000D03*
D15*
X91487500Y-132700000D03*
X94412500Y-132700000D03*
D17*
X168975000Y-83462500D03*
X171275000Y-83462500D03*
X173575000Y-83462500D03*
D18*
X171275000Y-77162500D03*
D19*
X104800000Y-78527500D03*
X104800000Y-81652500D03*
D20*
X152157500Y-83700000D03*
D21*
X156007500Y-83700000D03*
D22*
X103010000Y-51200000D03*
D23*
X103010000Y-53740000D03*
X103010000Y-56280000D03*
X103010000Y-58820000D03*
X103010000Y-61360000D03*
X103010000Y-63900000D03*
X103010000Y-66440000D03*
X103010000Y-68980000D03*
X125870000Y-68980000D03*
X125870000Y-66440000D03*
X125870000Y-63900000D03*
X125870000Y-61360000D03*
X125870000Y-58820000D03*
X125870000Y-56280000D03*
X125870000Y-53740000D03*
X125870000Y-51200000D03*
X105550000Y-51200000D03*
X105550000Y-53740000D03*
X105550000Y-56280000D03*
X105550000Y-58820000D03*
X105550000Y-61360000D03*
X105550000Y-63900000D03*
X105550000Y-66440000D03*
X105550000Y-68980000D03*
X123330000Y-68980000D03*
X123330000Y-66440000D03*
X123330000Y-63900000D03*
X123330000Y-61360000D03*
X123330000Y-58820000D03*
X123330000Y-56280000D03*
X123330000Y-53740000D03*
X123330000Y-51200000D03*
D24*
X86750000Y-135300000D03*
D25*
X86750000Y-132760000D03*
X86750000Y-130220000D03*
X86750000Y-127680000D03*
X86750000Y-125140000D03*
D11*
X220010000Y-71500000D03*
X210010000Y-71500000D03*
D26*
X110040000Y-54542500D03*
X110040000Y-51417500D03*
D27*
X189550000Y-46600000D03*
D28*
X195550000Y-46600000D03*
D27*
X201550000Y-80200000D03*
X183550000Y-80200000D03*
D16*
X177785000Y-103490000D03*
X177785000Y-111110000D03*
D29*
X156000000Y-96512500D03*
D30*
X156000000Y-109262500D03*
D24*
X86050000Y-67510000D03*
D25*
X86050000Y-64970000D03*
X86050000Y-62430000D03*
X86050000Y-59890000D03*
X86050000Y-57350000D03*
X86050000Y-54810000D03*
X86050000Y-52270000D03*
X86050000Y-49730000D03*
D19*
X108000000Y-78527500D03*
X108000000Y-81652500D03*
D31*
X161915000Y-83670000D03*
X158990000Y-83670000D03*
D32*
X213560000Y-130493400D03*
D11*
X213560000Y-132993400D03*
X213560000Y-134993400D03*
X213560000Y-137493400D03*
D16*
X210850000Y-127423400D03*
X210850000Y-140563400D03*
D33*
X212780000Y-88987500D03*
X212780000Y-83012500D03*
D15*
X233675000Y-61300000D03*
X236600000Y-61300000D03*
D34*
X236300000Y-67400000D03*
D35*
X233725000Y-67400000D03*
D16*
X129240000Y-110960000D03*
X129240000Y-103340000D03*
D36*
X223100000Y-60700000D03*
X213100000Y-60700000D03*
D37*
X223100000Y-47700000D03*
D36*
X213100000Y-47700000D03*
D16*
X134010000Y-110960000D03*
X134010000Y-103340000D03*
D38*
X171300000Y-83425000D03*
X233700000Y-61300000D03*
X80000000Y-141000000D03*
X140000000Y-51000000D03*
X220000000Y-131000000D03*
X240000000Y-51000000D03*
X100000000Y-91000000D03*
X100000000Y-111000000D03*
X210000000Y-91000000D03*
X210000000Y-81000000D03*
X220000000Y-141000000D03*
X240000000Y-151000000D03*
X110000000Y-141000000D03*
X100000000Y-131000000D03*
X95000000Y-65300000D03*
X95000000Y-60050000D03*
X80000000Y-131000000D03*
X160000000Y-111000000D03*
X130000000Y-71000000D03*
X210000000Y-101000000D03*
X170000000Y-111000000D03*
X210000000Y-131000000D03*
X110000000Y-91000000D03*
X150000000Y-71000000D03*
X90000000Y-141000000D03*
X200000000Y-141000000D03*
X80000000Y-51000000D03*
X110000000Y-101000000D03*
X190000000Y-71000000D03*
X240000000Y-71000000D03*
X150000000Y-81000000D03*
X220000000Y-51000000D03*
X90000000Y-71000000D03*
X200000000Y-111000000D03*
X180000000Y-91000000D03*
X90000000Y-121000000D03*
X220000000Y-151000000D03*
X180000000Y-71000000D03*
X130000000Y-51000000D03*
X200000000Y-61000000D03*
X190000000Y-51000000D03*
X100000000Y-121000000D03*
X190000000Y-81000000D03*
X150000000Y-51000000D03*
X200000000Y-101000000D03*
X114100000Y-56100000D03*
X200000000Y-51000000D03*
X120000000Y-111000000D03*
X95000000Y-57550000D03*
X180000000Y-61000000D03*
X160000000Y-101000000D03*
X150000000Y-91000000D03*
X210000000Y-121000000D03*
X90000000Y-51000000D03*
X140000000Y-61000000D03*
X230000000Y-151000000D03*
X170000000Y-71000000D03*
X110000000Y-121000000D03*
X200000000Y-81000000D03*
X160000000Y-71000000D03*
X110000000Y-61000000D03*
X150000000Y-101000000D03*
X220000000Y-121000000D03*
X200000000Y-131000000D03*
X110000000Y-131000000D03*
X95000000Y-62700000D03*
X170000000Y-101000000D03*
X230000000Y-141000000D03*
X100000000Y-71000000D03*
X160000000Y-81000000D03*
X230000000Y-71000000D03*
X210000000Y-151000000D03*
X170000000Y-91000000D03*
X230000000Y-61000000D03*
X110000000Y-111000000D03*
X114300000Y-52720391D03*
X130000000Y-61000000D03*
X150000000Y-111000000D03*
X200000000Y-91000000D03*
X140000000Y-101000000D03*
X140000000Y-111000000D03*
X240000000Y-131000000D03*
X240000000Y-61000000D03*
X210000000Y-111000000D03*
X180000000Y-51000000D03*
X210000000Y-51000000D03*
X180000000Y-101000000D03*
X120000000Y-101000000D03*
X240000000Y-121000000D03*
X110000000Y-81000000D03*
X80000000Y-71000000D03*
X170000000Y-61000000D03*
X230000000Y-131000000D03*
X190000000Y-91000000D03*
X110000000Y-51000000D03*
X120000000Y-61000000D03*
X240000000Y-141000000D03*
X100000000Y-141000000D03*
X95000000Y-67600000D03*
X160000000Y-51000000D03*
X110000000Y-71000000D03*
X120000000Y-51000000D03*
X130000000Y-81000000D03*
X80000000Y-61000000D03*
X120000000Y-81000000D03*
X100000000Y-51000000D03*
X140000000Y-71000000D03*
X170000000Y-51000000D03*
X130000000Y-91000000D03*
X190000000Y-61000000D03*
X200000000Y-71000000D03*
X100000000Y-81000000D03*
X150000000Y-61000000D03*
X190000000Y-101000000D03*
X160000000Y-91000000D03*
X230000000Y-51000000D03*
X100000000Y-101000000D03*
X230000000Y-121000000D03*
X120000000Y-91000000D03*
X120000000Y-71000000D03*
X200000000Y-121000000D03*
X80000000Y-121000000D03*
X140000000Y-91000000D03*
X152157500Y-83700000D03*
X128850000Y-55000000D03*
D39*
X86050000Y-64970000D02*
X87670000Y-64970000D01*
X137100000Y-78647349D02*
X104672349Y-78647349D01*
X167397349Y-78647349D02*
X137100000Y-78647349D01*
D40*
X94412500Y-132700000D02*
X94412500Y-127900000D01*
D39*
X87670000Y-64970000D02*
X91680000Y-68980000D01*
D40*
X93050000Y-135300000D02*
X94412500Y-133937500D01*
D39*
X104672349Y-78647349D02*
X103010000Y-76985000D01*
X171275000Y-83462500D02*
X171275000Y-82525000D01*
D40*
X94412500Y-133937500D02*
X94412500Y-132700000D01*
X101920000Y-77100000D02*
X103010000Y-76010000D01*
X101920000Y-122170000D02*
X101920000Y-77100000D01*
D39*
X103010000Y-76985000D02*
X103010000Y-68980000D01*
D40*
X94412500Y-127900000D02*
X96190000Y-127900000D01*
X86750000Y-135300000D02*
X93050000Y-135300000D01*
D39*
X91680000Y-68980000D02*
X103010000Y-68980000D01*
D40*
X96190000Y-127900000D02*
X101920000Y-122170000D01*
D39*
X171275000Y-82525000D02*
X167397349Y-78647349D01*
D41*
X236600000Y-62425000D02*
X233675000Y-65350000D01*
X233675000Y-65350000D02*
X233675000Y-67350000D01*
X236600000Y-61300000D02*
X236600000Y-62425000D01*
X233675000Y-67350000D02*
X233725000Y-67400000D01*
D42*
X142042500Y-58800000D02*
X142400000Y-58442500D01*
X138300000Y-58800000D02*
X142042500Y-58800000D01*
D41*
X137900000Y-61700000D02*
X137900000Y-61725000D01*
X105550000Y-56280000D02*
X106820000Y-57550000D01*
X133750000Y-57550000D02*
X137900000Y-61700000D01*
X106820000Y-57550000D02*
X133750000Y-57550000D01*
X89780000Y-130220000D02*
X91487500Y-128512500D01*
X91487500Y-128512500D02*
X91487500Y-127900000D01*
X86750000Y-130220000D02*
X89780000Y-130220000D01*
D42*
X103010000Y-53740000D02*
X104270000Y-55000000D01*
X104270000Y-55000000D02*
X128850000Y-55000000D01*
D41*
X101400000Y-64100000D02*
X102450000Y-65150000D01*
X88890000Y-59890000D02*
X93100000Y-64100000D01*
X102450000Y-65150000D02*
X103750000Y-65150000D01*
X93100000Y-64100000D02*
X101400000Y-64100000D01*
X105040000Y-66440000D02*
X105550000Y-66440000D01*
X103750000Y-65150000D02*
X105040000Y-66440000D01*
X86050000Y-59890000D02*
X88890000Y-59890000D01*
X91427500Y-132760000D02*
X91487500Y-132700000D01*
X86750000Y-132760000D02*
X91427500Y-132760000D01*
X92300000Y-66450000D02*
X88280000Y-62430000D01*
X103010000Y-66440000D02*
X103000000Y-66450000D01*
X88280000Y-62430000D02*
X86050000Y-62430000D01*
X103000000Y-66450000D02*
X92300000Y-66450000D01*
X104300000Y-58250000D02*
X103600000Y-57550000D01*
X105550000Y-63900000D02*
X104300000Y-62650000D01*
X91210000Y-52250000D02*
X86070000Y-52250000D01*
X86070000Y-52250000D02*
X86050000Y-52270000D01*
X103600000Y-57550000D02*
X101170000Y-57550000D01*
X99870000Y-56250000D02*
X95210000Y-56250000D01*
X101170000Y-57550000D02*
X99870000Y-56250000D01*
X104300000Y-62650000D02*
X104300000Y-58250000D01*
X95210000Y-56250000D02*
X91210000Y-52250000D01*
D42*
X97210000Y-49730000D02*
X86050000Y-49730000D01*
X105550000Y-51200000D02*
X104250000Y-52500000D01*
X104250000Y-52500000D02*
X99980000Y-52500000D01*
X99980000Y-52500000D02*
X97210000Y-49730000D01*
D43*
X218970000Y-62540000D02*
X218970000Y-59090000D01*
X207180000Y-74330000D02*
X218970000Y-62540000D01*
X177785000Y-103490000D02*
X177795000Y-103500000D01*
X218970000Y-59090000D02*
X223100000Y-54960000D01*
X177795000Y-103500000D02*
X193800000Y-103500000D01*
D44*
X177765000Y-103470000D02*
X173041250Y-103470000D01*
D43*
X193800000Y-103500000D02*
X207180000Y-90120000D01*
D44*
X177785000Y-103490000D02*
X177765000Y-103470000D01*
D43*
X223100000Y-54960000D02*
X223100000Y-47700000D01*
X207180000Y-90120000D02*
X207180000Y-74330000D01*
X177805178Y-111130178D02*
X193769822Y-111130178D01*
X177785000Y-111110000D02*
X177805178Y-111130178D01*
X212780000Y-92120000D02*
X212780000Y-88987500D01*
D44*
X177765000Y-111090000D02*
X177785000Y-111110000D01*
X173070000Y-111090000D02*
X177765000Y-111090000D01*
D43*
X193769822Y-111130178D02*
X212780000Y-92120000D01*
D41*
X156007500Y-96505000D02*
X156000000Y-96512500D01*
X156080000Y-83670000D02*
X158990000Y-83670000D01*
X156007500Y-83700000D02*
X156007500Y-96505000D01*
X156007500Y-83700000D02*
X156050000Y-83700000D01*
X156050000Y-83700000D02*
X156080000Y-83670000D01*
X103010000Y-58820000D02*
X102990000Y-58800000D01*
X94100000Y-58800000D02*
X90100000Y-54800000D01*
X102990000Y-58800000D02*
X94100000Y-58800000D01*
X90100000Y-54800000D02*
X86060000Y-54800000D01*
X86060000Y-54800000D02*
X86050000Y-54810000D01*
X93400000Y-61350000D02*
X89400000Y-57350000D01*
X89400000Y-57350000D02*
X86050000Y-57350000D01*
X103010000Y-61360000D02*
X103000000Y-61350000D01*
X103000000Y-61350000D02*
X93400000Y-61350000D01*
D43*
X226880000Y-128580000D02*
X226900000Y-128560000D01*
X183525000Y-80225000D02*
X183550000Y-80200000D01*
X183450000Y-80200000D02*
X183550000Y-80200000D01*
X176825000Y-80225000D02*
X183525000Y-80225000D01*
X173587500Y-83462500D02*
X176825000Y-80225000D01*
X213560000Y-130490000D02*
X213560000Y-130493400D01*
X173575000Y-83462500D02*
X173587500Y-83462500D01*
X213560000Y-130493400D02*
X215473400Y-128580000D01*
X215473400Y-128580000D02*
X226880000Y-128580000D01*
X213100000Y-60700000D02*
X201925000Y-60700000D01*
X201925000Y-60700000D02*
X189550000Y-48325000D01*
X189550000Y-48325000D02*
X189550000Y-46600000D01*
X196650000Y-47700000D02*
X195550000Y-46600000D01*
X213100000Y-47700000D02*
X196650000Y-47700000D01*
X212780000Y-78710000D02*
X219990000Y-71500000D01*
X220010000Y-71500000D02*
X223100000Y-68410000D01*
X212780000Y-83012500D02*
X212780000Y-78710000D01*
X219990000Y-71500000D02*
X220010000Y-71500000D01*
X223100000Y-68410000D02*
X223100000Y-60700000D01*
D44*
X134010000Y-103340000D02*
X129240000Y-103340000D01*
X134010000Y-110960000D02*
X129240000Y-110960000D01*
%TA.AperFunction,Conductor*%
G36*
X99742121Y-41095502D02*
G01*
X99788614Y-41149158D01*
X99800000Y-41201500D01*
X99800000Y-49900000D01*
X101926682Y-49900000D01*
X101994803Y-49920002D01*
X102041296Y-49973658D01*
X102051400Y-50043932D01*
X102021906Y-50108512D01*
X102015790Y-50115081D01*
X101893390Y-50237482D01*
X101771003Y-50359868D01*
X101770991Y-50359881D01*
X101718188Y-50427855D01*
X101718187Y-50427856D01*
X101712321Y-50442018D01*
X101662229Y-50562951D01*
X101660779Y-50574500D01*
X101651500Y-50648372D01*
X101651500Y-51539246D01*
X101651501Y-51539266D01*
X101653918Y-51579837D01*
X101654321Y-51586602D01*
X101676279Y-51687541D01*
X101681973Y-51713717D01*
X101676907Y-51784533D01*
X101634360Y-51841369D01*
X101567840Y-51866179D01*
X101558852Y-51866500D01*
X100294595Y-51866500D01*
X100226474Y-51846498D01*
X100205500Y-51829595D01*
X97613835Y-49237931D01*
X97613833Y-49237929D01*
X97510075Y-49168600D01*
X97394785Y-49120845D01*
X97321086Y-49106185D01*
X97272396Y-49096500D01*
X97272394Y-49096500D01*
X87329109Y-49096500D01*
X87260988Y-49076498D01*
X87216844Y-49027706D01*
X87216830Y-49027678D01*
X87211894Y-49017991D01*
X87086206Y-48844996D01*
X87086203Y-48844993D01*
X87086201Y-48844990D01*
X86935009Y-48693798D01*
X86935006Y-48693796D01*
X86935004Y-48693794D01*
X86804781Y-48599182D01*
X86762012Y-48568108D01*
X86762011Y-48568107D01*
X86762009Y-48568106D01*
X86571483Y-48471028D01*
X86571480Y-48471027D01*
X86571478Y-48471026D01*
X86368120Y-48404952D01*
X86368123Y-48404952D01*
X86328801Y-48398724D01*
X86156916Y-48371500D01*
X85943084Y-48371500D01*
X85731884Y-48404951D01*
X85731878Y-48404952D01*
X85528521Y-48471026D01*
X85528515Y-48471029D01*
X85337987Y-48568108D01*
X85164993Y-48693796D01*
X85164990Y-48693798D01*
X85013798Y-48844990D01*
X85013796Y-48844993D01*
X84888108Y-49017987D01*
X84791029Y-49208515D01*
X84791026Y-49208521D01*
X84724952Y-49411878D01*
X84724951Y-49411883D01*
X84724951Y-49411884D01*
X84691500Y-49623084D01*
X84691500Y-49836916D01*
X84724951Y-50048116D01*
X84724952Y-50048121D01*
X84789571Y-50247000D01*
X84791028Y-50251483D01*
X84883156Y-50432294D01*
X84888108Y-50442012D01*
X84899156Y-50457218D01*
X85013794Y-50615004D01*
X85013796Y-50615006D01*
X85013798Y-50615009D01*
X85164990Y-50766201D01*
X85164993Y-50766203D01*
X85164996Y-50766206D01*
X85337991Y-50891894D01*
X85337996Y-50891896D01*
X85339088Y-50892566D01*
X85339418Y-50892931D01*
X85341996Y-50894804D01*
X85341602Y-50895345D01*
X85386721Y-50945213D01*
X85398328Y-51015255D01*
X85370226Y-51080453D01*
X85341870Y-51105023D01*
X85341996Y-51105196D01*
X85339982Y-51106658D01*
X85339088Y-51107434D01*
X85337987Y-51108108D01*
X85164993Y-51233796D01*
X85164990Y-51233798D01*
X85013798Y-51384990D01*
X85013796Y-51384993D01*
X84888108Y-51557987D01*
X84791029Y-51748515D01*
X84791026Y-51748521D01*
X84724952Y-51951878D01*
X84724951Y-51951883D01*
X84724951Y-51951884D01*
X84691500Y-52163084D01*
X84691500Y-52376916D01*
X84724933Y-52588000D01*
X84724952Y-52588121D01*
X84790457Y-52789726D01*
X84791028Y-52791483D01*
X84888106Y-52982009D01*
X84888108Y-52982012D01*
X84895833Y-52992645D01*
X85013794Y-53155004D01*
X85013796Y-53155006D01*
X85013798Y-53155009D01*
X85164990Y-53306201D01*
X85164993Y-53306203D01*
X85164996Y-53306206D01*
X85337991Y-53431894D01*
X85337996Y-53431896D01*
X85339088Y-53432566D01*
X85339418Y-53432931D01*
X85341996Y-53434804D01*
X85341602Y-53435345D01*
X85386721Y-53485213D01*
X85398328Y-53555255D01*
X85370226Y-53620453D01*
X85341870Y-53645023D01*
X85341996Y-53645196D01*
X85339982Y-53646658D01*
X85339088Y-53647434D01*
X85337987Y-53648108D01*
X85164993Y-53773796D01*
X85164990Y-53773798D01*
X85013798Y-53924990D01*
X85013796Y-53924993D01*
X84888108Y-54097987D01*
X84791029Y-54288515D01*
X84791026Y-54288521D01*
X84724952Y-54491878D01*
X84724951Y-54491883D01*
X84724951Y-54491884D01*
X84691500Y-54703084D01*
X84691500Y-54916916D01*
X84716102Y-55072243D01*
X84724952Y-55128121D01*
X84791026Y-55331478D01*
X84791028Y-55331483D01*
X84888106Y-55522009D01*
X85013794Y-55695004D01*
X85013796Y-55695006D01*
X85013798Y-55695009D01*
X85164990Y-55846201D01*
X85164993Y-55846203D01*
X85164996Y-55846206D01*
X85337991Y-55971894D01*
X85337996Y-55971896D01*
X85339088Y-55972566D01*
X85339418Y-55972931D01*
X85341996Y-55974804D01*
X85341602Y-55975345D01*
X85386721Y-56025213D01*
X85398328Y-56095255D01*
X85370226Y-56160453D01*
X85341870Y-56185023D01*
X85341996Y-56185196D01*
X85339982Y-56186658D01*
X85339088Y-56187434D01*
X85337987Y-56188108D01*
X85164993Y-56313796D01*
X85164990Y-56313798D01*
X85013798Y-56464990D01*
X85013796Y-56464993D01*
X84888108Y-56637987D01*
X84791029Y-56828515D01*
X84791026Y-56828521D01*
X84724952Y-57031878D01*
X84724951Y-57031883D01*
X84724951Y-57031884D01*
X84691500Y-57243084D01*
X84691500Y-57456916D01*
X84724951Y-57668116D01*
X84724952Y-57668121D01*
X84791026Y-57871478D01*
X84791028Y-57871483D01*
X84888106Y-58062009D01*
X85013794Y-58235004D01*
X85013796Y-58235006D01*
X85013798Y-58235009D01*
X85164990Y-58386201D01*
X85164993Y-58386203D01*
X85164996Y-58386206D01*
X85337991Y-58511894D01*
X85337996Y-58511896D01*
X85339088Y-58512566D01*
X85339418Y-58512931D01*
X85341996Y-58514804D01*
X85341602Y-58515345D01*
X85386721Y-58565213D01*
X85398328Y-58635255D01*
X85370226Y-58700453D01*
X85341870Y-58725023D01*
X85341996Y-58725196D01*
X85339982Y-58726658D01*
X85339088Y-58727434D01*
X85337987Y-58728108D01*
X85164993Y-58853796D01*
X85164990Y-58853798D01*
X85013798Y-59004990D01*
X85013796Y-59004993D01*
X84888108Y-59177987D01*
X84791029Y-59368515D01*
X84791026Y-59368521D01*
X84724952Y-59571878D01*
X84724951Y-59571883D01*
X84724951Y-59571884D01*
X84691500Y-59783084D01*
X84691500Y-59996916D01*
X84722877Y-60195023D01*
X84724952Y-60208121D01*
X84771786Y-60352262D01*
X84791028Y-60411483D01*
X84888106Y-60602009D01*
X84888108Y-60602012D01*
X84904407Y-60624446D01*
X85013794Y-60775004D01*
X85013796Y-60775006D01*
X85013798Y-60775009D01*
X85164990Y-60926201D01*
X85164993Y-60926203D01*
X85164996Y-60926206D01*
X85337991Y-61051894D01*
X85337996Y-61051896D01*
X85339088Y-61052566D01*
X85339418Y-61052931D01*
X85341996Y-61054804D01*
X85341602Y-61055345D01*
X85386721Y-61105213D01*
X85398328Y-61175255D01*
X85370226Y-61240453D01*
X85341870Y-61265023D01*
X85341996Y-61265196D01*
X85339982Y-61266658D01*
X85339088Y-61267434D01*
X85337987Y-61268108D01*
X85164993Y-61393796D01*
X85164990Y-61393798D01*
X85013798Y-61544990D01*
X85013796Y-61544993D01*
X84888108Y-61717987D01*
X84791029Y-61908515D01*
X84791026Y-61908521D01*
X84724952Y-62111878D01*
X84724951Y-62111883D01*
X84724951Y-62111884D01*
X84691500Y-62323084D01*
X84691500Y-62536916D01*
X84722877Y-62735023D01*
X84724952Y-62748121D01*
X84791026Y-62951478D01*
X84791028Y-62951483D01*
X84888106Y-63142009D01*
X85013794Y-63315004D01*
X85013796Y-63315006D01*
X85013798Y-63315009D01*
X85164990Y-63466201D01*
X85164993Y-63466203D01*
X85164996Y-63466206D01*
X85337991Y-63591894D01*
X85337996Y-63591896D01*
X85339088Y-63592566D01*
X85339418Y-63592931D01*
X85341996Y-63594804D01*
X85341602Y-63595345D01*
X85386721Y-63645213D01*
X85398328Y-63715255D01*
X85370226Y-63780453D01*
X85341870Y-63805023D01*
X85341996Y-63805196D01*
X85339982Y-63806658D01*
X85339088Y-63807434D01*
X85337987Y-63808108D01*
X85164993Y-63933796D01*
X85164990Y-63933798D01*
X85013798Y-64084990D01*
X85013796Y-64084993D01*
X84888108Y-64257987D01*
X84791029Y-64448515D01*
X84791026Y-64448521D01*
X84724952Y-64651878D01*
X84724951Y-64651883D01*
X84724951Y-64651884D01*
X84691500Y-64863084D01*
X84691500Y-65076916D01*
X84724480Y-65285143D01*
X84724952Y-65288121D01*
X84791026Y-65491478D01*
X84791028Y-65491483D01*
X84888106Y-65682009D01*
X85013794Y-65855004D01*
X85013796Y-65855006D01*
X85013798Y-65855009D01*
X85117159Y-65958370D01*
X85151185Y-66020682D01*
X85146120Y-66091497D01*
X85103573Y-66148333D01*
X85072097Y-66165521D01*
X84954033Y-66209556D01*
X84837095Y-66297095D01*
X84749555Y-66414034D01*
X84749555Y-66414035D01*
X84698505Y-66550906D01*
X84692000Y-66611402D01*
X84692000Y-67256000D01*
X85619297Y-67256000D01*
X85584075Y-67317007D01*
X85550000Y-67444174D01*
X85550000Y-67575826D01*
X85584075Y-67702993D01*
X85619297Y-67764000D01*
X84692000Y-67764000D01*
X84692000Y-68408597D01*
X84698505Y-68469093D01*
X84749555Y-68605964D01*
X84749555Y-68605965D01*
X84837095Y-68722904D01*
X84954034Y-68810444D01*
X85090906Y-68861494D01*
X85151402Y-68867999D01*
X85151415Y-68868000D01*
X85796000Y-68868000D01*
X85796000Y-67940702D01*
X85857007Y-67975925D01*
X85984174Y-68010000D01*
X86115826Y-68010000D01*
X86242993Y-67975925D01*
X86304000Y-67940702D01*
X86304000Y-68868000D01*
X86948585Y-68868000D01*
X86948597Y-68867999D01*
X87009093Y-68861494D01*
X87145964Y-68810444D01*
X87145965Y-68810444D01*
X87262904Y-68722904D01*
X87350444Y-68605965D01*
X87350444Y-68605964D01*
X87401494Y-68469093D01*
X87407999Y-68408597D01*
X87408000Y-68408585D01*
X87408000Y-67764000D01*
X86480703Y-67764000D01*
X86515925Y-67702993D01*
X86550000Y-67575826D01*
X86550000Y-67444174D01*
X86515925Y-67317007D01*
X86480703Y-67256000D01*
X87408000Y-67256000D01*
X87408000Y-66611414D01*
X87407999Y-66611402D01*
X87401494Y-66550906D01*
X87350444Y-66414035D01*
X87350444Y-66414034D01*
X87262904Y-66297095D01*
X87145965Y-66209555D01*
X87027903Y-66165521D01*
X86971067Y-66122974D01*
X86946256Y-66056454D01*
X86961347Y-65987080D01*
X86982840Y-65958370D01*
X87025805Y-65915405D01*
X87088117Y-65881379D01*
X87114900Y-65878500D01*
X87241497Y-65878500D01*
X87309618Y-65898502D01*
X87330592Y-65915405D01*
X90974322Y-69559135D01*
X91100865Y-69685678D01*
X91249664Y-69785102D01*
X91415000Y-69853587D01*
X91561399Y-69882707D01*
X91590520Y-69888500D01*
X91590521Y-69888500D01*
X101945100Y-69888500D01*
X101975015Y-69897283D01*
X102005485Y-69903912D01*
X102010580Y-69907726D01*
X102013221Y-69908502D01*
X102034195Y-69925405D01*
X102064595Y-69955805D01*
X102098621Y-70018117D01*
X102101500Y-70044900D01*
X102101500Y-75864338D01*
X102081498Y-75932459D01*
X102064595Y-75953433D01*
X101369676Y-76648351D01*
X101369671Y-76648357D01*
X101292136Y-76764397D01*
X101268149Y-76822307D01*
X101268149Y-76822308D01*
X101238728Y-76893334D01*
X101211500Y-77030216D01*
X101211500Y-121824339D01*
X101191498Y-121892460D01*
X101174595Y-121913434D01*
X95933434Y-127154595D01*
X95871122Y-127188621D01*
X95844339Y-127191500D01*
X95587375Y-127191500D01*
X95519254Y-127171498D01*
X95472761Y-127117842D01*
X95467770Y-127105132D01*
X95426953Y-126981953D01*
X95417115Y-126952262D01*
X95324030Y-126801348D01*
X95324029Y-126801347D01*
X95324024Y-126801341D01*
X95198658Y-126675975D01*
X95198652Y-126675970D01*
X95146490Y-126643796D01*
X95047738Y-126582885D01*
X94963582Y-126554999D01*
X94879427Y-126527113D01*
X94879420Y-126527112D01*
X94775553Y-126516500D01*
X94049455Y-126516500D01*
X93945574Y-126527112D01*
X93777261Y-126582885D01*
X93626347Y-126675970D01*
X93626341Y-126675975D01*
X93500975Y-126801341D01*
X93500970Y-126801347D01*
X93407885Y-126952262D01*
X93352113Y-127120572D01*
X93352112Y-127120579D01*
X93341500Y-127224446D01*
X93341500Y-128575544D01*
X93352112Y-128679425D01*
X93407885Y-128847738D01*
X93500970Y-128998652D01*
X93500975Y-128998658D01*
X93626341Y-129124024D01*
X93626345Y-129124027D01*
X93626348Y-129124030D01*
X93626350Y-129124031D01*
X93644146Y-129135008D01*
X93691625Y-129187794D01*
X93704000Y-129242249D01*
X93704000Y-131357750D01*
X93683998Y-131425871D01*
X93644150Y-131464989D01*
X93626349Y-131475969D01*
X93626341Y-131475975D01*
X93500975Y-131601341D01*
X93500970Y-131601347D01*
X93407885Y-131752262D01*
X93352113Y-131920572D01*
X93352112Y-131920579D01*
X93341500Y-132024446D01*
X93341500Y-133375544D01*
X93352112Y-133479425D01*
X93407886Y-133647740D01*
X93467134Y-133743797D01*
X93485871Y-133812276D01*
X93464611Y-133880015D01*
X93448989Y-133899038D01*
X92793434Y-134554595D01*
X92731121Y-134588620D01*
X92704338Y-134591500D01*
X88234500Y-134591500D01*
X88166379Y-134571498D01*
X88119886Y-134517842D01*
X88108500Y-134465500D01*
X88108500Y-134401367D01*
X88108499Y-134401350D01*
X88101990Y-134340803D01*
X88101988Y-134340795D01*
X88050889Y-134203797D01*
X88050887Y-134203792D01*
X87963261Y-134086738D01*
X87846207Y-133999112D01*
X87846203Y-133999110D01*
X87728291Y-133955131D01*
X87671455Y-133912585D01*
X87646645Y-133846064D01*
X87661737Y-133776690D01*
X87683226Y-133747983D01*
X87786206Y-133645004D01*
X87894689Y-133495690D01*
X87913035Y-133470439D01*
X87969257Y-133427085D01*
X88014971Y-133418500D01*
X90315939Y-133418500D01*
X90384060Y-133438502D01*
X90430553Y-133492158D01*
X90435540Y-133504859D01*
X90482885Y-133647738D01*
X90493159Y-133664394D01*
X90575970Y-133798652D01*
X90575975Y-133798658D01*
X90701341Y-133924024D01*
X90701345Y-133924027D01*
X90701348Y-133924030D01*
X90852262Y-134017115D01*
X91020574Y-134072887D01*
X91124455Y-134083500D01*
X91850544Y-134083499D01*
X91954426Y-134072887D01*
X92122738Y-134017115D01*
X92273652Y-133924030D01*
X92399030Y-133798652D01*
X92492115Y-133647738D01*
X92547887Y-133479426D01*
X92558500Y-133375545D01*
X92558499Y-132024456D01*
X92547887Y-131920574D01*
X92492115Y-131752262D01*
X92399030Y-131601348D01*
X92399029Y-131601347D01*
X92399024Y-131601341D01*
X92273658Y-131475975D01*
X92273652Y-131475970D01*
X92255849Y-131464989D01*
X92122738Y-131382885D01*
X91999468Y-131342038D01*
X91954427Y-131327113D01*
X91954420Y-131327112D01*
X91850553Y-131316500D01*
X91124455Y-131316500D01*
X91020574Y-131327112D01*
X90852261Y-131382885D01*
X90701347Y-131475970D01*
X90701341Y-131475975D01*
X90575975Y-131601341D01*
X90575970Y-131601347D01*
X90482885Y-131752262D01*
X90427113Y-131920572D01*
X90427112Y-131920579D01*
X90420192Y-131988308D01*
X90393369Y-132054043D01*
X90335266Y-132094841D01*
X90294845Y-132101500D01*
X88014971Y-132101500D01*
X87946850Y-132081498D01*
X87913035Y-132049561D01*
X87849086Y-131961543D01*
X87786206Y-131874996D01*
X87786203Y-131874993D01*
X87786201Y-131874990D01*
X87635009Y-131723798D01*
X87635006Y-131723796D01*
X87635004Y-131723794D01*
X87462009Y-131598106D01*
X87462007Y-131598105D01*
X87460920Y-131597439D01*
X87460591Y-131597075D01*
X87458004Y-131595196D01*
X87458398Y-131594652D01*
X87413283Y-131544796D01*
X87401670Y-131474756D01*
X87429766Y-131409555D01*
X87458130Y-131384978D01*
X87458004Y-131384804D01*
X87460030Y-131383331D01*
X87460920Y-131382561D01*
X87461997Y-131381899D01*
X87462009Y-131381894D01*
X87635004Y-131256206D01*
X87786206Y-131105004D01*
X87911894Y-130932009D01*
X87913035Y-130930439D01*
X87969257Y-130887085D01*
X88014971Y-130878500D01*
X89844857Y-130878500D01*
X89972077Y-130853194D01*
X90091917Y-130803555D01*
X90199769Y-130731491D01*
X91610855Y-129320403D01*
X91673167Y-129286379D01*
X91699950Y-129283499D01*
X91850544Y-129283499D01*
X91954426Y-129272887D01*
X92122738Y-129217115D01*
X92273652Y-129124030D01*
X92399030Y-128998652D01*
X92492115Y-128847738D01*
X92547887Y-128679426D01*
X92558500Y-128575545D01*
X92558499Y-127224456D01*
X92547887Y-127120574D01*
X92492115Y-126952262D01*
X92399030Y-126801348D01*
X92399029Y-126801347D01*
X92399024Y-126801341D01*
X92273658Y-126675975D01*
X92273652Y-126675970D01*
X92221490Y-126643796D01*
X92122738Y-126582885D01*
X92038582Y-126554999D01*
X91954427Y-126527113D01*
X91954420Y-126527112D01*
X91850553Y-126516500D01*
X91124455Y-126516500D01*
X91020574Y-126527112D01*
X90852261Y-126582885D01*
X90701347Y-126675970D01*
X90701341Y-126675975D01*
X90575975Y-126801341D01*
X90575970Y-126801347D01*
X90482885Y-126952262D01*
X90427113Y-127120572D01*
X90427112Y-127120579D01*
X90416500Y-127224446D01*
X90416500Y-128575549D01*
X90416501Y-128575556D01*
X90417524Y-128585574D01*
X90404544Y-128655374D01*
X90381272Y-128687466D01*
X89544145Y-129524595D01*
X89481832Y-129558620D01*
X89455049Y-129561500D01*
X88014971Y-129561500D01*
X87946850Y-129541498D01*
X87913035Y-129509561D01*
X87856247Y-129431399D01*
X87786206Y-129334996D01*
X87786203Y-129334993D01*
X87786201Y-129334990D01*
X87635009Y-129183798D01*
X87635006Y-129183796D01*
X87635004Y-129183794D01*
X87462009Y-129058106D01*
X87462007Y-129058105D01*
X87460920Y-129057439D01*
X87460591Y-129057075D01*
X87458004Y-129055196D01*
X87458398Y-129054652D01*
X87413283Y-129004796D01*
X87401670Y-128934756D01*
X87429766Y-128869555D01*
X87458130Y-128844978D01*
X87458004Y-128844804D01*
X87460030Y-128843331D01*
X87460920Y-128842561D01*
X87461997Y-128841899D01*
X87462009Y-128841894D01*
X87635004Y-128716206D01*
X87786206Y-128565004D01*
X87911894Y-128392009D01*
X88008972Y-128201483D01*
X88075049Y-127998116D01*
X88108500Y-127786916D01*
X88108500Y-127573084D01*
X88075049Y-127361884D01*
X88008972Y-127158517D01*
X87911894Y-126967991D01*
X87786206Y-126794996D01*
X87786203Y-126794993D01*
X87786201Y-126794990D01*
X87635009Y-126643798D01*
X87635006Y-126643796D01*
X87635004Y-126643794D01*
X87551170Y-126582885D01*
X87462006Y-126518103D01*
X87460427Y-126517136D01*
X87459952Y-126516611D01*
X87458004Y-126515196D01*
X87458301Y-126514786D01*
X87412797Y-126464488D01*
X87401191Y-126394446D01*
X87429296Y-126329249D01*
X87457844Y-126304516D01*
X87457742Y-126304376D01*
X87459382Y-126303184D01*
X87460448Y-126302261D01*
X87461754Y-126301460D01*
X87634679Y-126175822D01*
X87785822Y-126024679D01*
X87911463Y-125851750D01*
X88008506Y-125661292D01*
X88008509Y-125661286D01*
X88074559Y-125458004D01*
X88084698Y-125394000D01*
X87180703Y-125394000D01*
X87215925Y-125332993D01*
X87250000Y-125205826D01*
X87250000Y-125074174D01*
X87215925Y-124947007D01*
X87180703Y-124886000D01*
X88084697Y-124886000D01*
X88074559Y-124821995D01*
X88008509Y-124618713D01*
X88008506Y-124618707D01*
X87911463Y-124428249D01*
X87785822Y-124255320D01*
X87634679Y-124104177D01*
X87461750Y-123978536D01*
X87271292Y-123881493D01*
X87271286Y-123881490D01*
X87068004Y-123815440D01*
X87004000Y-123805302D01*
X87004000Y-124709297D01*
X86942993Y-124674075D01*
X86815826Y-124640000D01*
X86684174Y-124640000D01*
X86557007Y-124674075D01*
X86496000Y-124709297D01*
X86496000Y-123805302D01*
X86431995Y-123815440D01*
X86228713Y-123881490D01*
X86228707Y-123881493D01*
X86038249Y-123978536D01*
X85865320Y-124104177D01*
X85714177Y-124255320D01*
X85588536Y-124428249D01*
X85491493Y-124618707D01*
X85491490Y-124618713D01*
X85425440Y-124821995D01*
X85415302Y-124886000D01*
X86319297Y-124886000D01*
X86284075Y-124947007D01*
X86250000Y-125074174D01*
X86250000Y-125205826D01*
X86284075Y-125332993D01*
X86319297Y-125394000D01*
X85415302Y-125394000D01*
X85425440Y-125458004D01*
X85491490Y-125661286D01*
X85491493Y-125661292D01*
X85588536Y-125851750D01*
X85714177Y-126024679D01*
X85865320Y-126175822D01*
X86038244Y-126301460D01*
X86039560Y-126302266D01*
X86039955Y-126302703D01*
X86042258Y-126304376D01*
X86041906Y-126304859D01*
X86087196Y-126354910D01*
X86098809Y-126424950D01*
X86070712Y-126490150D01*
X86041925Y-126515098D01*
X86041996Y-126515196D01*
X86040862Y-126516019D01*
X86039580Y-126517131D01*
X86037998Y-126518100D01*
X85864993Y-126643796D01*
X85864990Y-126643798D01*
X85713798Y-126794990D01*
X85713796Y-126794993D01*
X85588108Y-126967987D01*
X85491029Y-127158515D01*
X85491026Y-127158521D01*
X85424952Y-127361878D01*
X85424951Y-127361883D01*
X85424951Y-127361884D01*
X85391500Y-127573084D01*
X85391500Y-127786916D01*
X85424951Y-127998116D01*
X85424952Y-127998121D01*
X85481635Y-128172575D01*
X85491028Y-128201483D01*
X85548070Y-128313434D01*
X85588108Y-128392012D01*
X85713794Y-128565004D01*
X85713798Y-128565009D01*
X85864990Y-128716201D01*
X85864993Y-128716203D01*
X85864996Y-128716206D01*
X86037991Y-128841894D01*
X86037996Y-128841896D01*
X86039088Y-128842566D01*
X86039418Y-128842931D01*
X86041996Y-128844804D01*
X86041602Y-128845345D01*
X86086721Y-128895213D01*
X86098328Y-128965255D01*
X86070226Y-129030453D01*
X86041870Y-129055023D01*
X86041996Y-129055196D01*
X86039982Y-129056658D01*
X86039088Y-129057434D01*
X86037987Y-129058108D01*
X85864993Y-129183796D01*
X85864990Y-129183798D01*
X85713798Y-129334990D01*
X85713796Y-129334993D01*
X85588108Y-129507987D01*
X85491029Y-129698515D01*
X85491026Y-129698521D01*
X85424952Y-129901878D01*
X85424951Y-129901883D01*
X85424951Y-129901884D01*
X85391500Y-130113084D01*
X85391500Y-130326916D01*
X85424951Y-130538116D01*
X85424952Y-130538121D01*
X85487781Y-130731491D01*
X85491028Y-130741483D01*
X85588106Y-130932009D01*
X85713794Y-131105004D01*
X85713796Y-131105006D01*
X85713798Y-131105009D01*
X85864990Y-131256201D01*
X85864993Y-131256203D01*
X85864996Y-131256206D01*
X86037991Y-131381894D01*
X86037996Y-131381896D01*
X86039088Y-131382566D01*
X86039418Y-131382931D01*
X86041996Y-131384804D01*
X86041602Y-131385345D01*
X86086721Y-131435213D01*
X86098328Y-131505255D01*
X86070226Y-131570453D01*
X86041870Y-131595023D01*
X86041996Y-131595196D01*
X86039982Y-131596658D01*
X86039088Y-131597434D01*
X86037987Y-131598108D01*
X85864993Y-131723796D01*
X85864990Y-131723798D01*
X85713798Y-131874990D01*
X85713796Y-131874993D01*
X85588108Y-132047987D01*
X85491029Y-132238515D01*
X85491026Y-132238521D01*
X85424952Y-132441878D01*
X85424951Y-132441883D01*
X85424951Y-132441884D01*
X85391500Y-132653084D01*
X85391500Y-132866916D01*
X85413830Y-133007900D01*
X85424952Y-133078121D01*
X85491026Y-133281478D01*
X85491028Y-133281483D01*
X85588106Y-133472009D01*
X85713794Y-133645004D01*
X85713796Y-133645006D01*
X85713798Y-133645009D01*
X85816770Y-133747981D01*
X85850796Y-133810293D01*
X85845731Y-133881108D01*
X85803184Y-133937944D01*
X85771708Y-133955131D01*
X85653797Y-133999110D01*
X85653792Y-133999112D01*
X85536738Y-134086738D01*
X85449112Y-134203792D01*
X85449110Y-134203797D01*
X85398011Y-134340795D01*
X85398009Y-134340803D01*
X85391500Y-134401350D01*
X85391500Y-136198649D01*
X85398009Y-136259196D01*
X85398011Y-136259204D01*
X85449110Y-136396202D01*
X85449112Y-136396207D01*
X85536738Y-136513261D01*
X85653792Y-136600887D01*
X85653794Y-136600888D01*
X85653796Y-136600889D01*
X85712875Y-136622924D01*
X85790795Y-136651988D01*
X85790803Y-136651990D01*
X85851350Y-136658499D01*
X85851355Y-136658499D01*
X85851362Y-136658500D01*
X85851368Y-136658500D01*
X87648632Y-136658500D01*
X87648638Y-136658500D01*
X87648645Y-136658499D01*
X87648649Y-136658499D01*
X87709196Y-136651990D01*
X87709199Y-136651989D01*
X87709201Y-136651989D01*
X87846204Y-136600889D01*
X87963261Y-136513261D01*
X88050889Y-136396204D01*
X88094960Y-136278045D01*
X88101988Y-136259204D01*
X88101990Y-136259196D01*
X88108499Y-136198649D01*
X88108500Y-136198632D01*
X88108500Y-136134500D01*
X88128502Y-136066379D01*
X88182158Y-136019886D01*
X88234500Y-136008500D01*
X93119777Y-136008500D01*
X93119782Y-136008500D01*
X93188221Y-135994886D01*
X93256662Y-135981273D01*
X93294427Y-135965630D01*
X93385601Y-135927865D01*
X93501643Y-135850328D01*
X94962828Y-134389143D01*
X95040365Y-134273101D01*
X95093773Y-134144161D01*
X95118307Y-134020819D01*
X95151213Y-133957912D01*
X95175732Y-133938166D01*
X95198652Y-133924030D01*
X95324030Y-133798652D01*
X95417115Y-133647738D01*
X95472887Y-133479426D01*
X95483500Y-133375545D01*
X95483499Y-132024456D01*
X95472887Y-131920574D01*
X95417115Y-131752262D01*
X95324030Y-131601348D01*
X95324029Y-131601347D01*
X95324024Y-131601341D01*
X95198658Y-131475975D01*
X95198654Y-131475972D01*
X95198652Y-131475970D01*
X95192482Y-131472164D01*
X95180850Y-131464989D01*
X95133374Y-131412202D01*
X95121000Y-131357750D01*
X95121000Y-129242249D01*
X95141002Y-129174128D01*
X95180854Y-129135008D01*
X95183324Y-129133483D01*
X95198652Y-129124030D01*
X95324030Y-128998652D01*
X95417115Y-128847738D01*
X95467771Y-128694864D01*
X95508183Y-128636496D01*
X95573739Y-128609240D01*
X95587374Y-128608500D01*
X96259777Y-128608500D01*
X96259782Y-128608500D01*
X96328221Y-128594886D01*
X96396662Y-128581273D01*
X96435938Y-128565004D01*
X96525601Y-128527865D01*
X96641643Y-128450328D01*
X102470328Y-122621642D01*
X102547865Y-122505600D01*
X102601273Y-122376661D01*
X102628500Y-122239781D01*
X102628500Y-122100218D01*
X102628500Y-110828353D01*
X127231500Y-110828353D01*
X127231500Y-111091646D01*
X127265864Y-111352672D01*
X127265865Y-111352678D01*
X127265866Y-111352680D01*
X127334010Y-111606997D01*
X127434766Y-111850243D01*
X127434767Y-111850244D01*
X127434772Y-111850255D01*
X127566407Y-112078253D01*
X127726689Y-112287138D01*
X127726698Y-112287148D01*
X127912851Y-112473301D01*
X127912861Y-112473310D01*
X127912862Y-112473311D01*
X128082282Y-112603311D01*
X128121746Y-112633592D01*
X128349744Y-112765227D01*
X128349748Y-112765228D01*
X128349757Y-112765234D01*
X128593003Y-112865990D01*
X128847320Y-112934134D01*
X128847326Y-112934134D01*
X128847327Y-112934135D01*
X128877281Y-112938078D01*
X129108356Y-112968500D01*
X129108363Y-112968500D01*
X134141637Y-112968500D01*
X134141644Y-112968500D01*
X134402680Y-112934134D01*
X134656997Y-112865990D01*
X134900243Y-112765234D01*
X135128257Y-112633590D01*
X135337138Y-112473311D01*
X135523311Y-112287138D01*
X135683590Y-112078257D01*
X135815234Y-111850243D01*
X135915990Y-111606997D01*
X135984134Y-111352680D01*
X136018500Y-111091644D01*
X136018500Y-110958353D01*
X171032750Y-110958353D01*
X171032750Y-111221646D01*
X171067114Y-111482672D01*
X171067115Y-111482678D01*
X171067116Y-111482680D01*
X171135260Y-111736997D01*
X171236016Y-111980243D01*
X171236017Y-111980244D01*
X171236022Y-111980255D01*
X171367657Y-112208253D01*
X171367659Y-112208256D01*
X171367660Y-112208257D01*
X171428187Y-112287138D01*
X171527939Y-112417138D01*
X171527948Y-112417148D01*
X171714101Y-112603301D01*
X171714111Y-112603310D01*
X171714112Y-112603311D01*
X171753575Y-112633592D01*
X171922996Y-112763592D01*
X172150994Y-112895227D01*
X172150998Y-112895228D01*
X172151007Y-112895234D01*
X172394253Y-112995990D01*
X172648570Y-113064134D01*
X172648576Y-113064134D01*
X172648577Y-113064135D01*
X172678531Y-113068078D01*
X172909606Y-113098500D01*
X172938356Y-113098500D01*
X177493179Y-113098500D01*
X177509625Y-113099578D01*
X177530874Y-113102375D01*
X177653356Y-113118501D01*
X177653363Y-113118501D01*
X177916637Y-113118501D01*
X177916644Y-113118501D01*
X178177680Y-113084134D01*
X178431997Y-113015990D01*
X178675243Y-112915234D01*
X178903257Y-112783590D01*
X179112138Y-112623311D01*
X179298311Y-112437138D01*
X179458590Y-112228257D01*
X179473934Y-112201679D01*
X179525316Y-112152686D01*
X179583054Y-112138678D01*
X193869150Y-112138678D01*
X193869151Y-112138678D01*
X194063991Y-112099922D01*
X194247526Y-112023899D01*
X194412703Y-111913531D01*
X194553175Y-111773059D01*
X194553174Y-111773059D01*
X194612688Y-111713545D01*
X194612687Y-111713545D01*
X213563354Y-92762881D01*
X213673722Y-92597703D01*
X213749744Y-92414168D01*
X213788500Y-92219328D01*
X213788500Y-92020671D01*
X213788500Y-90384500D01*
X213808502Y-90316379D01*
X213862158Y-90269886D01*
X213914500Y-90258500D01*
X214255554Y-90258500D01*
X214314906Y-90252435D01*
X214359427Y-90247887D01*
X214527739Y-90192115D01*
X214678652Y-90099030D01*
X214804030Y-89973652D01*
X214897115Y-89822739D01*
X214952887Y-89654427D01*
X214957435Y-89609906D01*
X214963500Y-89550554D01*
X214963500Y-88424445D01*
X214956677Y-88357673D01*
X214952887Y-88320573D01*
X214897115Y-88152261D01*
X214804030Y-88001348D01*
X214804029Y-88001347D01*
X214804024Y-88001341D01*
X214678658Y-87875975D01*
X214678652Y-87875970D01*
X214527739Y-87782885D01*
X214443583Y-87754999D01*
X214359428Y-87727113D01*
X214359421Y-87727112D01*
X214255554Y-87716500D01*
X214255546Y-87716500D01*
X211304454Y-87716500D01*
X211304446Y-87716500D01*
X211200578Y-87727112D01*
X211200571Y-87727113D01*
X211032261Y-87782885D01*
X210881347Y-87875970D01*
X210881341Y-87875975D01*
X210755975Y-88001341D01*
X210755970Y-88001347D01*
X210662885Y-88152261D01*
X210607113Y-88320571D01*
X210607112Y-88320578D01*
X210596500Y-88424445D01*
X210596500Y-89550554D01*
X210596499Y-89550554D01*
X210606668Y-89650076D01*
X210607113Y-89654427D01*
X210662885Y-89822739D01*
X210755970Y-89973652D01*
X210755975Y-89973658D01*
X210881341Y-90099024D01*
X210881347Y-90099029D01*
X210881348Y-90099030D01*
X211032261Y-90192115D01*
X211200573Y-90247887D01*
X211240527Y-90251968D01*
X211304446Y-90258500D01*
X211304454Y-90258500D01*
X211645500Y-90258500D01*
X211713621Y-90278502D01*
X211760114Y-90332158D01*
X211771500Y-90384500D01*
X211771500Y-91650075D01*
X211751498Y-91718196D01*
X211734595Y-91739170D01*
X193388993Y-110084773D01*
X193326681Y-110118799D01*
X193299898Y-110121678D01*
X179606354Y-110121678D01*
X179538233Y-110101676D01*
X179497234Y-110058677D01*
X179458591Y-109991744D01*
X179449598Y-109980024D01*
X179449598Y-109980025D01*
X179298311Y-109782862D01*
X179112138Y-109596689D01*
X179092138Y-109576689D01*
X178883257Y-109416410D01*
X178883256Y-109416409D01*
X178883253Y-109416407D01*
X178655255Y-109284772D01*
X178655247Y-109284768D01*
X178655243Y-109284766D01*
X178411997Y-109184010D01*
X178157680Y-109115866D01*
X178157678Y-109115865D01*
X178157672Y-109115864D01*
X177896645Y-109081499D01*
X177896644Y-109081499D01*
X177633356Y-109081499D01*
X177629454Y-109081499D01*
X177629422Y-109081500D01*
X172909603Y-109081500D01*
X172648577Y-109115864D01*
X172503393Y-109154766D01*
X172394253Y-109184010D01*
X172204760Y-109262501D01*
X172151005Y-109284767D01*
X172150994Y-109284772D01*
X171922996Y-109416407D01*
X171714111Y-109576689D01*
X171714101Y-109576698D01*
X171527948Y-109762851D01*
X171527939Y-109762861D01*
X171367657Y-109971746D01*
X171236022Y-110199744D01*
X171236017Y-110199755D01*
X171135260Y-110443003D01*
X171067114Y-110697327D01*
X171032750Y-110958353D01*
X136018500Y-110958353D01*
X136018500Y-110828356D01*
X135993411Y-110637784D01*
X135984135Y-110567324D01*
X135979345Y-110549447D01*
X135950823Y-110443003D01*
X135915990Y-110313003D01*
X135815234Y-110069757D01*
X135815228Y-110069748D01*
X135815227Y-110069744D01*
X135683592Y-109841746D01*
X135638408Y-109782861D01*
X135523311Y-109632862D01*
X135523310Y-109632861D01*
X135523301Y-109632851D01*
X135337148Y-109446698D01*
X135337138Y-109446689D01*
X135128253Y-109286407D01*
X135048074Y-109240116D01*
X134900254Y-109154772D01*
X134900249Y-109154769D01*
X134900243Y-109154766D01*
X134854820Y-109135951D01*
X154392000Y-109135951D01*
X154392000Y-109389048D01*
X154431596Y-109639046D01*
X154509806Y-109879753D01*
X154509809Y-109879759D01*
X154624717Y-110105279D01*
X154697639Y-110205648D01*
X154697641Y-110205648D01*
X155434192Y-109469097D01*
X155440889Y-109494091D01*
X155519881Y-109630908D01*
X155631592Y-109742619D01*
X155768409Y-109821611D01*
X155793400Y-109828307D01*
X155056850Y-110564857D01*
X155056850Y-110564859D01*
X155157220Y-110637782D01*
X155382740Y-110752690D01*
X155382746Y-110752693D01*
X155623454Y-110830903D01*
X155623451Y-110830903D01*
X155873451Y-110870500D01*
X156126549Y-110870500D01*
X156376545Y-110830903D01*
X156376547Y-110830903D01*
X156617253Y-110752693D01*
X156617259Y-110752690D01*
X156842775Y-110637784D01*
X156943148Y-110564858D01*
X156943148Y-110564857D01*
X156206598Y-109828307D01*
X156231591Y-109821611D01*
X156368408Y-109742619D01*
X156480119Y-109630908D01*
X156559111Y-109494091D01*
X156565807Y-109469098D01*
X157302357Y-110205648D01*
X157302358Y-110205648D01*
X157375284Y-110105275D01*
X157490190Y-109879759D01*
X157490193Y-109879753D01*
X157568403Y-109639046D01*
X157608000Y-109389048D01*
X157608000Y-109135951D01*
X157568403Y-108885953D01*
X157490193Y-108645246D01*
X157490190Y-108645240D01*
X157375282Y-108419720D01*
X157302359Y-108319350D01*
X157302357Y-108319350D01*
X156565807Y-109055900D01*
X156559111Y-109030909D01*
X156480119Y-108894092D01*
X156368408Y-108782381D01*
X156231591Y-108703389D01*
X156206598Y-108696692D01*
X156943148Y-107960141D01*
X156943148Y-107960139D01*
X156842779Y-107887217D01*
X156617259Y-107772309D01*
X156617253Y-107772306D01*
X156376545Y-107694096D01*
X156376548Y-107694096D01*
X156126549Y-107654500D01*
X155873451Y-107654500D01*
X155623453Y-107694096D01*
X155382746Y-107772306D01*
X155382740Y-107772309D01*
X155157225Y-107887214D01*
X155157224Y-107887215D01*
X155056850Y-107960140D01*
X155056850Y-107960141D01*
X155793401Y-108696692D01*
X155768409Y-108703389D01*
X155631592Y-108782381D01*
X155519881Y-108894092D01*
X155440889Y-109030909D01*
X155434192Y-109055901D01*
X154697641Y-108319350D01*
X154697640Y-108319350D01*
X154624715Y-108419724D01*
X154624714Y-108419725D01*
X154509809Y-108645240D01*
X154509806Y-108645246D01*
X154431596Y-108885953D01*
X154392000Y-109135951D01*
X134854820Y-109135951D01*
X134656997Y-109054010D01*
X134402680Y-108985866D01*
X134402678Y-108985865D01*
X134402672Y-108985864D01*
X134141646Y-108951500D01*
X134141644Y-108951500D01*
X129108356Y-108951500D01*
X129108353Y-108951500D01*
X128847327Y-108985864D01*
X128847320Y-108985866D01*
X128593003Y-109054010D01*
X128395181Y-109135951D01*
X128349755Y-109154767D01*
X128349744Y-109154772D01*
X128121746Y-109286407D01*
X127912861Y-109446689D01*
X127912851Y-109446698D01*
X127726698Y-109632851D01*
X127726689Y-109632861D01*
X127566407Y-109841746D01*
X127434772Y-110069744D01*
X127434767Y-110069755D01*
X127334010Y-110313003D01*
X127265864Y-110567327D01*
X127231500Y-110828353D01*
X102628500Y-110828353D01*
X102628500Y-103208353D01*
X127231500Y-103208353D01*
X127231500Y-103471646D01*
X127265864Y-103732672D01*
X127265865Y-103732678D01*
X127265866Y-103732680D01*
X127334010Y-103986997D01*
X127434766Y-104230243D01*
X127434767Y-104230244D01*
X127434772Y-104230255D01*
X127566407Y-104458253D01*
X127566409Y-104458256D01*
X127566410Y-104458257D01*
X127575224Y-104469744D01*
X127726689Y-104667138D01*
X127726698Y-104667148D01*
X127912851Y-104853301D01*
X127912861Y-104853310D01*
X127912862Y-104853311D01*
X128082282Y-104983311D01*
X128121746Y-105013592D01*
X128349744Y-105145227D01*
X128349748Y-105145228D01*
X128349757Y-105145234D01*
X128593003Y-105245990D01*
X128847320Y-105314134D01*
X128847326Y-105314134D01*
X128847327Y-105314135D01*
X128877281Y-105318078D01*
X129108356Y-105348500D01*
X129108363Y-105348500D01*
X134141637Y-105348500D01*
X134141644Y-105348500D01*
X134402680Y-105314134D01*
X134656997Y-105245990D01*
X134900243Y-105145234D01*
X135128257Y-105013590D01*
X135337138Y-104853311D01*
X135523311Y-104667138D01*
X135683590Y-104458257D01*
X135815234Y-104230243D01*
X135915990Y-103986997D01*
X135984134Y-103732680D01*
X136018500Y-103471644D01*
X136018500Y-103338353D01*
X171032750Y-103338353D01*
X171032750Y-103601646D01*
X171067114Y-103862672D01*
X171067115Y-103862678D01*
X171067116Y-103862680D01*
X171135260Y-104116997D01*
X171236016Y-104360243D01*
X171236017Y-104360244D01*
X171236022Y-104360255D01*
X171367657Y-104588253D01*
X171367659Y-104588256D01*
X171367660Y-104588257D01*
X171428187Y-104667138D01*
X171527939Y-104797138D01*
X171527948Y-104797148D01*
X171714101Y-104983301D01*
X171714111Y-104983310D01*
X171714112Y-104983311D01*
X171753575Y-105013592D01*
X171922996Y-105143592D01*
X172150994Y-105275227D01*
X172150998Y-105275228D01*
X172151007Y-105275234D01*
X172394253Y-105375990D01*
X172648570Y-105444134D01*
X172648576Y-105444134D01*
X172648577Y-105444135D01*
X172678531Y-105448078D01*
X172909606Y-105478500D01*
X177493179Y-105478500D01*
X177509625Y-105479578D01*
X177530874Y-105482375D01*
X177653356Y-105498501D01*
X177653363Y-105498501D01*
X177916637Y-105498501D01*
X177916644Y-105498501D01*
X178103960Y-105473839D01*
X178177675Y-105464135D01*
X178177677Y-105464134D01*
X178177680Y-105464134D01*
X178252321Y-105444134D01*
X178431997Y-105395990D01*
X178675243Y-105295234D01*
X178903257Y-105163590D01*
X179112138Y-105003311D01*
X179298311Y-104817138D01*
X179458590Y-104608257D01*
X179479812Y-104571500D01*
X179531195Y-104522507D01*
X179588931Y-104508500D01*
X193899328Y-104508500D01*
X193899329Y-104508500D01*
X194094169Y-104469744D01*
X194277704Y-104393721D01*
X194442881Y-104283353D01*
X194583353Y-104142881D01*
X207963353Y-90762881D01*
X208073721Y-90597704D01*
X208149744Y-90414169D01*
X208182819Y-90247887D01*
X208188500Y-90219329D01*
X208188500Y-83575554D01*
X210596499Y-83575554D01*
X210607112Y-83679421D01*
X210607113Y-83679428D01*
X210634999Y-83763583D01*
X210662885Y-83847739D01*
X210709924Y-83924000D01*
X210755970Y-83998652D01*
X210755975Y-83998658D01*
X210881341Y-84124024D01*
X210881347Y-84124029D01*
X210881348Y-84124030D01*
X211032261Y-84217115D01*
X211200573Y-84272887D01*
X211240527Y-84276968D01*
X211304446Y-84283500D01*
X211304454Y-84283500D01*
X214255554Y-84283500D01*
X214314906Y-84277435D01*
X214359427Y-84272887D01*
X214527739Y-84217115D01*
X214678652Y-84124030D01*
X214804030Y-83998652D01*
X214897115Y-83847739D01*
X214952887Y-83679427D01*
X214957435Y-83634906D01*
X214963500Y-83575554D01*
X214963500Y-82449445D01*
X214954911Y-82365385D01*
X214952887Y-82345573D01*
X214897115Y-82177261D01*
X214804030Y-82026348D01*
X214804029Y-82026347D01*
X214804024Y-82026341D01*
X214678658Y-81900975D01*
X214678652Y-81900970D01*
X214527739Y-81807885D01*
X214413592Y-81770061D01*
X214359428Y-81752113D01*
X214359421Y-81752112D01*
X214255554Y-81741500D01*
X214255546Y-81741500D01*
X213914500Y-81741500D01*
X213846379Y-81721498D01*
X213799886Y-81667842D01*
X213788500Y-81615500D01*
X213788500Y-79179924D01*
X213808502Y-79111803D01*
X213825405Y-79090829D01*
X216941452Y-75974782D01*
X220077800Y-72838434D01*
X220140110Y-72804410D01*
X220147146Y-72803088D01*
X220316408Y-72776280D01*
X220512290Y-72712634D01*
X220695803Y-72619129D01*
X220862430Y-72498068D01*
X221008068Y-72352430D01*
X221129129Y-72185803D01*
X221222634Y-72002290D01*
X221286280Y-71806408D01*
X221309319Y-71660942D01*
X221339730Y-71596792D01*
X221344637Y-71591595D01*
X223883353Y-69052881D01*
X223993722Y-68887704D01*
X224052332Y-68746204D01*
X224069744Y-68704169D01*
X224108500Y-68509329D01*
X224108500Y-66251350D01*
X232441500Y-66251350D01*
X232441500Y-68548649D01*
X232448009Y-68609196D01*
X232448011Y-68609204D01*
X232499110Y-68746202D01*
X232499112Y-68746207D01*
X232586738Y-68863261D01*
X232703792Y-68950887D01*
X232703794Y-68950888D01*
X232703796Y-68950889D01*
X232718317Y-68956305D01*
X232840795Y-69001988D01*
X232840803Y-69001990D01*
X232901350Y-69008499D01*
X232901355Y-69008499D01*
X232901362Y-69008500D01*
X232901368Y-69008500D01*
X234548632Y-69008500D01*
X234548638Y-69008500D01*
X234548645Y-69008499D01*
X234548649Y-69008499D01*
X234609196Y-69001990D01*
X234609201Y-69001989D01*
X234610528Y-69001494D01*
X234731683Y-68956304D01*
X234802497Y-68951239D01*
X234819748Y-68956305D01*
X234940903Y-69001494D01*
X235001402Y-69007999D01*
X235001415Y-69008000D01*
X236046000Y-69008000D01*
X236554000Y-69008000D01*
X237598585Y-69008000D01*
X237598597Y-69007999D01*
X237659093Y-69001494D01*
X237795964Y-68950444D01*
X237795965Y-68950444D01*
X237912904Y-68862904D01*
X238000444Y-68745965D01*
X238000444Y-68745964D01*
X238051494Y-68609093D01*
X238057999Y-68548597D01*
X238058000Y-68548585D01*
X238058000Y-67654000D01*
X236554000Y-67654000D01*
X236554000Y-69008000D01*
X236046000Y-69008000D01*
X236046000Y-67146000D01*
X236554000Y-67146000D01*
X238058000Y-67146000D01*
X238058000Y-66251414D01*
X238057999Y-66251402D01*
X238051494Y-66190906D01*
X238000444Y-66054035D01*
X238000444Y-66054034D01*
X237912904Y-65937095D01*
X237795965Y-65849555D01*
X237659093Y-65798505D01*
X237598597Y-65792000D01*
X236554000Y-65792000D01*
X236554000Y-67146000D01*
X236046000Y-67146000D01*
X236046000Y-65792000D01*
X235001402Y-65792000D01*
X234940905Y-65798505D01*
X234819746Y-65843695D01*
X234748930Y-65848759D01*
X234731681Y-65843694D01*
X234609204Y-65798011D01*
X234609196Y-65798009D01*
X234548649Y-65791500D01*
X234548638Y-65791500D01*
X234468950Y-65791500D01*
X234400829Y-65771498D01*
X234354336Y-65717842D01*
X234344232Y-65647568D01*
X234373726Y-65582988D01*
X234379855Y-65576405D01*
X235738144Y-64218116D01*
X237111491Y-62844769D01*
X237183555Y-62736917D01*
X237216882Y-62656456D01*
X237261430Y-62601176D01*
X237267114Y-62597453D01*
X237386152Y-62524030D01*
X237511530Y-62398652D01*
X237604615Y-62247738D01*
X237660387Y-62079426D01*
X237671000Y-61975545D01*
X237670999Y-60624456D01*
X237660387Y-60520574D01*
X237604615Y-60352262D01*
X237511530Y-60201348D01*
X237511529Y-60201347D01*
X237511524Y-60201341D01*
X237386158Y-60075975D01*
X237386152Y-60075970D01*
X237322805Y-60036897D01*
X237235238Y-59982885D01*
X237144950Y-59952967D01*
X237066927Y-59927113D01*
X237066920Y-59927112D01*
X236963053Y-59916500D01*
X236236955Y-59916500D01*
X236133074Y-59927112D01*
X235964761Y-59982885D01*
X235813847Y-60075970D01*
X235813841Y-60075975D01*
X235688475Y-60201341D01*
X235688470Y-60201347D01*
X235595385Y-60352262D01*
X235539613Y-60520572D01*
X235539612Y-60520579D01*
X235529000Y-60624446D01*
X235529000Y-61975544D01*
X235539612Y-62079425D01*
X235550366Y-62111878D01*
X235595385Y-62247738D01*
X235638693Y-62317951D01*
X235657430Y-62386429D01*
X235636171Y-62454168D01*
X235620547Y-62473192D01*
X233163513Y-64930226D01*
X233163508Y-64930232D01*
X233091445Y-65038082D01*
X233041807Y-65157919D01*
X233041806Y-65157922D01*
X233016500Y-65285139D01*
X233016500Y-65665941D01*
X232996498Y-65734062D01*
X232942842Y-65780555D01*
X232903969Y-65791219D01*
X232840802Y-65798010D01*
X232840795Y-65798011D01*
X232703797Y-65849110D01*
X232703792Y-65849112D01*
X232586738Y-65936738D01*
X232499112Y-66053792D01*
X232499110Y-66053797D01*
X232448011Y-66190795D01*
X232448009Y-66190803D01*
X232441500Y-66251350D01*
X224108500Y-66251350D01*
X224108500Y-62567439D01*
X224128502Y-62499318D01*
X224171499Y-62458320D01*
X224246095Y-62415253D01*
X224460176Y-62250983D01*
X224650983Y-62060176D01*
X224815253Y-61846095D01*
X224950174Y-61612405D01*
X225053438Y-61363103D01*
X225123279Y-61102455D01*
X225158500Y-60834921D01*
X225158500Y-60624446D01*
X232604000Y-60624446D01*
X232604000Y-61975544D01*
X232614612Y-62079425D01*
X232670385Y-62247738D01*
X232763470Y-62398652D01*
X232763475Y-62398658D01*
X232888841Y-62524024D01*
X232888847Y-62524029D01*
X232888848Y-62524030D01*
X233039762Y-62617115D01*
X233208074Y-62672887D01*
X233311955Y-62683500D01*
X234038044Y-62683499D01*
X234141926Y-62672887D01*
X234310238Y-62617115D01*
X234461152Y-62524030D01*
X234586530Y-62398652D01*
X234679615Y-62247738D01*
X234735387Y-62079426D01*
X234746000Y-61975545D01*
X234745999Y-60624456D01*
X234735387Y-60520574D01*
X234679615Y-60352262D01*
X234586530Y-60201348D01*
X234586529Y-60201347D01*
X234586524Y-60201341D01*
X234461158Y-60075975D01*
X234461152Y-60075970D01*
X234397805Y-60036897D01*
X234310238Y-59982885D01*
X234219950Y-59952967D01*
X234141927Y-59927113D01*
X234141920Y-59927112D01*
X234038053Y-59916500D01*
X233311955Y-59916500D01*
X233208074Y-59927112D01*
X233039761Y-59982885D01*
X232888847Y-60075970D01*
X232888841Y-60075975D01*
X232763475Y-60201341D01*
X232763470Y-60201347D01*
X232670385Y-60352262D01*
X232614613Y-60520572D01*
X232614612Y-60520579D01*
X232604000Y-60624446D01*
X225158500Y-60624446D01*
X225158500Y-60565079D01*
X225123279Y-60297545D01*
X225053438Y-60036897D01*
X224950174Y-59787595D01*
X224950168Y-59787586D01*
X224950167Y-59787582D01*
X224815255Y-59553908D01*
X224815248Y-59553899D01*
X224650983Y-59339824D01*
X224650977Y-59339818D01*
X224650973Y-59339813D01*
X224460186Y-59149026D01*
X224460180Y-59149021D01*
X224460176Y-59149017D01*
X224246095Y-58984747D01*
X224246094Y-58984746D01*
X224246091Y-58984744D01*
X224012417Y-58849832D01*
X224012409Y-58849828D01*
X224012405Y-58849826D01*
X223763103Y-58746562D01*
X223763100Y-58746561D01*
X223763098Y-58746560D01*
X223502448Y-58676719D01*
X223234923Y-58641500D01*
X223234921Y-58641500D01*
X222965079Y-58641500D01*
X222965076Y-58641500D01*
X222697551Y-58676719D01*
X222436901Y-58746560D01*
X222436897Y-58746562D01*
X222187593Y-58849827D01*
X222187582Y-58849832D01*
X221953908Y-58984744D01*
X221739824Y-59149017D01*
X221739813Y-59149026D01*
X221549026Y-59339813D01*
X221549017Y-59339824D01*
X221384744Y-59553908D01*
X221249832Y-59787582D01*
X221249827Y-59787593D01*
X221249826Y-59787595D01*
X221163124Y-59996912D01*
X221146562Y-60036897D01*
X221146560Y-60036901D01*
X221076719Y-60297551D01*
X221041500Y-60565076D01*
X221041500Y-60834923D01*
X221076719Y-61102448D01*
X221146560Y-61363098D01*
X221146561Y-61363100D01*
X221146562Y-61363103D01*
X221249826Y-61612405D01*
X221249827Y-61612406D01*
X221249832Y-61612417D01*
X221384744Y-61846091D01*
X221384746Y-61846094D01*
X221384747Y-61846095D01*
X221549017Y-62060176D01*
X221549021Y-62060180D01*
X221549026Y-62060186D01*
X221739813Y-62250973D01*
X221739818Y-62250977D01*
X221739824Y-62250983D01*
X221953905Y-62415253D01*
X222028500Y-62458320D01*
X222077493Y-62509702D01*
X222091500Y-62567439D01*
X222091500Y-67940075D01*
X222071498Y-68008196D01*
X222054595Y-68029170D01*
X219918438Y-70165326D01*
X219856126Y-70199352D01*
X219849055Y-70200680D01*
X219703586Y-70223721D01*
X219507714Y-70287364D01*
X219507708Y-70287367D01*
X219324193Y-70380873D01*
X219157567Y-70501934D01*
X219157564Y-70501936D01*
X219011936Y-70647564D01*
X219011934Y-70647567D01*
X218890873Y-70814193D01*
X218797367Y-70997708D01*
X218797364Y-70997714D01*
X218733719Y-71193592D01*
X218714443Y-71315290D01*
X218684030Y-71379443D01*
X218679090Y-71384673D01*
X212137119Y-77926647D01*
X211996649Y-78067116D01*
X211996644Y-78067123D01*
X211886279Y-78232296D01*
X211810258Y-78415825D01*
X211810256Y-78415830D01*
X211771500Y-78610668D01*
X211771500Y-81615500D01*
X211751498Y-81683621D01*
X211697842Y-81730114D01*
X211645500Y-81741500D01*
X211304446Y-81741500D01*
X211200578Y-81752112D01*
X211200571Y-81752113D01*
X211032261Y-81807885D01*
X210881347Y-81900970D01*
X210881341Y-81900975D01*
X210755975Y-82026341D01*
X210755970Y-82026347D01*
X210662885Y-82177261D01*
X210607113Y-82345571D01*
X210607112Y-82345578D01*
X210596500Y-82449445D01*
X210596500Y-83575554D01*
X210596499Y-83575554D01*
X208188500Y-83575554D01*
X208188500Y-74799923D01*
X208208502Y-74731802D01*
X208225400Y-74710833D01*
X210101562Y-72834670D01*
X210163872Y-72800647D01*
X210170917Y-72799323D01*
X210316408Y-72776280D01*
X210512290Y-72712634D01*
X210695803Y-72619129D01*
X210862430Y-72498068D01*
X211008068Y-72352430D01*
X211129129Y-72185803D01*
X211222634Y-72002290D01*
X211286280Y-71806408D01*
X211309319Y-71660942D01*
X211339730Y-71596792D01*
X211344654Y-71591578D01*
X219753353Y-63182881D01*
X219863722Y-63017704D01*
X219939744Y-62834168D01*
X219959089Y-62736917D01*
X219978500Y-62639329D01*
X219978500Y-59559924D01*
X219998502Y-59491803D01*
X220015405Y-59470829D01*
X221947262Y-57538972D01*
X223883353Y-55602881D01*
X223993721Y-55437704D01*
X224045824Y-55311917D01*
X224069744Y-55254169D01*
X224108500Y-55059329D01*
X224108500Y-52140182D01*
X235824500Y-52140182D01*
X235824500Y-52142778D01*
X235824500Y-52359820D01*
X235853166Y-52577568D01*
X235853168Y-52577575D01*
X235910014Y-52789727D01*
X235937047Y-52854990D01*
X235994063Y-52992641D01*
X235994068Y-52992650D01*
X236103881Y-53182851D01*
X236237585Y-53357098D01*
X236237604Y-53357119D01*
X236392880Y-53512395D01*
X236392890Y-53512404D01*
X236392896Y-53512410D01*
X236392899Y-53512412D01*
X236392901Y-53512414D01*
X236414480Y-53528972D01*
X236550165Y-53633087D01*
X236567148Y-53646118D01*
X236570595Y-53648108D01*
X236757355Y-53755935D01*
X236960273Y-53839986D01*
X237172425Y-53896832D01*
X237172429Y-53896832D01*
X237172431Y-53896833D01*
X237228552Y-53904221D01*
X237390182Y-53925500D01*
X237390189Y-53925500D01*
X237609811Y-53925500D01*
X237609818Y-53925500D01*
X237806614Y-53899591D01*
X237827568Y-53896833D01*
X237827568Y-53896832D01*
X237827575Y-53896832D01*
X238039727Y-53839986D01*
X238242645Y-53755935D01*
X238432855Y-53646116D01*
X238607104Y-53512410D01*
X238762410Y-53357104D01*
X238896116Y-53182855D01*
X239005935Y-52992645D01*
X239089986Y-52789727D01*
X239146832Y-52577575D01*
X239175500Y-52359818D01*
X239175500Y-52140182D01*
X239146832Y-51922425D01*
X239089986Y-51710273D01*
X239005935Y-51507355D01*
X238896116Y-51317145D01*
X238762410Y-51142896D01*
X238762404Y-51142890D01*
X238762395Y-51142880D01*
X238607119Y-50987604D01*
X238607098Y-50987585D01*
X238432851Y-50853881D01*
X238242650Y-50744068D01*
X238242641Y-50744063D01*
X238093950Y-50682474D01*
X238039727Y-50660014D01*
X237827575Y-50603168D01*
X237827568Y-50603166D01*
X237609820Y-50574500D01*
X237609818Y-50574500D01*
X237390182Y-50574500D01*
X237390179Y-50574500D01*
X237172431Y-50603166D01*
X236960273Y-50660014D01*
X236757358Y-50744063D01*
X236757349Y-50744068D01*
X236567148Y-50853881D01*
X236392901Y-50987585D01*
X236392880Y-50987604D01*
X236237604Y-51142880D01*
X236237585Y-51142901D01*
X236103881Y-51317148D01*
X235994068Y-51507349D01*
X235994063Y-51507358D01*
X235910014Y-51710273D01*
X235853166Y-51922432D01*
X235831764Y-52085004D01*
X235825789Y-52130389D01*
X235824500Y-52140182D01*
X224108500Y-52140182D01*
X224108500Y-49884500D01*
X224128502Y-49816379D01*
X224182158Y-49769886D01*
X224234500Y-49758500D01*
X224698632Y-49758500D01*
X224698638Y-49758500D01*
X224698645Y-49758499D01*
X224698649Y-49758499D01*
X224759196Y-49751990D01*
X224759199Y-49751989D01*
X224759201Y-49751989D01*
X224896204Y-49700889D01*
X225013261Y-49613261D01*
X225100887Y-49496207D01*
X225100887Y-49496206D01*
X225100889Y-49496204D01*
X225151989Y-49359201D01*
X225158500Y-49298638D01*
X225158500Y-46101362D01*
X225158499Y-46101350D01*
X225151990Y-46040803D01*
X225151988Y-46040795D01*
X225100889Y-45903797D01*
X225100887Y-45903792D01*
X225013261Y-45786738D01*
X224896207Y-45699112D01*
X224896202Y-45699110D01*
X224759204Y-45648011D01*
X224759196Y-45648009D01*
X224698649Y-45641500D01*
X224698638Y-45641500D01*
X221501362Y-45641500D01*
X221501350Y-45641500D01*
X221440803Y-45648009D01*
X221440795Y-45648011D01*
X221303797Y-45699110D01*
X221303792Y-45699112D01*
X221186738Y-45786738D01*
X221099112Y-45903792D01*
X221099110Y-45903797D01*
X221048011Y-46040795D01*
X221048009Y-46040803D01*
X221041500Y-46101350D01*
X221041500Y-49298649D01*
X221048009Y-49359196D01*
X221048011Y-49359204D01*
X221099110Y-49496202D01*
X221099112Y-49496207D01*
X221186738Y-49613261D01*
X221303792Y-49700887D01*
X221303794Y-49700888D01*
X221303796Y-49700889D01*
X221362875Y-49722924D01*
X221440795Y-49751988D01*
X221440803Y-49751990D01*
X221501350Y-49758499D01*
X221501355Y-49758499D01*
X221501362Y-49758500D01*
X221965500Y-49758500D01*
X222033621Y-49778502D01*
X222080114Y-49832158D01*
X222091500Y-49884500D01*
X222091500Y-54490076D01*
X222071498Y-54558197D01*
X222054595Y-54579171D01*
X218186649Y-58447116D01*
X218186644Y-58447123D01*
X218076279Y-58612296D01*
X218000258Y-58795825D01*
X218000256Y-58795830D01*
X217961500Y-58990668D01*
X217961500Y-62070075D01*
X217941498Y-62138196D01*
X217924595Y-62159170D01*
X209918438Y-70165326D01*
X209856126Y-70199352D01*
X209849055Y-70200680D01*
X209703586Y-70223721D01*
X209507714Y-70287364D01*
X209507708Y-70287367D01*
X209324193Y-70380873D01*
X209157567Y-70501934D01*
X209157564Y-70501936D01*
X209011936Y-70647564D01*
X209011934Y-70647567D01*
X208890873Y-70814193D01*
X208797367Y-70997708D01*
X208797364Y-70997714D01*
X208733721Y-71193586D01*
X208710680Y-71339055D01*
X208680267Y-71403208D01*
X208675326Y-71408438D01*
X206537119Y-73546647D01*
X206396649Y-73687116D01*
X206396644Y-73687123D01*
X206286279Y-73852296D01*
X206210258Y-74035825D01*
X206210256Y-74035830D01*
X206171500Y-74230668D01*
X206171500Y-89650076D01*
X206151498Y-89718197D01*
X206134595Y-89739171D01*
X193419171Y-102454595D01*
X193356859Y-102488621D01*
X193330076Y-102491500D01*
X179600478Y-102491500D01*
X179590651Y-102488614D01*
X179580491Y-102489905D01*
X179557157Y-102478780D01*
X179532357Y-102471498D01*
X179523943Y-102462944D01*
X179516405Y-102459350D01*
X179497483Y-102436044D01*
X179493370Y-102431862D01*
X179492341Y-102430201D01*
X179458590Y-102371743D01*
X179449599Y-102360026D01*
X179298311Y-102162862D01*
X179112138Y-101976689D01*
X179092138Y-101956689D01*
X178883257Y-101796410D01*
X178883256Y-101796409D01*
X178883253Y-101796407D01*
X178655255Y-101664772D01*
X178655247Y-101664768D01*
X178655243Y-101664766D01*
X178411997Y-101564010D01*
X178157680Y-101495866D01*
X178157678Y-101495865D01*
X178157672Y-101495864D01*
X177896645Y-101461499D01*
X177896644Y-101461499D01*
X177633356Y-101461499D01*
X177629454Y-101461499D01*
X177629422Y-101461500D01*
X172909603Y-101461500D01*
X172648577Y-101495864D01*
X172394253Y-101564010D01*
X172151005Y-101664767D01*
X172150994Y-101664772D01*
X171922996Y-101796407D01*
X171714111Y-101956689D01*
X171714101Y-101956698D01*
X171527948Y-102142851D01*
X171527939Y-102142861D01*
X171367657Y-102351746D01*
X171236022Y-102579744D01*
X171236017Y-102579755D01*
X171135260Y-102823003D01*
X171067114Y-103077327D01*
X171032750Y-103338353D01*
X136018500Y-103338353D01*
X136018500Y-103208356D01*
X135984134Y-102947320D01*
X135915990Y-102693003D01*
X135815234Y-102449757D01*
X135815228Y-102449748D01*
X135815227Y-102449744D01*
X135683592Y-102221746D01*
X135638408Y-102162861D01*
X135523311Y-102012862D01*
X135523310Y-102012861D01*
X135523301Y-102012851D01*
X135337148Y-101826698D01*
X135337138Y-101826689D01*
X135128253Y-101666407D01*
X134900255Y-101534772D01*
X134900247Y-101534768D01*
X134900243Y-101534766D01*
X134656997Y-101434010D01*
X134402680Y-101365866D01*
X134402678Y-101365865D01*
X134402672Y-101365864D01*
X134141646Y-101331500D01*
X134141644Y-101331500D01*
X129108356Y-101331500D01*
X129108353Y-101331500D01*
X128847327Y-101365864D01*
X128847320Y-101365866D01*
X128593003Y-101434010D01*
X128526637Y-101461500D01*
X128349755Y-101534767D01*
X128349744Y-101534772D01*
X128121746Y-101666407D01*
X127912861Y-101826689D01*
X127912851Y-101826698D01*
X127726698Y-102012851D01*
X127726689Y-102012861D01*
X127566407Y-102221746D01*
X127434772Y-102449744D01*
X127434767Y-102449755D01*
X127434766Y-102449757D01*
X127380924Y-102579744D01*
X127334010Y-102693003D01*
X127265864Y-102947327D01*
X127231500Y-103208353D01*
X102628500Y-103208353D01*
X102628500Y-95363850D01*
X154391500Y-95363850D01*
X154391500Y-97661149D01*
X154398009Y-97721696D01*
X154398011Y-97721704D01*
X154449110Y-97858702D01*
X154449112Y-97858707D01*
X154536738Y-97975761D01*
X154653792Y-98063387D01*
X154653794Y-98063388D01*
X154653796Y-98063389D01*
X154712875Y-98085424D01*
X154790795Y-98114488D01*
X154790803Y-98114490D01*
X154851350Y-98120999D01*
X154851355Y-98120999D01*
X154851362Y-98121000D01*
X154851368Y-98121000D01*
X157148632Y-98121000D01*
X157148638Y-98121000D01*
X157148645Y-98120999D01*
X157148649Y-98120999D01*
X157209196Y-98114490D01*
X157209199Y-98114489D01*
X157209201Y-98114489D01*
X157346204Y-98063389D01*
X157463261Y-97975761D01*
X157550889Y-97858704D01*
X157601989Y-97721701D01*
X157608500Y-97661138D01*
X157608500Y-95363862D01*
X157608499Y-95363850D01*
X157601990Y-95303303D01*
X157601988Y-95303295D01*
X157550889Y-95166297D01*
X157550887Y-95166292D01*
X157463261Y-95049238D01*
X157346207Y-94961612D01*
X157346202Y-94961610D01*
X157209204Y-94910511D01*
X157209196Y-94910509D01*
X157148649Y-94904000D01*
X157148638Y-94904000D01*
X156792000Y-94904000D01*
X156723879Y-94883998D01*
X156677386Y-94830342D01*
X156666000Y-94778000D01*
X156666000Y-85313635D01*
X156686002Y-85245514D01*
X156739658Y-85199021D01*
X156761581Y-85191362D01*
X156877640Y-85162500D01*
X157038264Y-85082838D01*
X157178008Y-84970508D01*
X157290338Y-84830764D01*
X157370000Y-84670140D01*
X157413271Y-84496145D01*
X157414245Y-84481771D01*
X157416000Y-84455908D01*
X157416000Y-84454500D01*
X157416053Y-84454316D01*
X157416072Y-84453778D01*
X157416144Y-84453780D01*
X157416145Y-84453770D01*
X157416212Y-84453774D01*
X157436002Y-84386379D01*
X157489658Y-84339886D01*
X157542000Y-84328500D01*
X157803475Y-84328500D01*
X157871596Y-84348502D01*
X157918089Y-84402158D01*
X157928822Y-84441693D01*
X157929611Y-84449419D01*
X157929612Y-84449422D01*
X157929612Y-84449424D01*
X157929613Y-84449426D01*
X157983536Y-84612157D01*
X157985385Y-84617738D01*
X158078470Y-84768652D01*
X158078475Y-84768658D01*
X158203841Y-84894024D01*
X158203847Y-84894029D01*
X158203848Y-84894030D01*
X158354762Y-84987115D01*
X158523074Y-85042887D01*
X158626955Y-85053500D01*
X159353044Y-85053499D01*
X159456926Y-85042887D01*
X159625238Y-84987115D01*
X159776152Y-84894030D01*
X159901530Y-84768652D01*
X159994615Y-84617738D01*
X160050387Y-84449426D01*
X160056828Y-84386379D01*
X160061000Y-84345553D01*
X160061000Y-84345516D01*
X160844500Y-84345516D01*
X160855105Y-84449318D01*
X160855106Y-84449321D01*
X160910842Y-84617525D01*
X161003865Y-84768339D01*
X161003870Y-84768345D01*
X161129154Y-84893629D01*
X161129160Y-84893634D01*
X161279974Y-84986657D01*
X161448178Y-85042393D01*
X161448181Y-85042394D01*
X161551983Y-85052999D01*
X161551983Y-85053000D01*
X161661000Y-85053000D01*
X162169000Y-85053000D01*
X162278017Y-85053000D01*
X162278016Y-85052999D01*
X162381818Y-85042394D01*
X162381821Y-85042393D01*
X162550025Y-84986657D01*
X162700839Y-84893634D01*
X162700845Y-84893629D01*
X162826129Y-84768345D01*
X162826134Y-84768339D01*
X162919157Y-84617525D01*
X162974893Y-84449321D01*
X162974894Y-84449318D01*
X162985499Y-84345516D01*
X162985500Y-84345516D01*
X162985500Y-84149300D01*
X167717000Y-84149300D01*
X167723068Y-84226401D01*
X167771107Y-84405681D01*
X167855374Y-84571062D01*
X167855376Y-84571065D01*
X167972185Y-84715314D01*
X168116434Y-84832123D01*
X168116437Y-84832125D01*
X168281818Y-84916392D01*
X168461098Y-84964431D01*
X168538199Y-84970500D01*
X168721000Y-84970500D01*
X168721000Y-83716500D01*
X167717000Y-83716500D01*
X167717000Y-84149300D01*
X162985500Y-84149300D01*
X162985500Y-83924000D01*
X162169000Y-83924000D01*
X162169000Y-85053000D01*
X161661000Y-85053000D01*
X161661000Y-83924000D01*
X160844500Y-83924000D01*
X160844500Y-84345516D01*
X160061000Y-84345516D01*
X160061000Y-83664309D01*
X160060999Y-82994483D01*
X160844500Y-82994483D01*
X160844500Y-83416000D01*
X161661000Y-83416000D01*
X162169000Y-83416000D01*
X162985500Y-83416000D01*
X162985500Y-82994483D01*
X162974894Y-82890681D01*
X162974893Y-82890678D01*
X162949106Y-82812855D01*
X162936794Y-82775699D01*
X167717000Y-82775699D01*
X167717000Y-83208500D01*
X168721000Y-83208500D01*
X168721000Y-81954500D01*
X168538199Y-81954500D01*
X168461098Y-81960568D01*
X168281818Y-82008607D01*
X168116437Y-82092874D01*
X168116434Y-82092876D01*
X167972185Y-82209685D01*
X167855376Y-82353934D01*
X167855374Y-82353937D01*
X167771107Y-82519318D01*
X167723068Y-82698598D01*
X167717000Y-82775699D01*
X162936794Y-82775699D01*
X162919157Y-82722474D01*
X162826134Y-82571660D01*
X162826129Y-82571654D01*
X162700845Y-82446370D01*
X162700839Y-82446365D01*
X162550025Y-82353342D01*
X162381821Y-82297606D01*
X162381818Y-82297605D01*
X162278016Y-82287000D01*
X162169000Y-82287000D01*
X162169000Y-83416000D01*
X161661000Y-83416000D01*
X161661000Y-82287000D01*
X161551983Y-82287000D01*
X161448181Y-82297605D01*
X161448178Y-82297606D01*
X161279974Y-82353342D01*
X161129160Y-82446365D01*
X161129154Y-82446370D01*
X161003870Y-82571654D01*
X161003865Y-82571660D01*
X160910842Y-82722474D01*
X160855106Y-82890678D01*
X160855105Y-82890681D01*
X160844500Y-82994483D01*
X160060999Y-82994483D01*
X160060999Y-82994455D01*
X160050387Y-82890574D01*
X160050386Y-82890572D01*
X159994615Y-82722262D01*
X159901530Y-82571348D01*
X159901529Y-82571347D01*
X159901524Y-82571341D01*
X159776158Y-82445975D01*
X159776152Y-82445970D01*
X159721801Y-82412446D01*
X159625238Y-82352885D01*
X159496059Y-82310080D01*
X159456927Y-82297113D01*
X159456920Y-82297112D01*
X159353053Y-82286500D01*
X158626955Y-82286500D01*
X158523074Y-82297112D01*
X158354761Y-82352885D01*
X158203847Y-82445970D01*
X158203841Y-82445975D01*
X158078475Y-82571341D01*
X158078470Y-82571347D01*
X158021550Y-82663629D01*
X157985385Y-82722262D01*
X157929613Y-82890574D01*
X157928822Y-82898309D01*
X157902002Y-82964041D01*
X157843899Y-83004840D01*
X157803476Y-83011500D01*
X157537933Y-83011500D01*
X157469812Y-82991498D01*
X157423319Y-82937842D01*
X157414711Y-82909215D01*
X157414610Y-82909241D01*
X157414085Y-82907132D01*
X157413458Y-82905045D01*
X157413272Y-82903861D01*
X157413271Y-82903855D01*
X157370000Y-82729860D01*
X157330169Y-82649548D01*
X157290339Y-82569237D01*
X157265502Y-82538339D01*
X157178008Y-82429492D01*
X157038264Y-82317162D01*
X157038265Y-82317162D01*
X157038262Y-82317160D01*
X156930019Y-82263478D01*
X156877640Y-82237500D01*
X156877638Y-82237499D01*
X156877637Y-82237499D01*
X156877635Y-82237498D01*
X156703653Y-82194230D01*
X156703640Y-82194228D01*
X156663408Y-82191500D01*
X155351594Y-82191500D01*
X155351588Y-82191501D01*
X155311359Y-82194228D01*
X155137359Y-82237500D01*
X154976737Y-82317160D01*
X154836992Y-82429492D01*
X154724660Y-82569237D01*
X154644999Y-82729862D01*
X154644998Y-82729864D01*
X154601730Y-82903846D01*
X154601728Y-82903859D01*
X154599000Y-82944091D01*
X154599000Y-84455905D01*
X154599001Y-84455911D01*
X154601728Y-84496140D01*
X154601728Y-84496143D01*
X154601729Y-84496145D01*
X154641204Y-84654876D01*
X154645000Y-84670140D01*
X154724660Y-84830762D01*
X154724662Y-84830764D01*
X154836992Y-84970508D01*
X154926422Y-85042394D01*
X154976737Y-85082839D01*
X155057048Y-85122669D01*
X155137360Y-85162500D01*
X155253411Y-85191360D01*
X155314688Y-85227210D01*
X155346858Y-85290500D01*
X155349000Y-85313635D01*
X155349000Y-94778000D01*
X155328998Y-94846121D01*
X155275342Y-94892614D01*
X155223000Y-94904000D01*
X154851350Y-94904000D01*
X154790803Y-94910509D01*
X154790795Y-94910511D01*
X154653797Y-94961610D01*
X154653792Y-94961612D01*
X154536738Y-95049238D01*
X154449112Y-95166292D01*
X154449110Y-95166297D01*
X154398011Y-95303295D01*
X154398009Y-95303303D01*
X154391500Y-95363850D01*
X102628500Y-95363850D01*
X102628500Y-82961220D01*
X150774000Y-82961220D01*
X150774000Y-84438779D01*
X150789415Y-84575593D01*
X150789417Y-84575604D01*
X150850113Y-84749061D01*
X150850114Y-84749063D01*
X150947885Y-84904666D01*
X151077833Y-85034614D01*
X151209367Y-85117261D01*
X151233439Y-85132387D01*
X151406900Y-85193084D01*
X151543721Y-85208500D01*
X152771278Y-85208499D01*
X152771279Y-85208499D01*
X152795491Y-85205771D01*
X152908100Y-85193084D01*
X153081561Y-85132387D01*
X153237166Y-85034614D01*
X153367114Y-84904666D01*
X153464887Y-84749061D01*
X153525584Y-84575600D01*
X153541000Y-84438779D01*
X153540999Y-82961222D01*
X153525584Y-82824400D01*
X153464887Y-82650939D01*
X153449761Y-82626867D01*
X153367114Y-82495333D01*
X153237166Y-82365385D01*
X153081563Y-82267614D01*
X153081561Y-82267613D01*
X152908100Y-82206916D01*
X152771279Y-82191500D01*
X151543720Y-82191500D01*
X151406906Y-82206915D01*
X151406901Y-82206915D01*
X151406900Y-82206916D01*
X151406899Y-82206916D01*
X151406895Y-82206917D01*
X151233438Y-82267613D01*
X151233436Y-82267614D01*
X151077833Y-82365385D01*
X150947885Y-82495333D01*
X150850114Y-82650936D01*
X150850113Y-82650938D01*
X150822497Y-82729860D01*
X150789416Y-82824400D01*
X150779860Y-82909215D01*
X150774000Y-82961220D01*
X102628500Y-82961220D01*
X102628500Y-82115516D01*
X103392000Y-82115516D01*
X103402605Y-82219318D01*
X103402606Y-82219321D01*
X103458342Y-82387525D01*
X103551365Y-82538339D01*
X103551370Y-82538345D01*
X103676654Y-82663629D01*
X103676660Y-82663634D01*
X103827474Y-82756657D01*
X103995678Y-82812393D01*
X103995681Y-82812394D01*
X104099483Y-82822999D01*
X104099483Y-82823000D01*
X104546000Y-82823000D01*
X105054000Y-82823000D01*
X105500517Y-82823000D01*
X105500516Y-82822999D01*
X105604318Y-82812394D01*
X105604321Y-82812393D01*
X105772525Y-82756657D01*
X105923339Y-82663634D01*
X105923345Y-82663629D01*
X106048629Y-82538345D01*
X106048634Y-82538339D01*
X106141657Y-82387525D01*
X106197393Y-82219321D01*
X106197394Y-82219318D01*
X106207999Y-82115516D01*
X106208000Y-82115516D01*
X106592000Y-82115516D01*
X106602605Y-82219318D01*
X106602606Y-82219321D01*
X106658342Y-82387525D01*
X106751365Y-82538339D01*
X106751370Y-82538345D01*
X106876654Y-82663629D01*
X106876660Y-82663634D01*
X107027474Y-82756657D01*
X107195678Y-82812393D01*
X107195681Y-82812394D01*
X107299483Y-82822999D01*
X107299483Y-82823000D01*
X107746000Y-82823000D01*
X108254000Y-82823000D01*
X108700517Y-82823000D01*
X108700516Y-82822999D01*
X108804318Y-82812394D01*
X108804321Y-82812393D01*
X108972525Y-82756657D01*
X109123339Y-82663634D01*
X109123345Y-82663629D01*
X109248629Y-82538345D01*
X109248634Y-82538339D01*
X109341657Y-82387525D01*
X109397393Y-82219321D01*
X109397394Y-82219318D01*
X109407999Y-82115516D01*
X109408000Y-82115516D01*
X109408000Y-81906500D01*
X108254000Y-81906500D01*
X108254000Y-82823000D01*
X107746000Y-82823000D01*
X107746000Y-81906500D01*
X106592000Y-81906500D01*
X106592000Y-82115516D01*
X106208000Y-82115516D01*
X106208000Y-81906500D01*
X105054000Y-81906500D01*
X105054000Y-82823000D01*
X104546000Y-82823000D01*
X104546000Y-81906500D01*
X103392000Y-81906500D01*
X103392000Y-82115516D01*
X102628500Y-82115516D01*
X102628500Y-81189483D01*
X103392000Y-81189483D01*
X103392000Y-81398500D01*
X104546000Y-81398500D01*
X105054000Y-81398500D01*
X106208000Y-81398500D01*
X106208000Y-81189483D01*
X106592000Y-81189483D01*
X106592000Y-81398500D01*
X107746000Y-81398500D01*
X108254000Y-81398500D01*
X109408000Y-81398500D01*
X109408000Y-81189483D01*
X109397394Y-81085681D01*
X109397393Y-81085678D01*
X109341657Y-80917474D01*
X109248634Y-80766660D01*
X109248629Y-80766654D01*
X109123345Y-80641370D01*
X109123339Y-80641365D01*
X108972525Y-80548342D01*
X108804321Y-80492606D01*
X108804318Y-80492605D01*
X108700516Y-80482000D01*
X108254000Y-80482000D01*
X108254000Y-81398500D01*
X107746000Y-81398500D01*
X107746000Y-80482000D01*
X107299483Y-80482000D01*
X107195681Y-80492605D01*
X107195678Y-80492606D01*
X107027474Y-80548342D01*
X106876660Y-80641365D01*
X106876654Y-80641370D01*
X106751370Y-80766654D01*
X106751365Y-80766660D01*
X106658342Y-80917474D01*
X106602606Y-81085678D01*
X106602605Y-81085681D01*
X106592000Y-81189483D01*
X106208000Y-81189483D01*
X106197394Y-81085681D01*
X106197393Y-81085678D01*
X106141657Y-80917474D01*
X106048634Y-80766660D01*
X106048629Y-80766654D01*
X105923345Y-80641370D01*
X105923339Y-80641365D01*
X105772525Y-80548342D01*
X105604321Y-80492606D01*
X105604318Y-80492605D01*
X105500516Y-80482000D01*
X105054000Y-80482000D01*
X105054000Y-81398500D01*
X104546000Y-81398500D01*
X104546000Y-80482000D01*
X104099483Y-80482000D01*
X103995681Y-80492605D01*
X103995678Y-80492606D01*
X103827474Y-80548342D01*
X103676660Y-80641365D01*
X103676654Y-80641370D01*
X103551370Y-80766654D01*
X103551365Y-80766660D01*
X103458342Y-80917474D01*
X103402606Y-81085678D01*
X103402605Y-81085681D01*
X103392000Y-81189483D01*
X102628500Y-81189483D01*
X102628500Y-78192503D01*
X102648502Y-78124382D01*
X102702158Y-78077889D01*
X102772432Y-78067785D01*
X102837012Y-78097279D01*
X102843595Y-78103408D01*
X103354595Y-78614408D01*
X103388621Y-78676720D01*
X103391500Y-78703503D01*
X103391500Y-78990544D01*
X103402112Y-79094425D01*
X103457885Y-79262738D01*
X103550970Y-79413652D01*
X103550975Y-79413658D01*
X103676341Y-79539024D01*
X103676347Y-79539029D01*
X103676348Y-79539030D01*
X103827262Y-79632115D01*
X103995574Y-79687887D01*
X104099455Y-79698500D01*
X105500544Y-79698499D01*
X105604426Y-79687887D01*
X105772738Y-79632115D01*
X105865971Y-79574607D01*
X105932118Y-79555849D01*
X106867882Y-79555849D01*
X106934028Y-79574607D01*
X107027262Y-79632115D01*
X107195574Y-79687887D01*
X107299455Y-79698500D01*
X108700544Y-79698499D01*
X108804426Y-79687887D01*
X108972738Y-79632115D01*
X109065971Y-79574607D01*
X109132118Y-79555849D01*
X137010521Y-79555849D01*
X166968846Y-79555849D01*
X167036967Y-79575851D01*
X167057941Y-79592754D01*
X169235248Y-81770061D01*
X169269274Y-81832373D01*
X169264209Y-81903188D01*
X169235248Y-81948251D01*
X169229000Y-81954499D01*
X169229000Y-84970500D01*
X169411801Y-84970500D01*
X169488901Y-84964431D01*
X169668181Y-84916392D01*
X169833562Y-84832125D01*
X169833565Y-84832123D01*
X169977817Y-84715313D01*
X170026757Y-84654876D01*
X170085171Y-84614523D01*
X170156128Y-84612157D01*
X170217100Y-84648529D01*
X170222598Y-84654874D01*
X170271831Y-84715672D01*
X170416153Y-84832542D01*
X170416158Y-84832545D01*
X170416161Y-84832547D01*
X170581638Y-84916862D01*
X170761029Y-84964930D01*
X170838157Y-84971000D01*
X171711842Y-84970999D01*
X171788971Y-84964930D01*
X171968362Y-84916862D01*
X172133839Y-84832547D01*
X172133843Y-84832543D01*
X172133846Y-84832542D01*
X172278170Y-84715670D01*
X172327080Y-84655272D01*
X172385494Y-84614920D01*
X172456451Y-84612554D01*
X172517423Y-84648927D01*
X172522920Y-84655272D01*
X172571829Y-84715670D01*
X172716153Y-84832542D01*
X172716158Y-84832545D01*
X172716161Y-84832547D01*
X172881638Y-84916862D01*
X173061029Y-84964930D01*
X173138157Y-84971000D01*
X174011842Y-84970999D01*
X174088971Y-84964930D01*
X174268362Y-84916862D01*
X174433839Y-84832547D01*
X174433843Y-84832543D01*
X174433846Y-84832542D01*
X174578170Y-84715670D01*
X174695042Y-84571346D01*
X174695043Y-84571343D01*
X174695047Y-84571339D01*
X174779362Y-84405862D01*
X174827430Y-84226471D01*
X174833500Y-84149343D01*
X174833499Y-83694922D01*
X174853501Y-83626802D01*
X174870399Y-83605833D01*
X177205829Y-81270405D01*
X177268141Y-81236379D01*
X177294924Y-81233500D01*
X182470332Y-81233500D01*
X182538453Y-81253502D01*
X182544389Y-81257561D01*
X182687991Y-81361894D01*
X182878517Y-81458972D01*
X183081878Y-81525047D01*
X183081879Y-81525047D01*
X183081884Y-81525049D01*
X183293084Y-81558500D01*
X183293087Y-81558500D01*
X183806913Y-81558500D01*
X183806916Y-81558500D01*
X184018116Y-81525049D01*
X184221483Y-81458972D01*
X184412009Y-81361894D01*
X184585004Y-81236206D01*
X184736206Y-81085004D01*
X184861894Y-80912009D01*
X184958972Y-80721483D01*
X185025049Y-80518116D01*
X185058500Y-80306916D01*
X185058500Y-80093084D01*
X185035204Y-79946000D01*
X200065302Y-79946000D01*
X201119297Y-79946000D01*
X201084075Y-80007007D01*
X201050000Y-80134174D01*
X201050000Y-80265826D01*
X201084075Y-80392993D01*
X201119297Y-80454000D01*
X200065302Y-80454000D01*
X200075440Y-80518004D01*
X200141490Y-80721286D01*
X200141493Y-80721292D01*
X200238536Y-80911750D01*
X200364177Y-81084679D01*
X200515320Y-81235822D01*
X200688249Y-81361463D01*
X200878707Y-81458506D01*
X200878713Y-81458509D01*
X201081996Y-81524559D01*
X201293126Y-81558000D01*
X201296000Y-81558000D01*
X201296000Y-80630702D01*
X201357007Y-80665925D01*
X201484174Y-80700000D01*
X201615826Y-80700000D01*
X201742993Y-80665925D01*
X201804000Y-80630702D01*
X201804000Y-81558000D01*
X201806874Y-81558000D01*
X202018003Y-81524559D01*
X202221286Y-81458509D01*
X202221292Y-81458506D01*
X202411750Y-81361463D01*
X202584679Y-81235822D01*
X202735822Y-81084679D01*
X202861463Y-80911750D01*
X202958506Y-80721292D01*
X202958509Y-80721286D01*
X203024559Y-80518004D01*
X203034698Y-80454000D01*
X201980703Y-80454000D01*
X202015925Y-80392993D01*
X202050000Y-80265826D01*
X202050000Y-80134174D01*
X202015925Y-80007007D01*
X201980703Y-79946000D01*
X203034697Y-79946000D01*
X203024559Y-79881995D01*
X202958509Y-79678713D01*
X202958506Y-79678707D01*
X202861463Y-79488249D01*
X202735822Y-79315320D01*
X202584679Y-79164177D01*
X202411750Y-79038536D01*
X202221292Y-78941493D01*
X202221286Y-78941490D01*
X202018003Y-78875440D01*
X201806874Y-78842000D01*
X201804000Y-78842000D01*
X201804000Y-79769297D01*
X201742993Y-79734075D01*
X201615826Y-79700000D01*
X201484174Y-79700000D01*
X201357007Y-79734075D01*
X201296000Y-79769297D01*
X201296000Y-78842000D01*
X201293126Y-78842000D01*
X201081996Y-78875440D01*
X200878713Y-78941490D01*
X200878707Y-78941493D01*
X200688249Y-79038536D01*
X200515320Y-79164177D01*
X200364177Y-79315320D01*
X200238536Y-79488249D01*
X200141493Y-79678707D01*
X200141490Y-79678713D01*
X200075440Y-79881995D01*
X200065302Y-79946000D01*
X185035204Y-79946000D01*
X185025049Y-79881884D01*
X184958972Y-79678517D01*
X184861894Y-79487991D01*
X184736206Y-79314996D01*
X184736203Y-79314993D01*
X184736201Y-79314990D01*
X184585009Y-79163798D01*
X184585006Y-79163796D01*
X184585004Y-79163794D01*
X184412009Y-79038106D01*
X184221483Y-78941028D01*
X184221480Y-78941027D01*
X184221478Y-78941026D01*
X184018120Y-78874952D01*
X184018123Y-78874952D01*
X183978801Y-78868724D01*
X183806916Y-78841500D01*
X183293084Y-78841500D01*
X183081884Y-78874951D01*
X183081878Y-78874952D01*
X182878521Y-78941026D01*
X182878515Y-78941029D01*
X182687987Y-79038108D01*
X182514993Y-79163796D01*
X182514990Y-79163798D01*
X182499194Y-79179595D01*
X182436882Y-79213621D01*
X182410099Y-79216500D01*
X176725668Y-79216500D01*
X176530830Y-79255256D01*
X176530825Y-79255258D01*
X176347296Y-79331279D01*
X176182123Y-79441644D01*
X176182116Y-79441649D01*
X173706669Y-81917095D01*
X173644357Y-81951121D01*
X173617574Y-81954000D01*
X173138158Y-81954000D01*
X173061030Y-81960069D01*
X172881639Y-82008137D01*
X172716162Y-82092452D01*
X172716153Y-82092457D01*
X172571831Y-82209327D01*
X172522920Y-82269728D01*
X172464505Y-82310080D01*
X172393548Y-82312444D01*
X172332577Y-82276071D01*
X172327080Y-82269728D01*
X172278168Y-82209327D01*
X172133846Y-82092457D01*
X172133833Y-82092449D01*
X172079418Y-82064723D01*
X172031857Y-82022459D01*
X171980678Y-81945865D01*
X171980673Y-81945859D01*
X167976489Y-77941675D01*
X167976483Y-77941670D01*
X167908615Y-77896322D01*
X167827685Y-77842246D01*
X167662349Y-77773762D01*
X167486830Y-77738849D01*
X167486828Y-77738849D01*
X139334500Y-77738849D01*
X139266379Y-77718847D01*
X139219886Y-77665191D01*
X139208500Y-77612849D01*
X139208500Y-77081367D01*
X139208499Y-77081350D01*
X139201990Y-77020803D01*
X139201988Y-77020795D01*
X139154448Y-76893338D01*
X139150889Y-76883796D01*
X139150888Y-76883794D01*
X139150887Y-76883792D01*
X139063261Y-76766738D01*
X138988440Y-76710728D01*
X138946207Y-76679112D01*
X138946202Y-76679110D01*
X138809204Y-76628011D01*
X138809196Y-76628009D01*
X138748649Y-76621500D01*
X138748638Y-76621500D01*
X137051362Y-76621500D01*
X137051350Y-76621500D01*
X136990803Y-76628009D01*
X136990795Y-76628011D01*
X136853797Y-76679110D01*
X136853792Y-76679112D01*
X136736738Y-76766738D01*
X136649112Y-76883792D01*
X136649110Y-76883797D01*
X136598011Y-77020795D01*
X136598009Y-77020803D01*
X136591500Y-77081350D01*
X136591500Y-77612849D01*
X136571498Y-77680970D01*
X136517842Y-77727463D01*
X136465500Y-77738849D01*
X109379492Y-77738849D01*
X109311371Y-77718847D01*
X109272251Y-77678996D01*
X109249029Y-77641347D01*
X109249024Y-77641341D01*
X109123658Y-77515975D01*
X109123652Y-77515970D01*
X109007087Y-77444072D01*
X108972738Y-77422885D01*
X108888582Y-77394999D01*
X108804427Y-77367113D01*
X108804420Y-77367112D01*
X108700553Y-77356500D01*
X107299455Y-77356500D01*
X107195574Y-77367112D01*
X107027261Y-77422885D01*
X106876347Y-77515970D01*
X106876341Y-77515975D01*
X106750975Y-77641341D01*
X106750970Y-77641347D01*
X106727749Y-77678996D01*
X106674963Y-77726474D01*
X106620508Y-77738849D01*
X106179492Y-77738849D01*
X106111371Y-77718847D01*
X106072251Y-77678996D01*
X106049029Y-77641347D01*
X106049024Y-77641341D01*
X105923658Y-77515975D01*
X105923652Y-77515970D01*
X105807087Y-77444072D01*
X105772738Y-77422885D01*
X105688582Y-77394999D01*
X105604427Y-77367113D01*
X105604420Y-77367112D01*
X105500553Y-77356500D01*
X105500545Y-77356500D01*
X104718503Y-77356500D01*
X104650382Y-77336498D01*
X104629408Y-77319595D01*
X103955405Y-76645592D01*
X103937578Y-76612946D01*
X168866500Y-76612946D01*
X168866500Y-77712034D01*
X168866501Y-77712054D01*
X168881090Y-77860194D01*
X168881091Y-77860200D01*
X168881092Y-77860201D01*
X168938759Y-78050304D01*
X169032405Y-78225504D01*
X169158432Y-78379068D01*
X169311996Y-78505095D01*
X169487196Y-78598741D01*
X169677299Y-78656408D01*
X169677303Y-78656408D01*
X169677305Y-78656409D01*
X169717502Y-78660367D01*
X169825453Y-78671000D01*
X172724546Y-78670999D01*
X172784668Y-78665077D01*
X172872694Y-78656409D01*
X172872695Y-78656408D01*
X172872701Y-78656408D01*
X173062804Y-78598741D01*
X173238004Y-78505095D01*
X173391568Y-78379068D01*
X173517595Y-78225504D01*
X173611241Y-78050304D01*
X173668908Y-77860201D01*
X173670677Y-77842246D01*
X173677421Y-77773764D01*
X173683500Y-77712047D01*
X173683499Y-76612954D01*
X173668908Y-76464799D01*
X173611241Y-76274696D01*
X173517595Y-76099496D01*
X173391568Y-75945932D01*
X173238004Y-75819905D01*
X173062804Y-75726259D01*
X172872701Y-75668592D01*
X172872700Y-75668591D01*
X172872694Y-75668590D01*
X172743903Y-75655906D01*
X172724547Y-75654000D01*
X172724545Y-75654000D01*
X169825465Y-75654000D01*
X169825445Y-75654001D01*
X169677305Y-75668590D01*
X169487195Y-75726259D01*
X169311995Y-75819905D01*
X169158432Y-75945932D01*
X169032405Y-76099495D01*
X168938759Y-76274695D01*
X168881090Y-76464805D01*
X168866500Y-76612946D01*
X103937578Y-76612946D01*
X103921379Y-76583280D01*
X103918500Y-76556497D01*
X103918500Y-72827061D01*
X136592000Y-72827061D01*
X136592000Y-73032938D01*
X136624208Y-73236296D01*
X136687826Y-73432093D01*
X136687829Y-73432099D01*
X136781297Y-73615540D01*
X136781298Y-73615541D01*
X136812416Y-73658372D01*
X137500000Y-72970788D01*
X137500000Y-72982661D01*
X137527259Y-73084394D01*
X137579920Y-73175606D01*
X137654394Y-73250080D01*
X137745606Y-73302741D01*
X137847339Y-73330000D01*
X137859210Y-73330000D01*
X137171626Y-74017582D01*
X137171626Y-74017583D01*
X137214454Y-74048699D01*
X137397900Y-74142170D01*
X137397906Y-74142173D01*
X137593705Y-74205791D01*
X137593701Y-74205791D01*
X137797061Y-74238000D01*
X138002939Y-74238000D01*
X138206296Y-74205791D01*
X138402093Y-74142173D01*
X138402099Y-74142170D01*
X138585541Y-74048701D01*
X138628372Y-74017582D01*
X138628372Y-74017581D01*
X137940791Y-73330000D01*
X137952661Y-73330000D01*
X138054394Y-73302741D01*
X138145606Y-73250080D01*
X138220080Y-73175606D01*
X138272741Y-73084394D01*
X138300000Y-72982661D01*
X138300000Y-72970791D01*
X138987581Y-73658372D01*
X138987582Y-73658372D01*
X139018701Y-73615541D01*
X139112170Y-73432099D01*
X139112173Y-73432093D01*
X139175791Y-73236296D01*
X139208000Y-73032938D01*
X139208000Y-72827061D01*
X139175791Y-72623703D01*
X139112173Y-72427906D01*
X139112170Y-72427900D01*
X139018699Y-72244454D01*
X138987583Y-72201626D01*
X138987582Y-72201626D01*
X138300000Y-72889208D01*
X138300000Y-72877339D01*
X138272741Y-72775606D01*
X138220080Y-72684394D01*
X138145606Y-72609920D01*
X138054394Y-72557259D01*
X137952661Y-72530000D01*
X137940790Y-72530000D01*
X138628372Y-71842416D01*
X138585541Y-71811298D01*
X138585540Y-71811297D01*
X138402099Y-71717829D01*
X138402093Y-71717826D01*
X138206294Y-71654208D01*
X138206298Y-71654208D01*
X138002939Y-71622000D01*
X137797061Y-71622000D01*
X137593703Y-71654208D01*
X137397906Y-71717826D01*
X137397900Y-71717829D01*
X137214452Y-71811301D01*
X137171625Y-71842416D01*
X137859209Y-72530000D01*
X137847339Y-72530000D01*
X137745606Y-72557259D01*
X137654394Y-72609920D01*
X137579920Y-72684394D01*
X137527259Y-72775606D01*
X137500000Y-72877339D01*
X137500000Y-72889209D01*
X136812416Y-72201625D01*
X136781301Y-72244452D01*
X136687829Y-72427900D01*
X136687826Y-72427906D01*
X136624208Y-72623703D01*
X136592000Y-72827061D01*
X103918500Y-72827061D01*
X103918500Y-70044900D01*
X103938502Y-69976779D01*
X103955400Y-69955809D01*
X104046206Y-69865004D01*
X104171894Y-69692009D01*
X104171899Y-69691997D01*
X104172561Y-69690920D01*
X104172924Y-69690591D01*
X104174804Y-69688004D01*
X104175347Y-69688398D01*
X104225204Y-69643283D01*
X104295244Y-69631670D01*
X104360445Y-69659766D01*
X104385021Y-69688130D01*
X104385196Y-69688004D01*
X104386668Y-69690030D01*
X104387439Y-69690920D01*
X104388105Y-69692007D01*
X104388106Y-69692009D01*
X104513794Y-69865004D01*
X104513796Y-69865006D01*
X104513798Y-69865009D01*
X104664990Y-70016201D01*
X104664993Y-70016203D01*
X104664996Y-70016206D01*
X104837991Y-70141894D01*
X105028517Y-70238972D01*
X105231878Y-70305047D01*
X105231879Y-70305047D01*
X105231884Y-70305049D01*
X105443084Y-70338500D01*
X105443087Y-70338500D01*
X105656913Y-70338500D01*
X105656916Y-70338500D01*
X105868116Y-70305049D01*
X106071483Y-70238972D01*
X106262009Y-70141894D01*
X106435004Y-70016206D01*
X106586206Y-69865004D01*
X106711894Y-69692009D01*
X106808972Y-69501483D01*
X106875049Y-69298116D01*
X106908500Y-69086916D01*
X106908500Y-68873084D01*
X106875049Y-68661884D01*
X106808972Y-68458517D01*
X106711894Y-68267991D01*
X106586206Y-68094996D01*
X106586203Y-68094993D01*
X106586201Y-68094990D01*
X106435009Y-67943798D01*
X106435006Y-67943796D01*
X106435004Y-67943794D01*
X106262009Y-67818106D01*
X106262007Y-67818105D01*
X106260920Y-67817439D01*
X106260591Y-67817075D01*
X106258004Y-67815196D01*
X106258398Y-67814652D01*
X106213283Y-67764796D01*
X106201670Y-67694756D01*
X106229766Y-67629555D01*
X106258130Y-67604978D01*
X106258004Y-67604804D01*
X106260030Y-67603331D01*
X106260920Y-67602561D01*
X106261997Y-67601899D01*
X106262009Y-67601894D01*
X106435004Y-67476206D01*
X106586206Y-67325004D01*
X106711894Y-67152009D01*
X106808972Y-66961483D01*
X106875049Y-66758116D01*
X106908500Y-66546916D01*
X106908500Y-66333084D01*
X106875049Y-66121884D01*
X106808972Y-65918517D01*
X106711894Y-65727991D01*
X106586206Y-65554996D01*
X106586203Y-65554993D01*
X106586201Y-65554990D01*
X106435009Y-65403798D01*
X106435006Y-65403796D01*
X106435004Y-65403794D01*
X106278588Y-65290151D01*
X106262012Y-65278108D01*
X106260920Y-65277439D01*
X106260591Y-65277075D01*
X106258004Y-65275196D01*
X106258398Y-65274652D01*
X106213283Y-65224796D01*
X106201670Y-65154756D01*
X106229766Y-65089555D01*
X106258130Y-65064978D01*
X106258004Y-65064804D01*
X106260030Y-65063331D01*
X106260920Y-65062561D01*
X106261997Y-65061899D01*
X106262009Y-65061894D01*
X106435004Y-64936206D01*
X106586206Y-64785004D01*
X106711894Y-64612009D01*
X106808972Y-64421483D01*
X106875049Y-64218116D01*
X106908500Y-64006916D01*
X106908500Y-63793084D01*
X106875049Y-63581884D01*
X106808972Y-63378517D01*
X106711894Y-63187991D01*
X106586206Y-63014996D01*
X106586203Y-63014993D01*
X106586201Y-63014990D01*
X106435009Y-62863798D01*
X106435006Y-62863796D01*
X106435004Y-62863794D01*
X106290078Y-62758499D01*
X106262012Y-62738108D01*
X106260920Y-62737439D01*
X106260591Y-62737075D01*
X106258004Y-62735196D01*
X106258398Y-62734652D01*
X106213283Y-62684796D01*
X106201670Y-62614756D01*
X106229766Y-62549555D01*
X106258130Y-62524978D01*
X106258004Y-62524804D01*
X106260030Y-62523331D01*
X106260920Y-62522561D01*
X106261997Y-62521899D01*
X106262009Y-62521894D01*
X106435004Y-62396206D01*
X106586206Y-62245004D01*
X106711894Y-62072009D01*
X106808972Y-61881483D01*
X106875049Y-61678116D01*
X106908500Y-61466916D01*
X106908500Y-61253084D01*
X106875049Y-61041884D01*
X106808972Y-60838517D01*
X106711894Y-60647991D01*
X106586206Y-60474996D01*
X106586203Y-60474993D01*
X106586201Y-60474990D01*
X106435009Y-60323798D01*
X106435006Y-60323796D01*
X106435004Y-60323794D01*
X106304781Y-60229182D01*
X106262012Y-60198108D01*
X106260920Y-60197439D01*
X106260591Y-60197075D01*
X106258004Y-60195196D01*
X106258398Y-60194652D01*
X106213283Y-60144796D01*
X106201670Y-60074756D01*
X106229766Y-60009555D01*
X106258130Y-59984978D01*
X106258004Y-59984804D01*
X106260030Y-59983331D01*
X106260920Y-59982561D01*
X106261997Y-59981899D01*
X106262009Y-59981894D01*
X106435004Y-59856206D01*
X106586206Y-59705004D01*
X106711894Y-59532009D01*
X106808972Y-59341483D01*
X106875049Y-59138116D01*
X106908500Y-58926916D01*
X106908500Y-58713084D01*
X106875049Y-58501884D01*
X106833313Y-58373434D01*
X106831286Y-58302468D01*
X106867949Y-58241671D01*
X106931661Y-58210345D01*
X106953147Y-58208500D01*
X121926853Y-58208500D01*
X121994974Y-58228502D01*
X122041467Y-58282158D01*
X122051571Y-58352432D01*
X122046686Y-58373432D01*
X122042537Y-58386206D01*
X122004952Y-58501878D01*
X122004951Y-58501883D01*
X122004951Y-58501884D01*
X121971500Y-58713084D01*
X121971500Y-58926916D01*
X121983867Y-59004996D01*
X122004952Y-59138121D01*
X122066223Y-59326696D01*
X122071028Y-59341483D01*
X122168106Y-59532009D01*
X122168108Y-59532012D01*
X122188387Y-59559924D01*
X122293794Y-59705004D01*
X122293796Y-59705006D01*
X122293798Y-59705009D01*
X122444990Y-59856201D01*
X122444993Y-59856203D01*
X122444996Y-59856206D01*
X122617991Y-59981894D01*
X122617996Y-59981896D01*
X122619088Y-59982566D01*
X122619418Y-59982931D01*
X122621996Y-59984804D01*
X122621602Y-59985345D01*
X122666721Y-60035213D01*
X122678328Y-60105255D01*
X122650226Y-60170453D01*
X122621870Y-60195023D01*
X122621996Y-60195196D01*
X122619982Y-60196658D01*
X122619088Y-60197434D01*
X122617987Y-60198108D01*
X122444993Y-60323796D01*
X122444990Y-60323798D01*
X122293798Y-60474990D01*
X122293796Y-60474993D01*
X122168108Y-60647987D01*
X122071029Y-60838515D01*
X122071026Y-60838521D01*
X122004952Y-61041878D01*
X122004951Y-61041883D01*
X122004951Y-61041884D01*
X121971500Y-61253084D01*
X121971500Y-61466916D01*
X121998145Y-61635142D01*
X122004952Y-61678121D01*
X122064532Y-61861490D01*
X122071028Y-61881483D01*
X122168106Y-62072009D01*
X122293794Y-62245004D01*
X122293796Y-62245006D01*
X122293798Y-62245009D01*
X122444990Y-62396201D01*
X122444993Y-62396203D01*
X122444996Y-62396206D01*
X122617991Y-62521894D01*
X122617996Y-62521896D01*
X122619088Y-62522566D01*
X122619418Y-62522931D01*
X122621996Y-62524804D01*
X122621602Y-62525345D01*
X122666721Y-62575213D01*
X122678328Y-62645255D01*
X122650226Y-62710453D01*
X122621870Y-62735023D01*
X122621996Y-62735196D01*
X122619982Y-62736658D01*
X122619088Y-62737434D01*
X122617987Y-62738108D01*
X122444993Y-62863796D01*
X122444990Y-62863798D01*
X122293798Y-63014990D01*
X122293796Y-63014993D01*
X122168108Y-63187987D01*
X122071029Y-63378515D01*
X122071026Y-63378521D01*
X122004952Y-63581878D01*
X122004951Y-63581883D01*
X122004951Y-63581884D01*
X121971500Y-63793084D01*
X121971500Y-64006916D01*
X121996522Y-64164897D01*
X122004952Y-64218121D01*
X122071026Y-64421478D01*
X122071028Y-64421483D01*
X122168106Y-64612009D01*
X122293794Y-64785004D01*
X122293796Y-64785006D01*
X122293798Y-64785009D01*
X122444990Y-64936201D01*
X122444993Y-64936203D01*
X122444996Y-64936206D01*
X122617991Y-65061894D01*
X122618001Y-65061899D01*
X122619567Y-65062859D01*
X122620042Y-65063384D01*
X122621996Y-65064804D01*
X122621697Y-65065214D01*
X122667200Y-65115505D01*
X122678808Y-65185546D01*
X122650707Y-65250745D01*
X122622157Y-65275484D01*
X122622259Y-65275624D01*
X122620639Y-65276800D01*
X122619574Y-65277724D01*
X122618261Y-65278528D01*
X122565831Y-65316621D01*
X122565831Y-65316622D01*
X123205051Y-65955842D01*
X123137007Y-65974075D01*
X123022993Y-66039901D01*
X122929901Y-66132993D01*
X122864075Y-66247007D01*
X122845842Y-66315051D01*
X122206622Y-65675831D01*
X122206621Y-65675831D01*
X122168534Y-65728253D01*
X122071493Y-65918707D01*
X122071490Y-65918713D01*
X122005440Y-66121996D01*
X121972000Y-66333126D01*
X121972000Y-66546873D01*
X122005440Y-66758003D01*
X122071490Y-66961286D01*
X122071493Y-66961292D01*
X122168535Y-67151748D01*
X122168536Y-67151750D01*
X122206620Y-67204167D01*
X122206621Y-67204168D01*
X122845841Y-66564947D01*
X122864075Y-66632993D01*
X122929901Y-66747007D01*
X123022993Y-66840099D01*
X123137007Y-66905925D01*
X123205051Y-66924157D01*
X122565831Y-67563378D01*
X122618247Y-67601461D01*
X122619566Y-67602270D01*
X122619962Y-67602708D01*
X122622258Y-67604376D01*
X122621907Y-67604858D01*
X122667199Y-67654915D01*
X122678809Y-67724956D01*
X122650708Y-67790155D01*
X122621925Y-67815098D01*
X122621996Y-67815196D01*
X122620862Y-67816019D01*
X122619580Y-67817131D01*
X122617998Y-67818100D01*
X122444993Y-67943796D01*
X122444990Y-67943798D01*
X122293798Y-68094990D01*
X122293796Y-68094993D01*
X122168108Y-68267987D01*
X122071029Y-68458515D01*
X122071026Y-68458521D01*
X122004952Y-68661878D01*
X122004951Y-68661883D01*
X122004951Y-68661884D01*
X121971500Y-68873084D01*
X121971500Y-69086916D01*
X122004951Y-69298116D01*
X122004952Y-69298121D01*
X122071026Y-69501478D01*
X122071028Y-69501483D01*
X122168106Y-69692009D01*
X122293794Y-69865004D01*
X122293796Y-69865006D01*
X122293798Y-69865009D01*
X122444990Y-70016201D01*
X122444993Y-70016203D01*
X122444996Y-70016206D01*
X122617991Y-70141894D01*
X122808517Y-70238972D01*
X123011878Y-70305047D01*
X123011879Y-70305047D01*
X123011884Y-70305049D01*
X123223084Y-70338500D01*
X123223087Y-70338500D01*
X123436913Y-70338500D01*
X123436916Y-70338500D01*
X123648116Y-70305049D01*
X123851483Y-70238972D01*
X124042009Y-70141894D01*
X124215004Y-70016206D01*
X124366206Y-69865004D01*
X124491894Y-69692009D01*
X124491899Y-69691997D01*
X124492561Y-69690920D01*
X124492924Y-69690591D01*
X124494804Y-69688004D01*
X124495347Y-69688398D01*
X124545204Y-69643283D01*
X124615244Y-69631670D01*
X124680445Y-69659766D01*
X124705021Y-69688130D01*
X124705196Y-69688004D01*
X124706668Y-69690030D01*
X124707439Y-69690920D01*
X124708105Y-69692007D01*
X124708106Y-69692009D01*
X124833794Y-69865004D01*
X124833796Y-69865006D01*
X124833798Y-69865009D01*
X124984990Y-70016201D01*
X124984993Y-70016203D01*
X124984996Y-70016206D01*
X125157991Y-70141894D01*
X125348517Y-70238972D01*
X125551878Y-70305047D01*
X125551879Y-70305047D01*
X125551884Y-70305049D01*
X125763084Y-70338500D01*
X125763087Y-70338500D01*
X125976913Y-70338500D01*
X125976916Y-70338500D01*
X126188116Y-70305049D01*
X126391483Y-70238972D01*
X126582009Y-70141894D01*
X126755004Y-70016206D01*
X126906206Y-69865004D01*
X127031894Y-69692009D01*
X127128972Y-69501483D01*
X127195049Y-69298116D01*
X127228500Y-69086916D01*
X127228500Y-68873084D01*
X127195049Y-68661884D01*
X127128972Y-68458517D01*
X127031894Y-68267991D01*
X126906206Y-68094996D01*
X126906203Y-68094993D01*
X126906201Y-68094990D01*
X126755009Y-67943798D01*
X126755006Y-67943796D01*
X126755004Y-67943794D01*
X126685806Y-67893518D01*
X126582006Y-67818103D01*
X126580427Y-67817136D01*
X126579952Y-67816611D01*
X126578004Y-67815196D01*
X126578301Y-67814786D01*
X126532797Y-67764488D01*
X126521191Y-67694446D01*
X126549296Y-67629249D01*
X126577843Y-67604517D01*
X126577741Y-67604377D01*
X126579384Y-67603182D01*
X126580451Y-67602259D01*
X126581756Y-67601459D01*
X126634167Y-67563378D01*
X126634167Y-67563376D01*
X125994948Y-66924157D01*
X126062993Y-66905925D01*
X126177007Y-66840099D01*
X126270099Y-66747007D01*
X126335925Y-66632993D01*
X126354157Y-66564948D01*
X126993376Y-67204167D01*
X126993378Y-67204167D01*
X127031463Y-67151750D01*
X127128506Y-66961292D01*
X127128509Y-66961286D01*
X127194559Y-66758003D01*
X127228000Y-66546873D01*
X127228000Y-66333126D01*
X127194559Y-66121996D01*
X127128509Y-65918713D01*
X127128506Y-65918707D01*
X127031464Y-65728251D01*
X127031463Y-65728249D01*
X126993378Y-65675831D01*
X126354157Y-66315051D01*
X126335925Y-66247007D01*
X126270099Y-66132993D01*
X126177007Y-66039901D01*
X126062993Y-65974075D01*
X125994947Y-65955841D01*
X126634168Y-65316621D01*
X126634167Y-65316620D01*
X126581750Y-65278536D01*
X126580428Y-65277726D01*
X126580030Y-65277286D01*
X126577742Y-65275624D01*
X126578091Y-65275143D01*
X126532797Y-65225078D01*
X126521191Y-65155036D01*
X126549295Y-65089839D01*
X126578075Y-65064903D01*
X126578004Y-65064804D01*
X126579158Y-65063965D01*
X126580441Y-65062854D01*
X126581992Y-65061902D01*
X126582009Y-65061894D01*
X126755004Y-64936206D01*
X126906206Y-64785004D01*
X127031894Y-64612009D01*
X127128972Y-64421483D01*
X127195049Y-64218116D01*
X127228500Y-64006916D01*
X127228500Y-63793084D01*
X127195049Y-63581884D01*
X127128972Y-63378517D01*
X127031894Y-63187991D01*
X126906206Y-63014996D01*
X126906203Y-63014993D01*
X126906201Y-63014990D01*
X126755009Y-62863798D01*
X126755006Y-62863796D01*
X126755004Y-62863794D01*
X126610078Y-62758499D01*
X126582012Y-62738108D01*
X126580920Y-62737439D01*
X126580591Y-62737075D01*
X126578004Y-62735196D01*
X126578398Y-62734652D01*
X126533283Y-62684796D01*
X126521670Y-62614756D01*
X126549766Y-62549555D01*
X126578130Y-62524978D01*
X126578004Y-62524804D01*
X126580030Y-62523331D01*
X126580920Y-62522561D01*
X126581997Y-62521899D01*
X126582009Y-62521894D01*
X126755004Y-62396206D01*
X126906206Y-62245004D01*
X127031894Y-62072009D01*
X127128972Y-61881483D01*
X127195049Y-61678116D01*
X127228500Y-61466916D01*
X127228500Y-61253084D01*
X127195049Y-61041884D01*
X127128972Y-60838517D01*
X127031894Y-60647991D01*
X126906206Y-60474996D01*
X126906203Y-60474993D01*
X126906201Y-60474990D01*
X126755009Y-60323798D01*
X126755006Y-60323796D01*
X126755004Y-60323794D01*
X126624781Y-60229182D01*
X126582012Y-60198108D01*
X126580920Y-60197439D01*
X126580591Y-60197075D01*
X126578004Y-60195196D01*
X126578398Y-60194652D01*
X126533283Y-60144796D01*
X126521670Y-60074756D01*
X126549766Y-60009555D01*
X126578130Y-59984978D01*
X126578004Y-59984804D01*
X126580030Y-59983331D01*
X126580920Y-59982561D01*
X126581997Y-59981899D01*
X126582009Y-59981894D01*
X126755004Y-59856206D01*
X126906206Y-59705004D01*
X127031894Y-59532009D01*
X127128972Y-59341483D01*
X127195049Y-59138116D01*
X127228500Y-58926916D01*
X127228500Y-58713084D01*
X127195049Y-58501884D01*
X127153313Y-58373434D01*
X127151286Y-58302468D01*
X127187949Y-58241671D01*
X127251661Y-58210345D01*
X127273147Y-58208500D01*
X133425050Y-58208500D01*
X133493171Y-58228502D01*
X133514145Y-58245405D01*
X136484746Y-61216005D01*
X136518772Y-61278317D01*
X136520999Y-61317903D01*
X136516500Y-61361951D01*
X136516500Y-62088044D01*
X136527112Y-62191925D01*
X136582885Y-62360238D01*
X136675970Y-62511152D01*
X136675975Y-62511158D01*
X136801341Y-62636524D01*
X136801347Y-62636529D01*
X136801348Y-62636530D01*
X136952262Y-62729615D01*
X137120574Y-62785387D01*
X137224455Y-62796000D01*
X138575544Y-62795999D01*
X138679426Y-62785387D01*
X138847738Y-62729615D01*
X138998652Y-62636530D01*
X139124030Y-62511152D01*
X139217115Y-62360238D01*
X139231742Y-62316097D01*
X140792000Y-62316097D01*
X140798505Y-62376593D01*
X140849555Y-62513464D01*
X140849555Y-62513465D01*
X140937095Y-62630404D01*
X141054034Y-62717944D01*
X141190906Y-62768994D01*
X141251402Y-62775499D01*
X141251415Y-62775500D01*
X142146000Y-62775500D01*
X142654000Y-62775500D01*
X143548585Y-62775500D01*
X143548597Y-62775499D01*
X143609093Y-62768994D01*
X143745964Y-62717944D01*
X143745965Y-62717944D01*
X143862904Y-62630404D01*
X143950444Y-62513465D01*
X143950444Y-62513464D01*
X144001494Y-62376593D01*
X144007999Y-62316097D01*
X144008000Y-62316085D01*
X144008000Y-61271500D01*
X142654000Y-61271500D01*
X142654000Y-62775500D01*
X142146000Y-62775500D01*
X142146000Y-61271500D01*
X140792000Y-61271500D01*
X140792000Y-62316097D01*
X139231742Y-62316097D01*
X139272887Y-62191926D01*
X139283500Y-62088045D01*
X139283499Y-61361956D01*
X139283498Y-61361951D01*
X139274955Y-61278317D01*
X139272887Y-61258074D01*
X139217115Y-61089762D01*
X139124030Y-60938848D01*
X139124029Y-60938847D01*
X139124024Y-60938841D01*
X138998658Y-60813475D01*
X138998652Y-60813470D01*
X138917638Y-60763500D01*
X138847738Y-60720385D01*
X138726544Y-60680226D01*
X138679427Y-60664613D01*
X138679420Y-60664612D01*
X138575553Y-60654000D01*
X138575545Y-60654000D01*
X137837449Y-60654000D01*
X137769328Y-60633998D01*
X137748354Y-60617095D01*
X137217353Y-60086094D01*
X137183327Y-60023782D01*
X137188392Y-59952967D01*
X137230939Y-59896131D01*
X137297459Y-59871320D01*
X137306421Y-59870999D01*
X138575544Y-59870999D01*
X138679426Y-59860387D01*
X138847738Y-59804615D01*
X138998652Y-59711530D01*
X139124030Y-59586152D01*
X139181269Y-59493352D01*
X139234055Y-59445875D01*
X139288510Y-59433500D01*
X140700916Y-59433500D01*
X140769037Y-59453502D01*
X140815530Y-59507158D01*
X140825634Y-59577432D01*
X140818972Y-59603532D01*
X140798505Y-59658405D01*
X140792000Y-59718902D01*
X140792000Y-60763500D01*
X144008000Y-60763500D01*
X144008000Y-59718914D01*
X144007999Y-59718902D01*
X144001494Y-59658403D01*
X143956305Y-59537248D01*
X143951239Y-59466432D01*
X143956301Y-59449191D01*
X144001989Y-59326701D01*
X144003625Y-59311490D01*
X144008499Y-59266149D01*
X144008500Y-59266132D01*
X144008500Y-57618867D01*
X144008499Y-57618850D01*
X144001990Y-57558303D01*
X144001988Y-57558295D01*
X143959657Y-57444804D01*
X143950889Y-57421296D01*
X143950888Y-57421294D01*
X143950887Y-57421292D01*
X143863261Y-57304238D01*
X143746207Y-57216612D01*
X143746202Y-57216610D01*
X143609204Y-57165511D01*
X143609196Y-57165509D01*
X143548649Y-57159000D01*
X143548638Y-57159000D01*
X141251362Y-57159000D01*
X141251350Y-57159000D01*
X141190803Y-57165509D01*
X141190795Y-57165511D01*
X141053797Y-57216610D01*
X141053792Y-57216612D01*
X140936738Y-57304238D01*
X140849112Y-57421292D01*
X140849110Y-57421297D01*
X140798011Y-57558295D01*
X140798009Y-57558303D01*
X140791500Y-57618850D01*
X140791500Y-58040500D01*
X140771498Y-58108621D01*
X140717842Y-58155114D01*
X140665500Y-58166500D01*
X139288510Y-58166500D01*
X139220389Y-58146498D01*
X139181269Y-58106647D01*
X139153736Y-58062009D01*
X139124030Y-58013848D01*
X139124029Y-58013847D01*
X139124024Y-58013841D01*
X138998658Y-57888475D01*
X138998652Y-57888470D01*
X138971104Y-57871478D01*
X138847738Y-57795385D01*
X138763582Y-57767499D01*
X138679427Y-57739613D01*
X138679420Y-57739612D01*
X138575553Y-57729000D01*
X137224455Y-57729000D01*
X137120574Y-57739612D01*
X136952261Y-57795385D01*
X136801347Y-57888470D01*
X136801341Y-57888475D01*
X136675975Y-58013841D01*
X136675970Y-58013847D01*
X136582885Y-58164762D01*
X136527113Y-58333072D01*
X136527112Y-58333079D01*
X136516500Y-58436946D01*
X136516500Y-59081050D01*
X136496498Y-59149171D01*
X136442842Y-59195664D01*
X136372568Y-59205768D01*
X136307988Y-59176274D01*
X136301405Y-59170145D01*
X134169773Y-57038513D01*
X134169769Y-57038509D01*
X134061917Y-56966445D01*
X134005999Y-56943283D01*
X133942080Y-56916807D01*
X133942077Y-56916806D01*
X133814860Y-56891500D01*
X133814857Y-56891500D01*
X127273147Y-56891500D01*
X127205026Y-56871498D01*
X127158533Y-56817842D01*
X127148429Y-56747568D01*
X127153314Y-56726564D01*
X127195049Y-56598116D01*
X127228500Y-56386916D01*
X127228500Y-56173084D01*
X127195049Y-55961884D01*
X127141941Y-55798435D01*
X127139915Y-55727468D01*
X127176577Y-55666671D01*
X127240289Y-55635345D01*
X127261775Y-55633500D01*
X128440091Y-55633500D01*
X128496815Y-55647707D01*
X128496840Y-55647650D01*
X128497230Y-55647811D01*
X128499483Y-55648376D01*
X128502549Y-55650015D01*
X128502556Y-55650018D01*
X128502558Y-55650019D01*
X128636046Y-55705312D01*
X128777757Y-55733500D01*
X128777758Y-55733500D01*
X128922242Y-55733500D01*
X128922243Y-55733500D01*
X129063954Y-55705312D01*
X129197442Y-55650019D01*
X129317579Y-55569747D01*
X129419747Y-55467579D01*
X129500019Y-55347442D01*
X129555312Y-55213954D01*
X129583500Y-55072243D01*
X129583500Y-54927757D01*
X129555312Y-54786046D01*
X129500019Y-54652558D01*
X129419747Y-54532421D01*
X129419746Y-54532420D01*
X129419743Y-54532416D01*
X129317583Y-54430256D01*
X129317579Y-54430253D01*
X129197442Y-54349981D01*
X129063956Y-54294689D01*
X129063954Y-54294688D01*
X128978621Y-54277714D01*
X128922245Y-54266500D01*
X128922243Y-54266500D01*
X128777757Y-54266500D01*
X128777754Y-54266500D01*
X128693190Y-54283321D01*
X128636046Y-54294688D01*
X128636044Y-54294688D01*
X128636043Y-54294689D01*
X128502549Y-54349984D01*
X128499483Y-54351624D01*
X128497230Y-54352188D01*
X128496840Y-54352350D01*
X128496815Y-54352292D01*
X128440091Y-54366500D01*
X127268273Y-54366500D01*
X127200152Y-54346498D01*
X127153659Y-54292842D01*
X127143555Y-54222568D01*
X127148438Y-54201570D01*
X127195049Y-54058116D01*
X127228500Y-53846916D01*
X127228500Y-53633084D01*
X127195049Y-53421884D01*
X127128972Y-53218517D01*
X127031894Y-53027991D01*
X126906206Y-52854996D01*
X126906203Y-52854993D01*
X126906201Y-52854990D01*
X126755009Y-52703798D01*
X126755006Y-52703796D01*
X126755004Y-52703794D01*
X126620246Y-52605887D01*
X126582012Y-52578108D01*
X126580920Y-52577439D01*
X126580591Y-52577075D01*
X126578004Y-52575196D01*
X126578398Y-52574652D01*
X126533283Y-52524796D01*
X126521670Y-52454756D01*
X126549766Y-52389555D01*
X126578130Y-52364978D01*
X126578004Y-52364804D01*
X126580030Y-52363331D01*
X126580920Y-52362561D01*
X126581997Y-52361899D01*
X126582009Y-52361894D01*
X126755004Y-52236206D01*
X126906206Y-52085004D01*
X127031894Y-51912009D01*
X127128972Y-51721483D01*
X127195049Y-51518116D01*
X127228500Y-51306916D01*
X127228500Y-51093084D01*
X127195049Y-50881884D01*
X127128972Y-50678517D01*
X127031894Y-50487991D01*
X126906206Y-50314996D01*
X126906203Y-50314993D01*
X126906201Y-50314990D01*
X126755009Y-50163798D01*
X126755006Y-50163796D01*
X126755004Y-50163794D01*
X126705648Y-50127934D01*
X126662295Y-50071714D01*
X126656220Y-50000978D01*
X126689351Y-49938186D01*
X126751171Y-49903275D01*
X126779710Y-49900000D01*
X128900000Y-49900000D01*
X128900000Y-46493084D01*
X188041500Y-46493084D01*
X188041500Y-46706916D01*
X188074951Y-46918116D01*
X188074952Y-46918121D01*
X188113546Y-47036901D01*
X188141028Y-47121483D01*
X188238106Y-47312009D01*
X188363794Y-47485004D01*
X188363796Y-47485006D01*
X188363798Y-47485009D01*
X188504595Y-47625806D01*
X188538621Y-47688118D01*
X188541500Y-47714901D01*
X188541500Y-48424331D01*
X188575194Y-48593721D01*
X188580256Y-48619168D01*
X188656279Y-48802704D01*
X188766647Y-48967881D01*
X188766649Y-48967883D01*
X201282113Y-61483349D01*
X201282119Y-61483354D01*
X201447296Y-61593722D01*
X201547297Y-61635143D01*
X201630831Y-61669744D01*
X201825671Y-61708500D01*
X202024329Y-61708500D01*
X211232560Y-61708500D01*
X211300681Y-61728502D01*
X211341679Y-61771500D01*
X211384749Y-61846100D01*
X211549009Y-62060166D01*
X211549017Y-62060176D01*
X211549020Y-62060179D01*
X211549026Y-62060186D01*
X211739813Y-62250973D01*
X211739818Y-62250977D01*
X211739824Y-62250983D01*
X211932278Y-62398658D01*
X211953908Y-62415255D01*
X212187582Y-62550167D01*
X212187586Y-62550168D01*
X212187595Y-62550174D01*
X212436897Y-62653438D01*
X212697545Y-62723279D01*
X212697549Y-62723279D01*
X212697551Y-62723280D01*
X212745672Y-62729615D01*
X212965079Y-62758500D01*
X212965086Y-62758500D01*
X213234914Y-62758500D01*
X213234921Y-62758500D01*
X213476702Y-62726669D01*
X213502448Y-62723280D01*
X213502448Y-62723279D01*
X213502455Y-62723279D01*
X213763103Y-62653438D01*
X214012405Y-62550174D01*
X214246095Y-62415253D01*
X214460176Y-62250983D01*
X214650983Y-62060176D01*
X214815253Y-61846095D01*
X214950174Y-61612405D01*
X215053438Y-61363103D01*
X215123279Y-61102455D01*
X215158500Y-60834921D01*
X215158500Y-60565079D01*
X215123279Y-60297545D01*
X215053438Y-60036897D01*
X214950174Y-59787595D01*
X214950168Y-59787586D01*
X214950167Y-59787582D01*
X214815255Y-59553908D01*
X214815248Y-59553899D01*
X214650983Y-59339824D01*
X214650977Y-59339818D01*
X214650973Y-59339813D01*
X214460186Y-59149026D01*
X214460180Y-59149021D01*
X214460176Y-59149017D01*
X214246095Y-58984747D01*
X214246094Y-58984746D01*
X214246091Y-58984744D01*
X214012417Y-58849832D01*
X214012409Y-58849828D01*
X214012405Y-58849826D01*
X213763103Y-58746562D01*
X213763100Y-58746561D01*
X213763098Y-58746560D01*
X213502448Y-58676719D01*
X213234923Y-58641500D01*
X213234921Y-58641500D01*
X212965079Y-58641500D01*
X212965076Y-58641500D01*
X212697551Y-58676719D01*
X212436901Y-58746560D01*
X212436897Y-58746562D01*
X212187593Y-58849827D01*
X212187582Y-58849832D01*
X211953908Y-58984744D01*
X211739824Y-59149017D01*
X211739813Y-59149026D01*
X211549026Y-59339813D01*
X211549009Y-59339833D01*
X211384749Y-59553899D01*
X211341679Y-59628500D01*
X211290296Y-59677493D01*
X211232560Y-59691500D01*
X202394925Y-59691500D01*
X202326804Y-59671498D01*
X202305830Y-59654595D01*
X190595405Y-47944170D01*
X190580460Y-47916801D01*
X190563604Y-47890573D01*
X190562698Y-47884274D01*
X190561379Y-47881858D01*
X190558500Y-47855075D01*
X190558500Y-47714901D01*
X190578502Y-47646780D01*
X190595405Y-47625806D01*
X190736201Y-47485009D01*
X190736206Y-47485004D01*
X190861894Y-47312009D01*
X190958972Y-47121483D01*
X191025049Y-46918116D01*
X191058500Y-46706916D01*
X191058500Y-46493084D01*
X191025049Y-46281884D01*
X190958972Y-46078517D01*
X190861894Y-45887991D01*
X190736206Y-45714996D01*
X190736203Y-45714993D01*
X190736201Y-45714990D01*
X190722561Y-45701350D01*
X194041500Y-45701350D01*
X194041500Y-47498649D01*
X194048009Y-47559196D01*
X194048011Y-47559204D01*
X194099110Y-47696202D01*
X194099112Y-47696207D01*
X194186738Y-47813261D01*
X194303792Y-47900887D01*
X194303794Y-47900888D01*
X194303796Y-47900889D01*
X194362875Y-47922924D01*
X194440795Y-47951988D01*
X194440803Y-47951990D01*
X194501350Y-47958499D01*
X194501355Y-47958499D01*
X194501362Y-47958500D01*
X195430076Y-47958500D01*
X195498197Y-47978502D01*
X195519166Y-47995400D01*
X196007119Y-48483353D01*
X196172296Y-48593722D01*
X196302075Y-48647477D01*
X196355831Y-48669744D01*
X196550671Y-48708500D01*
X211232560Y-48708500D01*
X211300681Y-48728502D01*
X211341679Y-48771500D01*
X211384749Y-48846100D01*
X211549009Y-49060166D01*
X211549017Y-49060176D01*
X211549020Y-49060179D01*
X211549026Y-49060186D01*
X211739813Y-49250973D01*
X211739818Y-49250977D01*
X211739824Y-49250983D01*
X211953905Y-49415253D01*
X211953908Y-49415255D01*
X212187582Y-49550167D01*
X212187586Y-49550168D01*
X212187595Y-49550174D01*
X212436897Y-49653438D01*
X212697545Y-49723279D01*
X212697549Y-49723279D01*
X212697551Y-49723280D01*
X212766503Y-49732357D01*
X212965079Y-49758500D01*
X212965086Y-49758500D01*
X213234914Y-49758500D01*
X213234921Y-49758500D01*
X213476702Y-49726669D01*
X213502448Y-49723280D01*
X213502448Y-49723279D01*
X213502455Y-49723279D01*
X213763103Y-49653438D01*
X214012405Y-49550174D01*
X214246095Y-49415253D01*
X214460176Y-49250983D01*
X214650983Y-49060176D01*
X214815253Y-48846095D01*
X214950174Y-48612405D01*
X215053438Y-48363103D01*
X215123279Y-48102455D01*
X215158500Y-47834921D01*
X215158500Y-47565079D01*
X215123279Y-47297545D01*
X215053438Y-47036897D01*
X214950174Y-46787595D01*
X214950168Y-46787586D01*
X214950167Y-46787582D01*
X214815255Y-46553908D01*
X214815248Y-46553899D01*
X214650983Y-46339824D01*
X214650977Y-46339818D01*
X214650973Y-46339813D01*
X214460186Y-46149026D01*
X214460180Y-46149021D01*
X214460176Y-46149017D01*
X214246095Y-45984747D01*
X214246094Y-45984746D01*
X214246091Y-45984744D01*
X214012417Y-45849832D01*
X214012409Y-45849828D01*
X214012405Y-45849826D01*
X213763103Y-45746562D01*
X213763100Y-45746561D01*
X213763098Y-45746560D01*
X213502448Y-45676719D01*
X213234923Y-45641500D01*
X213234921Y-45641500D01*
X212965079Y-45641500D01*
X212965076Y-45641500D01*
X212697551Y-45676719D01*
X212436901Y-45746560D01*
X212436897Y-45746562D01*
X212187593Y-45849827D01*
X212187582Y-45849832D01*
X211953908Y-45984744D01*
X211739824Y-46149017D01*
X211739813Y-46149026D01*
X211549026Y-46339813D01*
X211549009Y-46339833D01*
X211384749Y-46553899D01*
X211341679Y-46628500D01*
X211290296Y-46677493D01*
X211232560Y-46691500D01*
X197184500Y-46691500D01*
X197116379Y-46671498D01*
X197069886Y-46617842D01*
X197058500Y-46565500D01*
X197058500Y-45701367D01*
X197058499Y-45701350D01*
X197051990Y-45640803D01*
X197051988Y-45640795D01*
X197000889Y-45503797D01*
X197000887Y-45503792D01*
X196913261Y-45386738D01*
X196796207Y-45299112D01*
X196796202Y-45299110D01*
X196659204Y-45248011D01*
X196659196Y-45248009D01*
X196598649Y-45241500D01*
X196598638Y-45241500D01*
X194501362Y-45241500D01*
X194501350Y-45241500D01*
X194440803Y-45248009D01*
X194440795Y-45248011D01*
X194303797Y-45299110D01*
X194303792Y-45299112D01*
X194186738Y-45386738D01*
X194099112Y-45503792D01*
X194099110Y-45503797D01*
X194048011Y-45640795D01*
X194048009Y-45640803D01*
X194041500Y-45701350D01*
X190722561Y-45701350D01*
X190585009Y-45563798D01*
X190585006Y-45563796D01*
X190585004Y-45563794D01*
X190412009Y-45438106D01*
X190221483Y-45341028D01*
X190221480Y-45341027D01*
X190221478Y-45341026D01*
X190018120Y-45274952D01*
X190018123Y-45274952D01*
X189978801Y-45268724D01*
X189806916Y-45241500D01*
X189293084Y-45241500D01*
X189081884Y-45274951D01*
X189081878Y-45274952D01*
X188878521Y-45341026D01*
X188878515Y-45341029D01*
X188687987Y-45438108D01*
X188514993Y-45563796D01*
X188514990Y-45563798D01*
X188363798Y-45714990D01*
X188363796Y-45714993D01*
X188238108Y-45887987D01*
X188141029Y-46078515D01*
X188141026Y-46078521D01*
X188074952Y-46281878D01*
X188074951Y-46281883D01*
X188074951Y-46281884D01*
X188041500Y-46493084D01*
X128900000Y-46493084D01*
X128900000Y-41201500D01*
X128920002Y-41133379D01*
X128973658Y-41086886D01*
X129026000Y-41075500D01*
X239975469Y-41075500D01*
X239996461Y-41075500D01*
X240003525Y-41075697D01*
X240320377Y-41093492D01*
X240334414Y-41095074D01*
X240387231Y-41104047D01*
X240643790Y-41147638D01*
X240657552Y-41150779D01*
X240959105Y-41237655D01*
X240972436Y-41242320D01*
X241262366Y-41362413D01*
X241275076Y-41368534D01*
X241549733Y-41520331D01*
X241561692Y-41527845D01*
X241817626Y-41709440D01*
X241828673Y-41718250D01*
X242062657Y-41927351D01*
X242072648Y-41937342D01*
X242281749Y-42171326D01*
X242290559Y-42182373D01*
X242472154Y-42438307D01*
X242479671Y-42450271D01*
X242631458Y-42724909D01*
X242637589Y-42737640D01*
X242757678Y-43027560D01*
X242762345Y-43040897D01*
X242849218Y-43342439D01*
X242852362Y-43356215D01*
X242904925Y-43665585D01*
X242906507Y-43679625D01*
X242924302Y-43996474D01*
X242924500Y-44003539D01*
X242924500Y-72996460D01*
X242924302Y-73003525D01*
X242906507Y-73320374D01*
X242904925Y-73334414D01*
X242852362Y-73643784D01*
X242849218Y-73657560D01*
X242762345Y-73959102D01*
X242757678Y-73972439D01*
X242637589Y-74262359D01*
X242631458Y-74275090D01*
X242479671Y-74549728D01*
X242472154Y-74561692D01*
X242290559Y-74817626D01*
X242281749Y-74828673D01*
X242072648Y-75062657D01*
X242062657Y-75072648D01*
X241828673Y-75281749D01*
X241817626Y-75290559D01*
X241561692Y-75472154D01*
X241549728Y-75479671D01*
X241275090Y-75631458D01*
X241262359Y-75637589D01*
X240972439Y-75757678D01*
X240959102Y-75762345D01*
X240657560Y-75849218D01*
X240643784Y-75852362D01*
X240334414Y-75904925D01*
X240320374Y-75906507D01*
X240003526Y-75924302D01*
X239996461Y-75924500D01*
X220838814Y-75924500D01*
X220518223Y-75958195D01*
X220202905Y-76025218D01*
X219896340Y-76124828D01*
X219896322Y-76124834D01*
X219601841Y-76255945D01*
X219601828Y-76255951D01*
X219322661Y-76417130D01*
X219322656Y-76417133D01*
X219061868Y-76606607D01*
X218822307Y-76822307D01*
X218606607Y-77061868D01*
X218417133Y-77322656D01*
X218417130Y-77322661D01*
X218255951Y-77601828D01*
X218255945Y-77601841D01*
X218124834Y-77896322D01*
X218124828Y-77896340D01*
X218025218Y-78202905D01*
X217958195Y-78518223D01*
X217924500Y-78838814D01*
X217924500Y-113161185D01*
X217958195Y-113481776D01*
X218025218Y-113797094D01*
X218124828Y-114103659D01*
X218124834Y-114103677D01*
X218255945Y-114398158D01*
X218255951Y-114398171D01*
X218417130Y-114677338D01*
X218417133Y-114677343D01*
X218606607Y-114938131D01*
X218822307Y-115177692D01*
X219061868Y-115393392D01*
X219322656Y-115582866D01*
X219322661Y-115582869D01*
X219601828Y-115744048D01*
X219601833Y-115744050D01*
X219601836Y-115744052D01*
X219749081Y-115809609D01*
X219896322Y-115875165D01*
X219896324Y-115875165D01*
X219896327Y-115875167D01*
X219977252Y-115901461D01*
X220202905Y-115974781D01*
X220202910Y-115974782D01*
X220518225Y-116041805D01*
X220838820Y-116075500D01*
X220984982Y-116075500D01*
X239975469Y-116075500D01*
X239996461Y-116075500D01*
X240003525Y-116075697D01*
X240320377Y-116093492D01*
X240334415Y-116095074D01*
X240643790Y-116147638D01*
X240657552Y-116150779D01*
X240959105Y-116237655D01*
X240972436Y-116242320D01*
X241262366Y-116362413D01*
X241275076Y-116368534D01*
X241549733Y-116520331D01*
X241561692Y-116527845D01*
X241817626Y-116709440D01*
X241828673Y-116718250D01*
X242062657Y-116927351D01*
X242072648Y-116937342D01*
X242281749Y-117171326D01*
X242290559Y-117182373D01*
X242472154Y-117438307D01*
X242479671Y-117450271D01*
X242563440Y-117601841D01*
X242631458Y-117724909D01*
X242637589Y-117737640D01*
X242757678Y-118027560D01*
X242762345Y-118040897D01*
X242849218Y-118342439D01*
X242852362Y-118356215D01*
X242904925Y-118665585D01*
X242906507Y-118679625D01*
X242924302Y-118996474D01*
X242924500Y-119003539D01*
X242924500Y-148996460D01*
X242924302Y-149003525D01*
X242906507Y-149320374D01*
X242904925Y-149334414D01*
X242852362Y-149643784D01*
X242849218Y-149657560D01*
X242762345Y-149959102D01*
X242757678Y-149972439D01*
X242637589Y-150262359D01*
X242631458Y-150275090D01*
X242479671Y-150549728D01*
X242472154Y-150561692D01*
X242290559Y-150817626D01*
X242281749Y-150828673D01*
X242072648Y-151062657D01*
X242062657Y-151072648D01*
X241828673Y-151281749D01*
X241817626Y-151290559D01*
X241561692Y-151472154D01*
X241549728Y-151479671D01*
X241275090Y-151631458D01*
X241262359Y-151637589D01*
X240972439Y-151757678D01*
X240959102Y-151762345D01*
X240657560Y-151849218D01*
X240643784Y-151852362D01*
X240334414Y-151904925D01*
X240320374Y-151906507D01*
X240003526Y-151924302D01*
X239996461Y-151924500D01*
X202003539Y-151924500D01*
X201996474Y-151924302D01*
X201679625Y-151906507D01*
X201665585Y-151904925D01*
X201356215Y-151852362D01*
X201342439Y-151849218D01*
X201040897Y-151762345D01*
X201027560Y-151757678D01*
X200737640Y-151637589D01*
X200724916Y-151631461D01*
X200450271Y-151479671D01*
X200438307Y-151472154D01*
X200182373Y-151290559D01*
X200171326Y-151281749D01*
X199937342Y-151072648D01*
X199927351Y-151062657D01*
X199718250Y-150828673D01*
X199709440Y-150817626D01*
X199527845Y-150561692D01*
X199520328Y-150549728D01*
X199436562Y-150398164D01*
X199368534Y-150275076D01*
X199362413Y-150262366D01*
X199242320Y-149972436D01*
X199237654Y-149959102D01*
X199150781Y-149657560D01*
X199147637Y-149643784D01*
X199095074Y-149334414D01*
X199093492Y-149320374D01*
X199075698Y-149003525D01*
X199075500Y-148996460D01*
X199075500Y-140431786D01*
X208842000Y-140431786D01*
X208842000Y-140695013D01*
X208876355Y-140955975D01*
X208944484Y-141210235D01*
X209045216Y-141453423D01*
X209045221Y-141453434D01*
X209176823Y-141681375D01*
X209176827Y-141681381D01*
X209261916Y-141792270D01*
X209261917Y-141792271D01*
X209875532Y-141178656D01*
X209972829Y-141312575D01*
X210100825Y-141440571D01*
X210234741Y-141537866D01*
X209621127Y-142151481D01*
X209621127Y-142151482D01*
X209732017Y-142236571D01*
X209732024Y-142236576D01*
X209959965Y-142368178D01*
X209959976Y-142368183D01*
X210203164Y-142468915D01*
X210457424Y-142537044D01*
X210718386Y-142571399D01*
X210718396Y-142571400D01*
X210981604Y-142571400D01*
X210981613Y-142571399D01*
X211242575Y-142537044D01*
X211496835Y-142468915D01*
X211740023Y-142368183D01*
X211740034Y-142368178D01*
X211967975Y-142236576D01*
X211967981Y-142236572D01*
X212078871Y-142151482D01*
X212078871Y-142151481D01*
X211465257Y-141537867D01*
X211599175Y-141440571D01*
X211727171Y-141312575D01*
X211824467Y-141178657D01*
X212438081Y-141792271D01*
X212438082Y-141792271D01*
X212523172Y-141681381D01*
X212523176Y-141681375D01*
X212654778Y-141453434D01*
X212654783Y-141453423D01*
X212755515Y-141210235D01*
X212823644Y-140955975D01*
X212857999Y-140695013D01*
X212858000Y-140695004D01*
X212858000Y-140640182D01*
X235824500Y-140640182D01*
X235824500Y-140642778D01*
X235824500Y-140859820D01*
X235853166Y-141077568D01*
X235853168Y-141077575D01*
X235910014Y-141289727D01*
X235955981Y-141400702D01*
X235994063Y-141492641D01*
X235994068Y-141492650D01*
X236103881Y-141682851D01*
X236237585Y-141857098D01*
X236237604Y-141857119D01*
X236392880Y-142012395D01*
X236392890Y-142012404D01*
X236392896Y-142012410D01*
X236567145Y-142146116D01*
X236757355Y-142255935D01*
X236960273Y-142339986D01*
X237172425Y-142396832D01*
X237172429Y-142396832D01*
X237172431Y-142396833D01*
X237228552Y-142404221D01*
X237390182Y-142425500D01*
X237390189Y-142425500D01*
X237609811Y-142425500D01*
X237609818Y-142425500D01*
X237806614Y-142399591D01*
X237827568Y-142396833D01*
X237827568Y-142396832D01*
X237827575Y-142396832D01*
X238039727Y-142339986D01*
X238242645Y-142255935D01*
X238432855Y-142146116D01*
X238607104Y-142012410D01*
X238762410Y-141857104D01*
X238896116Y-141682855D01*
X239005935Y-141492645D01*
X239089986Y-141289727D01*
X239146832Y-141077575D01*
X239175500Y-140859818D01*
X239175500Y-140640182D01*
X239148066Y-140431796D01*
X239146833Y-140422431D01*
X239146832Y-140422429D01*
X239146832Y-140422425D01*
X239089986Y-140210273D01*
X239005935Y-140007355D01*
X238896116Y-139817145D01*
X238762410Y-139642896D01*
X238762404Y-139642890D01*
X238762395Y-139642880D01*
X238607119Y-139487604D01*
X238607098Y-139487585D01*
X238432851Y-139353881D01*
X238242650Y-139244068D01*
X238242641Y-139244063D01*
X238150702Y-139205981D01*
X238039727Y-139160014D01*
X237827575Y-139103168D01*
X237827568Y-139103166D01*
X237609820Y-139074500D01*
X237609818Y-139074500D01*
X237390182Y-139074500D01*
X237390179Y-139074500D01*
X237172431Y-139103166D01*
X236960273Y-139160014D01*
X236757358Y-139244063D01*
X236757349Y-139244068D01*
X236567148Y-139353881D01*
X236392901Y-139487585D01*
X236392880Y-139487604D01*
X236237604Y-139642880D01*
X236237585Y-139642901D01*
X236103881Y-139817148D01*
X235994068Y-140007349D01*
X235994063Y-140007358D01*
X235910014Y-140210273D01*
X235853166Y-140422432D01*
X235834608Y-140563399D01*
X235825789Y-140630389D01*
X235824500Y-140640182D01*
X212858000Y-140640182D01*
X212858000Y-140431796D01*
X212857999Y-140431786D01*
X212823644Y-140170824D01*
X212755515Y-139916564D01*
X212654783Y-139673376D01*
X212654778Y-139673365D01*
X212523176Y-139445424D01*
X212523171Y-139445417D01*
X212438081Y-139334527D01*
X211824466Y-139948141D01*
X211727171Y-139814225D01*
X211599175Y-139686229D01*
X211465256Y-139588932D01*
X212078871Y-138975317D01*
X212078870Y-138975316D01*
X211967981Y-138890227D01*
X211967975Y-138890223D01*
X211740034Y-138758621D01*
X211740023Y-138758616D01*
X211496835Y-138657884D01*
X211484832Y-138654668D01*
X211242575Y-138589755D01*
X210981613Y-138555400D01*
X210718386Y-138555400D01*
X210457424Y-138589755D01*
X210203164Y-138657884D01*
X209959976Y-138758616D01*
X209959965Y-138758621D01*
X209732024Y-138890223D01*
X209621127Y-138975317D01*
X210234742Y-139588932D01*
X210100825Y-139686229D01*
X209972829Y-139814225D01*
X209875532Y-139948142D01*
X209261917Y-139334527D01*
X209176823Y-139445424D01*
X209045221Y-139673365D01*
X209045216Y-139673376D01*
X208944484Y-139916564D01*
X208876355Y-140170824D01*
X208842000Y-140431786D01*
X199075500Y-140431786D01*
X199075500Y-132890419D01*
X212251500Y-132890419D01*
X212251500Y-133096381D01*
X212278111Y-133264394D01*
X212283721Y-133299812D01*
X212342081Y-133479427D01*
X212347366Y-133495690D01*
X212440871Y-133679203D01*
X212561932Y-133845830D01*
X212561934Y-133845832D01*
X212561936Y-133845835D01*
X212620406Y-133904305D01*
X212654432Y-133966617D01*
X212649367Y-134037432D01*
X212620406Y-134082495D01*
X212561936Y-134140964D01*
X212561934Y-134140967D01*
X212440873Y-134307593D01*
X212347367Y-134491108D01*
X212347364Y-134491114D01*
X212283721Y-134686987D01*
X212283720Y-134686990D01*
X212283720Y-134686992D01*
X212251500Y-134890419D01*
X212251500Y-135096381D01*
X212283720Y-135299808D01*
X212347366Y-135495690D01*
X212440871Y-135679203D01*
X212561932Y-135845830D01*
X212561934Y-135845832D01*
X212561936Y-135845835D01*
X212707564Y-135991463D01*
X212707567Y-135991465D01*
X212707570Y-135991468D01*
X212874197Y-136112529D01*
X212911261Y-136131414D01*
X212962875Y-136180161D01*
X212979941Y-136249076D01*
X212957040Y-136316278D01*
X212911261Y-136355946D01*
X212874455Y-136374699D01*
X212874453Y-136374701D01*
X212831625Y-136405816D01*
X213455463Y-137029654D01*
X213376657Y-137050770D01*
X213268343Y-137113305D01*
X213179905Y-137201743D01*
X213117370Y-137310057D01*
X213096254Y-137388863D01*
X212472416Y-136765025D01*
X212441301Y-136807852D01*
X212347829Y-136991300D01*
X212347826Y-136991306D01*
X212284208Y-137187103D01*
X212252000Y-137390461D01*
X212252000Y-137596338D01*
X212284208Y-137799696D01*
X212347826Y-137995493D01*
X212347829Y-137995499D01*
X212441297Y-138178940D01*
X212441298Y-138178941D01*
X212472416Y-138221772D01*
X213096253Y-137597935D01*
X213117370Y-137676743D01*
X213179905Y-137785057D01*
X213268343Y-137873495D01*
X213376657Y-137936030D01*
X213455463Y-137957145D01*
X212831626Y-138580982D01*
X212831626Y-138580983D01*
X212874454Y-138612099D01*
X213057900Y-138705570D01*
X213057906Y-138705573D01*
X213253705Y-138769191D01*
X213253701Y-138769191D01*
X213457061Y-138801400D01*
X213662939Y-138801400D01*
X213866296Y-138769191D01*
X214062093Y-138705573D01*
X214062099Y-138705570D01*
X214245541Y-138612101D01*
X214288372Y-138580982D01*
X214288372Y-138580981D01*
X213664536Y-137957145D01*
X213743343Y-137936030D01*
X213851657Y-137873495D01*
X213940095Y-137785057D01*
X214002630Y-137676743D01*
X214023745Y-137597936D01*
X214647581Y-138221772D01*
X214647582Y-138221772D01*
X214678701Y-138178941D01*
X214772170Y-137995499D01*
X214772173Y-137995493D01*
X214835791Y-137799696D01*
X214868000Y-137596338D01*
X214868000Y-137390461D01*
X214835791Y-137187103D01*
X214772173Y-136991306D01*
X214772170Y-136991300D01*
X214678699Y-136807854D01*
X214647583Y-136765026D01*
X214647582Y-136765026D01*
X214023745Y-137388863D01*
X214002630Y-137310057D01*
X213940095Y-137201743D01*
X213851657Y-137113305D01*
X213743343Y-137050770D01*
X213664535Y-137029653D01*
X214288372Y-136405816D01*
X214245541Y-136374698D01*
X214245539Y-136374697D01*
X214208738Y-136355945D01*
X214157124Y-136307196D01*
X214140059Y-136238281D01*
X214162961Y-136171079D01*
X214208737Y-136131414D01*
X214245803Y-136112529D01*
X214412430Y-135991468D01*
X214558068Y-135845830D01*
X214679129Y-135679203D01*
X214772634Y-135495690D01*
X214836280Y-135299808D01*
X214868500Y-135096381D01*
X214868500Y-134890419D01*
X214836280Y-134686992D01*
X214772634Y-134491110D01*
X214679129Y-134307597D01*
X214558068Y-134140970D01*
X214558065Y-134140967D01*
X214558063Y-134140964D01*
X214499594Y-134082495D01*
X214465568Y-134020183D01*
X214470633Y-133949368D01*
X214499594Y-133904305D01*
X214558063Y-133845835D01*
X214558068Y-133845830D01*
X214679129Y-133679203D01*
X214772634Y-133495690D01*
X214801431Y-133407061D01*
X225612000Y-133407061D01*
X225612000Y-133612938D01*
X225644208Y-133816296D01*
X225707826Y-134012093D01*
X225707829Y-134012099D01*
X225801297Y-134195540D01*
X225801298Y-134195541D01*
X225832416Y-134238372D01*
X226520000Y-133550788D01*
X226520000Y-133562661D01*
X226547259Y-133664394D01*
X226599920Y-133755606D01*
X226674394Y-133830080D01*
X226765606Y-133882741D01*
X226867339Y-133910000D01*
X226879210Y-133910000D01*
X226191626Y-134597582D01*
X226191626Y-134597583D01*
X226234454Y-134628699D01*
X226417900Y-134722170D01*
X226417906Y-134722173D01*
X226613705Y-134785791D01*
X226613701Y-134785791D01*
X226817061Y-134818000D01*
X227022939Y-134818000D01*
X227226296Y-134785791D01*
X227422093Y-134722173D01*
X227422099Y-134722170D01*
X227605541Y-134628701D01*
X227648372Y-134597582D01*
X227648372Y-134597581D01*
X226960791Y-133910000D01*
X226972661Y-133910000D01*
X227074394Y-133882741D01*
X227165606Y-133830080D01*
X227240080Y-133755606D01*
X227292741Y-133664394D01*
X227320000Y-133562661D01*
X227320000Y-133550791D01*
X228007581Y-134238372D01*
X228007582Y-134238372D01*
X228038701Y-134195541D01*
X228132170Y-134012099D01*
X228132173Y-134012093D01*
X228195791Y-133816296D01*
X228228000Y-133612938D01*
X228228000Y-133407061D01*
X228195791Y-133203703D01*
X228132173Y-133007906D01*
X228132170Y-133007900D01*
X228038699Y-132824454D01*
X228007583Y-132781626D01*
X228007582Y-132781626D01*
X227320000Y-133469208D01*
X227320000Y-133457339D01*
X227292741Y-133355606D01*
X227240080Y-133264394D01*
X227165606Y-133189920D01*
X227074394Y-133137259D01*
X226972661Y-133110000D01*
X226960790Y-133110000D01*
X227648372Y-132422416D01*
X227605541Y-132391298D01*
X227605540Y-132391297D01*
X227422099Y-132297829D01*
X227422093Y-132297826D01*
X227226294Y-132234208D01*
X227226298Y-132234208D01*
X227022939Y-132202000D01*
X226817061Y-132202000D01*
X226613703Y-132234208D01*
X226417906Y-132297826D01*
X226417900Y-132297829D01*
X226234452Y-132391301D01*
X226191625Y-132422416D01*
X226879209Y-133110000D01*
X226867339Y-133110000D01*
X226765606Y-133137259D01*
X226674394Y-133189920D01*
X226599920Y-133264394D01*
X226547259Y-133355606D01*
X226520000Y-133457339D01*
X226520000Y-133469209D01*
X225832416Y-132781625D01*
X225801301Y-132824452D01*
X225707829Y-133007900D01*
X225707826Y-133007906D01*
X225644208Y-133203703D01*
X225612000Y-133407061D01*
X214801431Y-133407061D01*
X214836280Y-133299808D01*
X214868500Y-133096381D01*
X214868500Y-132890419D01*
X214836280Y-132686992D01*
X214772634Y-132491110D01*
X214679129Y-132307597D01*
X214558068Y-132140970D01*
X214558065Y-132140967D01*
X214558063Y-132140964D01*
X214408930Y-131991831D01*
X214410178Y-131990582D01*
X214375539Y-131937525D01*
X214375027Y-131866530D01*
X214412980Y-131806529D01*
X214452137Y-131783104D01*
X214556204Y-131744289D01*
X214673261Y-131656661D01*
X214719403Y-131595023D01*
X214760887Y-131539607D01*
X214760887Y-131539606D01*
X214760889Y-131539604D01*
X214811989Y-131402601D01*
X214813845Y-131385345D01*
X214818499Y-131342049D01*
X214818500Y-131342032D01*
X214818500Y-130713324D01*
X214838502Y-130645203D01*
X214855405Y-130624229D01*
X215854229Y-129625405D01*
X215916541Y-129591379D01*
X215943324Y-129588500D01*
X225630217Y-129588500D01*
X225698338Y-129608502D01*
X225731086Y-129638992D01*
X225756739Y-129673261D01*
X225873792Y-129760887D01*
X225873794Y-129760888D01*
X225873796Y-129760889D01*
X225932875Y-129782924D01*
X226010795Y-129811988D01*
X226010803Y-129811990D01*
X226071350Y-129818499D01*
X226071355Y-129818499D01*
X226071362Y-129818500D01*
X226071368Y-129818500D01*
X227768632Y-129818500D01*
X227768638Y-129818500D01*
X227768645Y-129818499D01*
X227768649Y-129818499D01*
X227829196Y-129811990D01*
X227829199Y-129811989D01*
X227829201Y-129811989D01*
X227966204Y-129760889D01*
X228083261Y-129673261D01*
X228144557Y-129591379D01*
X228170887Y-129556207D01*
X228170887Y-129556206D01*
X228170889Y-129556204D01*
X228221989Y-129419201D01*
X228228500Y-129358638D01*
X228228500Y-127661362D01*
X228223006Y-127610256D01*
X228221990Y-127600803D01*
X228221988Y-127600795D01*
X228170889Y-127463797D01*
X228170887Y-127463792D01*
X228083261Y-127346738D01*
X227966207Y-127259112D01*
X227966202Y-127259110D01*
X227829204Y-127208011D01*
X227829196Y-127208009D01*
X227768649Y-127201500D01*
X227768638Y-127201500D01*
X226071362Y-127201500D01*
X226071350Y-127201500D01*
X226010803Y-127208009D01*
X226010795Y-127208011D01*
X225873797Y-127259110D01*
X225873792Y-127259112D01*
X225756738Y-127346738D01*
X225669112Y-127463792D01*
X225669111Y-127463795D01*
X225659511Y-127489534D01*
X225616964Y-127546369D01*
X225550443Y-127571179D01*
X225541456Y-127571500D01*
X215374068Y-127571500D01*
X215179230Y-127610256D01*
X215179225Y-127610258D01*
X214995696Y-127686279D01*
X214830523Y-127796644D01*
X214830516Y-127796649D01*
X213479171Y-129147995D01*
X213416859Y-129182021D01*
X213390076Y-129184900D01*
X212761350Y-129184900D01*
X212700803Y-129191409D01*
X212700795Y-129191411D01*
X212563797Y-129242510D01*
X212563792Y-129242512D01*
X212446738Y-129330138D01*
X212359112Y-129447192D01*
X212359110Y-129447197D01*
X212308011Y-129584195D01*
X212308009Y-129584203D01*
X212301500Y-129644750D01*
X212301500Y-131342049D01*
X212308009Y-131402596D01*
X212308011Y-131402604D01*
X212359110Y-131539602D01*
X212359112Y-131539607D01*
X212446738Y-131656661D01*
X212563792Y-131744287D01*
X212563796Y-131744289D01*
X212667856Y-131783102D01*
X212724692Y-131825648D01*
X212749502Y-131892169D01*
X212734410Y-131961543D01*
X212710384Y-131991145D01*
X212711070Y-131991831D01*
X212561936Y-132140964D01*
X212561934Y-132140967D01*
X212440873Y-132307593D01*
X212347367Y-132491108D01*
X212347364Y-132491114D01*
X212283721Y-132686987D01*
X212283720Y-132686990D01*
X212283720Y-132686992D01*
X212251500Y-132890419D01*
X199075500Y-132890419D01*
X199075500Y-127291786D01*
X208842000Y-127291786D01*
X208842000Y-127555013D01*
X208876355Y-127815975D01*
X208944484Y-128070235D01*
X209045216Y-128313423D01*
X209045221Y-128313434D01*
X209176823Y-128541375D01*
X209176827Y-128541381D01*
X209261916Y-128652270D01*
X209261917Y-128652271D01*
X209875532Y-128038656D01*
X209972829Y-128172575D01*
X210100825Y-128300571D01*
X210234741Y-128397866D01*
X209621127Y-129011481D01*
X209621127Y-129011482D01*
X209732017Y-129096571D01*
X209732024Y-129096576D01*
X209959965Y-129228178D01*
X209959976Y-129228183D01*
X210203164Y-129328915D01*
X210457424Y-129397044D01*
X210718386Y-129431399D01*
X210718396Y-129431400D01*
X210981604Y-129431400D01*
X210981613Y-129431399D01*
X211242575Y-129397044D01*
X211496835Y-129328915D01*
X211740023Y-129228183D01*
X211740034Y-129228178D01*
X211967975Y-129096576D01*
X211967981Y-129096572D01*
X212078871Y-129011482D01*
X212078871Y-129011481D01*
X211465257Y-128397867D01*
X211599175Y-128300571D01*
X211727171Y-128172575D01*
X211824467Y-128038657D01*
X212438081Y-128652271D01*
X212438082Y-128652271D01*
X212523172Y-128541381D01*
X212523176Y-128541375D01*
X212654778Y-128313434D01*
X212654783Y-128313423D01*
X212755515Y-128070235D01*
X212823644Y-127815975D01*
X212857999Y-127555013D01*
X212858000Y-127555004D01*
X212858000Y-127291796D01*
X212857999Y-127291786D01*
X212823644Y-127030824D01*
X212755515Y-126776564D01*
X212654783Y-126533376D01*
X212654778Y-126533365D01*
X212523176Y-126305424D01*
X212523171Y-126305417D01*
X212438081Y-126194527D01*
X211824466Y-126808141D01*
X211727171Y-126674225D01*
X211599175Y-126546229D01*
X211465256Y-126448932D01*
X212078871Y-125835317D01*
X212078870Y-125835316D01*
X211967981Y-125750227D01*
X211967975Y-125750223D01*
X211740034Y-125618621D01*
X211740023Y-125618616D01*
X211496835Y-125517884D01*
X211242575Y-125449755D01*
X210981613Y-125415400D01*
X210718386Y-125415400D01*
X210457424Y-125449755D01*
X210203164Y-125517884D01*
X209959976Y-125618616D01*
X209959965Y-125618621D01*
X209732024Y-125750223D01*
X209621127Y-125835317D01*
X210234742Y-126448932D01*
X210100825Y-126546229D01*
X209972829Y-126674225D01*
X209875532Y-126808142D01*
X209261917Y-126194527D01*
X209176823Y-126305424D01*
X209045221Y-126533365D01*
X209045216Y-126533376D01*
X208944484Y-126776564D01*
X208876355Y-127030824D01*
X208842000Y-127291786D01*
X199075500Y-127291786D01*
X199075500Y-118838822D01*
X199075499Y-118838814D01*
X199058768Y-118679625D01*
X199041805Y-118518225D01*
X198974782Y-118202910D01*
X198974781Y-118202905D01*
X198875171Y-117896340D01*
X198875165Y-117896322D01*
X198744054Y-117601841D01*
X198744048Y-117601828D01*
X198582869Y-117322661D01*
X198582866Y-117322656D01*
X198393392Y-117061868D01*
X198177692Y-116822307D01*
X197938131Y-116606607D01*
X197677343Y-116417133D01*
X197677338Y-116417130D01*
X197398171Y-116255951D01*
X197398158Y-116255945D01*
X197103677Y-116124834D01*
X197103659Y-116124828D01*
X196797094Y-116025218D01*
X196481776Y-115958195D01*
X196161185Y-115924500D01*
X196161180Y-115924500D01*
X196015018Y-115924500D01*
X116024531Y-115924500D01*
X116000000Y-115924500D01*
X115838820Y-115924500D01*
X115838814Y-115924500D01*
X115518223Y-115958195D01*
X115202905Y-116025218D01*
X114896340Y-116124828D01*
X114896322Y-116124834D01*
X114601841Y-116255945D01*
X114601828Y-116255951D01*
X114322661Y-116417130D01*
X114322656Y-116417133D01*
X114061868Y-116606607D01*
X113822307Y-116822307D01*
X113606607Y-117061868D01*
X113417133Y-117322656D01*
X113417130Y-117322661D01*
X113255951Y-117601828D01*
X113255945Y-117601841D01*
X113124834Y-117896322D01*
X113124828Y-117896340D01*
X113025218Y-118202905D01*
X112958195Y-118518223D01*
X112924500Y-118838814D01*
X112924500Y-148996460D01*
X112924302Y-149003525D01*
X112906507Y-149320374D01*
X112904925Y-149334414D01*
X112852362Y-149643784D01*
X112849218Y-149657560D01*
X112762345Y-149959102D01*
X112757678Y-149972439D01*
X112637589Y-150262359D01*
X112631458Y-150275090D01*
X112479671Y-150549728D01*
X112472154Y-150561692D01*
X112290559Y-150817626D01*
X112281749Y-150828673D01*
X112072648Y-151062657D01*
X112062657Y-151072648D01*
X111828673Y-151281749D01*
X111817626Y-151290559D01*
X111561692Y-151472154D01*
X111549728Y-151479671D01*
X111275090Y-151631458D01*
X111262359Y-151637589D01*
X110972439Y-151757678D01*
X110959102Y-151762345D01*
X110657560Y-151849218D01*
X110643784Y-151852362D01*
X110334414Y-151904925D01*
X110320374Y-151906507D01*
X110003526Y-151924302D01*
X109996461Y-151924500D01*
X73003539Y-151924500D01*
X72996474Y-151924302D01*
X72679625Y-151906507D01*
X72665585Y-151904925D01*
X72356215Y-151852362D01*
X72342439Y-151849218D01*
X72040897Y-151762345D01*
X72027560Y-151757678D01*
X71737640Y-151637589D01*
X71724916Y-151631461D01*
X71450271Y-151479671D01*
X71438307Y-151472154D01*
X71182373Y-151290559D01*
X71171326Y-151281749D01*
X70937342Y-151072648D01*
X70927351Y-151062657D01*
X70718250Y-150828673D01*
X70709440Y-150817626D01*
X70527845Y-150561692D01*
X70520328Y-150549728D01*
X70436562Y-150398164D01*
X70368534Y-150275076D01*
X70362413Y-150262366D01*
X70242320Y-149972436D01*
X70237654Y-149959102D01*
X70150781Y-149657560D01*
X70147637Y-149643784D01*
X70095074Y-149334414D01*
X70093492Y-149320374D01*
X70075698Y-149003525D01*
X70075500Y-148996460D01*
X70075500Y-140640182D01*
X73824500Y-140640182D01*
X73824500Y-140642778D01*
X73824500Y-140859820D01*
X73853166Y-141077568D01*
X73853168Y-141077575D01*
X73910014Y-141289727D01*
X73955981Y-141400702D01*
X73994063Y-141492641D01*
X73994068Y-141492650D01*
X74103881Y-141682851D01*
X74237585Y-141857098D01*
X74237604Y-141857119D01*
X74392880Y-142012395D01*
X74392890Y-142012404D01*
X74392896Y-142012410D01*
X74567145Y-142146116D01*
X74757355Y-142255935D01*
X74960273Y-142339986D01*
X75172425Y-142396832D01*
X75172429Y-142396832D01*
X75172431Y-142396833D01*
X75228552Y-142404221D01*
X75390182Y-142425500D01*
X75390189Y-142425500D01*
X75609811Y-142425500D01*
X75609818Y-142425500D01*
X75806614Y-142399591D01*
X75827568Y-142396833D01*
X75827568Y-142396832D01*
X75827575Y-142396832D01*
X76039727Y-142339986D01*
X76242645Y-142255935D01*
X76432855Y-142146116D01*
X76607104Y-142012410D01*
X76762410Y-141857104D01*
X76896116Y-141682855D01*
X77005935Y-141492645D01*
X77089986Y-141289727D01*
X77146832Y-141077575D01*
X77175500Y-140859818D01*
X77175500Y-140640182D01*
X77148066Y-140431796D01*
X77146833Y-140422431D01*
X77146832Y-140422429D01*
X77146832Y-140422425D01*
X77089986Y-140210273D01*
X77005935Y-140007355D01*
X76896116Y-139817145D01*
X76762410Y-139642896D01*
X76762404Y-139642890D01*
X76762395Y-139642880D01*
X76607119Y-139487604D01*
X76607098Y-139487585D01*
X76432851Y-139353881D01*
X76242650Y-139244068D01*
X76242641Y-139244063D01*
X76150702Y-139205981D01*
X76039727Y-139160014D01*
X75827575Y-139103168D01*
X75827568Y-139103166D01*
X75609820Y-139074500D01*
X75609818Y-139074500D01*
X75390182Y-139074500D01*
X75390179Y-139074500D01*
X75172431Y-139103166D01*
X74960273Y-139160014D01*
X74757358Y-139244063D01*
X74757349Y-139244068D01*
X74567148Y-139353881D01*
X74392901Y-139487585D01*
X74392880Y-139487604D01*
X74237604Y-139642880D01*
X74237585Y-139642901D01*
X74103881Y-139817148D01*
X73994068Y-140007349D01*
X73994063Y-140007358D01*
X73910014Y-140210273D01*
X73853166Y-140422432D01*
X73834608Y-140563399D01*
X73825789Y-140630389D01*
X73824500Y-140640182D01*
X70075500Y-140640182D01*
X70075500Y-119003539D01*
X70075698Y-118996474D01*
X70093492Y-118679625D01*
X70095074Y-118665585D01*
X70120111Y-118518225D01*
X70147639Y-118356205D01*
X70150778Y-118342451D01*
X70237656Y-118040888D01*
X70242317Y-118027568D01*
X70362416Y-117737626D01*
X70368530Y-117724930D01*
X70520335Y-117450258D01*
X70527845Y-117438307D01*
X70709446Y-117182365D01*
X70718244Y-117171333D01*
X70927351Y-116937341D01*
X70937342Y-116927351D01*
X71171333Y-116718244D01*
X71182365Y-116709446D01*
X71438313Y-116527841D01*
X71450258Y-116520335D01*
X71724930Y-116368530D01*
X71737626Y-116362416D01*
X72027568Y-116242317D01*
X72040888Y-116237656D01*
X72342451Y-116150778D01*
X72356205Y-116147639D01*
X72665586Y-116095073D01*
X72679620Y-116093492D01*
X72996474Y-116075697D01*
X73003539Y-116075500D01*
X92161177Y-116075500D01*
X92161180Y-116075500D01*
X92481775Y-116041805D01*
X92797090Y-115974782D01*
X92797091Y-115974781D01*
X92797094Y-115974781D01*
X92905361Y-115939602D01*
X93103673Y-115875167D01*
X93398164Y-115744052D01*
X93677336Y-115582871D01*
X93938131Y-115393393D01*
X94177692Y-115177692D01*
X94393393Y-114938131D01*
X94582871Y-114677336D01*
X94744052Y-114398164D01*
X94875167Y-114103673D01*
X94974782Y-113797090D01*
X95041805Y-113481775D01*
X95075500Y-113161180D01*
X95075500Y-113000000D01*
X95075500Y-112975469D01*
X95075500Y-78984982D01*
X95075500Y-78838820D01*
X95041805Y-78518225D01*
X94974782Y-78202910D01*
X94974781Y-78202905D01*
X94889900Y-77941670D01*
X94875167Y-77896327D01*
X94744052Y-77601836D01*
X94744050Y-77601833D01*
X94744048Y-77601828D01*
X94582869Y-77322661D01*
X94582866Y-77322656D01*
X94393392Y-77061868D01*
X94177692Y-76822307D01*
X93938131Y-76606607D01*
X93677343Y-76417133D01*
X93677338Y-76417130D01*
X93398171Y-76255951D01*
X93398158Y-76255945D01*
X93103677Y-76124834D01*
X93103659Y-76124828D01*
X92797094Y-76025218D01*
X92481776Y-75958195D01*
X92161185Y-75924500D01*
X92161180Y-75924500D01*
X92015018Y-75924500D01*
X73003539Y-75924500D01*
X72996474Y-75924302D01*
X72679625Y-75906507D01*
X72665585Y-75904925D01*
X72356215Y-75852362D01*
X72342439Y-75849218D01*
X72040897Y-75762345D01*
X72027560Y-75757678D01*
X71737640Y-75637589D01*
X71724916Y-75631461D01*
X71450271Y-75479671D01*
X71438307Y-75472154D01*
X71182373Y-75290559D01*
X71171326Y-75281749D01*
X70937342Y-75072648D01*
X70927351Y-75062657D01*
X70718250Y-74828673D01*
X70709440Y-74817626D01*
X70527845Y-74561692D01*
X70520328Y-74549728D01*
X70436562Y-74398164D01*
X70368534Y-74275076D01*
X70362413Y-74262366D01*
X70242320Y-73972436D01*
X70237654Y-73959102D01*
X70150781Y-73657560D01*
X70147637Y-73643784D01*
X70142838Y-73615541D01*
X70095074Y-73334414D01*
X70093492Y-73320374D01*
X70075698Y-73003525D01*
X70075500Y-72996460D01*
X70075500Y-52140182D01*
X73824500Y-52140182D01*
X73824500Y-52142778D01*
X73824500Y-52359820D01*
X73853166Y-52577568D01*
X73853168Y-52577575D01*
X73910014Y-52789727D01*
X73937047Y-52854990D01*
X73994063Y-52992641D01*
X73994068Y-52992650D01*
X74103881Y-53182851D01*
X74237585Y-53357098D01*
X74237604Y-53357119D01*
X74392880Y-53512395D01*
X74392890Y-53512404D01*
X74392896Y-53512410D01*
X74392899Y-53512412D01*
X74392901Y-53512414D01*
X74414480Y-53528972D01*
X74550165Y-53633087D01*
X74567148Y-53646118D01*
X74570595Y-53648108D01*
X74757355Y-53755935D01*
X74960273Y-53839986D01*
X75172425Y-53896832D01*
X75172429Y-53896832D01*
X75172431Y-53896833D01*
X75228552Y-53904221D01*
X75390182Y-53925500D01*
X75390189Y-53925500D01*
X75609811Y-53925500D01*
X75609818Y-53925500D01*
X75806614Y-53899591D01*
X75827568Y-53896833D01*
X75827568Y-53896832D01*
X75827575Y-53896832D01*
X76039727Y-53839986D01*
X76242645Y-53755935D01*
X76432855Y-53646116D01*
X76607104Y-53512410D01*
X76762410Y-53357104D01*
X76896116Y-53182855D01*
X77005935Y-52992645D01*
X77089986Y-52789727D01*
X77146832Y-52577575D01*
X77175500Y-52359818D01*
X77175500Y-52140182D01*
X77146832Y-51922425D01*
X77089986Y-51710273D01*
X77005935Y-51507355D01*
X76896116Y-51317145D01*
X76762410Y-51142896D01*
X76762404Y-51142890D01*
X76762395Y-51142880D01*
X76607119Y-50987604D01*
X76607098Y-50987585D01*
X76432851Y-50853881D01*
X76242650Y-50744068D01*
X76242641Y-50744063D01*
X76093950Y-50682474D01*
X76039727Y-50660014D01*
X75827575Y-50603168D01*
X75827568Y-50603166D01*
X75609820Y-50574500D01*
X75609818Y-50574500D01*
X75390182Y-50574500D01*
X75390179Y-50574500D01*
X75172431Y-50603166D01*
X74960273Y-50660014D01*
X74757358Y-50744063D01*
X74757349Y-50744068D01*
X74567148Y-50853881D01*
X74392901Y-50987585D01*
X74392880Y-50987604D01*
X74237604Y-51142880D01*
X74237585Y-51142901D01*
X74103881Y-51317148D01*
X73994068Y-51507349D01*
X73994063Y-51507358D01*
X73910014Y-51710273D01*
X73853166Y-51922432D01*
X73831764Y-52085004D01*
X73825789Y-52130389D01*
X73824500Y-52140182D01*
X70075500Y-52140182D01*
X70075500Y-44003539D01*
X70075698Y-43996474D01*
X70093492Y-43679625D01*
X70095074Y-43665585D01*
X70120111Y-43518225D01*
X70147639Y-43356205D01*
X70150778Y-43342451D01*
X70237656Y-43040888D01*
X70242317Y-43027568D01*
X70362416Y-42737626D01*
X70368530Y-42724930D01*
X70520335Y-42450258D01*
X70527845Y-42438307D01*
X70709446Y-42182365D01*
X70718244Y-42171333D01*
X70927351Y-41937341D01*
X70937342Y-41927351D01*
X71171333Y-41718244D01*
X71182365Y-41709446D01*
X71438313Y-41527841D01*
X71450258Y-41520335D01*
X71724930Y-41368530D01*
X71737626Y-41362416D01*
X72027568Y-41242317D01*
X72040888Y-41237656D01*
X72342451Y-41150778D01*
X72356205Y-41147639D01*
X72665586Y-41095073D01*
X72679620Y-41093492D01*
X72996474Y-41075697D01*
X73003539Y-41075500D01*
X73024531Y-41075500D01*
X99674000Y-41075500D01*
X99742121Y-41095502D01*
G37*
%TD.AperFunction*%
%TA.AperFunction,Conductor*%
G36*
X125404075Y-66632993D02*
G01*
X125469901Y-66747007D01*
X125562993Y-66840099D01*
X125677007Y-66905925D01*
X125745051Y-66924157D01*
X125105831Y-67563378D01*
X125158247Y-67601461D01*
X125159566Y-67602270D01*
X125159962Y-67602708D01*
X125162258Y-67604376D01*
X125161907Y-67604858D01*
X125207199Y-67654915D01*
X125218809Y-67724956D01*
X125190708Y-67790155D01*
X125161925Y-67815098D01*
X125161996Y-67815196D01*
X125160862Y-67816019D01*
X125159580Y-67817131D01*
X125157998Y-67818100D01*
X124984993Y-67943796D01*
X124984990Y-67943798D01*
X124833798Y-68094990D01*
X124833796Y-68094993D01*
X124708108Y-68267987D01*
X124707434Y-68269088D01*
X124707068Y-68269418D01*
X124705196Y-68271996D01*
X124704654Y-68271602D01*
X124654787Y-68316721D01*
X124584745Y-68328328D01*
X124519547Y-68300226D01*
X124494976Y-68271870D01*
X124494804Y-68271996D01*
X124493341Y-68269982D01*
X124492566Y-68269088D01*
X124491896Y-68267996D01*
X124491894Y-68267991D01*
X124366206Y-68094996D01*
X124366203Y-68094993D01*
X124366201Y-68094990D01*
X124215009Y-67943798D01*
X124215006Y-67943796D01*
X124215004Y-67943794D01*
X124145806Y-67893518D01*
X124042006Y-67818103D01*
X124040427Y-67817136D01*
X124039952Y-67816611D01*
X124038004Y-67815196D01*
X124038301Y-67814786D01*
X123992797Y-67764488D01*
X123981191Y-67694446D01*
X124009296Y-67629249D01*
X124037843Y-67604517D01*
X124037741Y-67604377D01*
X124039384Y-67603182D01*
X124040451Y-67602259D01*
X124041756Y-67601459D01*
X124094167Y-67563378D01*
X124094167Y-67563376D01*
X123454948Y-66924157D01*
X123522993Y-66905925D01*
X123637007Y-66840099D01*
X123730099Y-66747007D01*
X123795925Y-66632993D01*
X123814157Y-66564948D01*
X124453376Y-67204167D01*
X124453378Y-67204167D01*
X124491463Y-67151750D01*
X124492562Y-67149958D01*
X124493158Y-67149418D01*
X124494377Y-67147741D01*
X124494729Y-67147996D01*
X124545206Y-67102322D01*
X124615246Y-67090710D01*
X124680446Y-67118808D01*
X124705559Y-67147788D01*
X124705624Y-67147742D01*
X124706165Y-67148487D01*
X124707433Y-67149950D01*
X124708535Y-67151749D01*
X124746620Y-67204167D01*
X124746621Y-67204168D01*
X125385841Y-66564947D01*
X125404075Y-66632993D01*
G37*
%TD.AperFunction*%
%TA.AperFunction,Conductor*%
G36*
X88023171Y-63108502D02*
G01*
X88044145Y-63125405D01*
X91880231Y-66961491D01*
X91944883Y-67004690D01*
X91988083Y-67033555D01*
X91999015Y-67038083D01*
X92007338Y-67041530D01*
X92007344Y-67041534D01*
X92107916Y-67083193D01*
X92107921Y-67083194D01*
X92107923Y-67083195D01*
X92107927Y-67083195D01*
X92107928Y-67083196D01*
X92214035Y-67104301D01*
X92214041Y-67104302D01*
X92235143Y-67108500D01*
X92235144Y-67108500D01*
X92364857Y-67108500D01*
X101752295Y-67108500D01*
X101820416Y-67128502D01*
X101854230Y-67160438D01*
X101973794Y-67325004D01*
X101973796Y-67325006D01*
X101973798Y-67325009D01*
X102124990Y-67476201D01*
X102124993Y-67476203D01*
X102124996Y-67476206D01*
X102297991Y-67601894D01*
X102297996Y-67601896D01*
X102299088Y-67602566D01*
X102299418Y-67602931D01*
X102301996Y-67604804D01*
X102301602Y-67605345D01*
X102346721Y-67655213D01*
X102358328Y-67725255D01*
X102330226Y-67790453D01*
X102301870Y-67815023D01*
X102301996Y-67815196D01*
X102299982Y-67816658D01*
X102299088Y-67817434D01*
X102297987Y-67818108D01*
X102124995Y-67943794D01*
X102092865Y-67975925D01*
X102034193Y-68034596D01*
X101971884Y-68068620D01*
X101945100Y-68071500D01*
X92108503Y-68071500D01*
X92040382Y-68051498D01*
X92019408Y-68034595D01*
X88249140Y-64264326D01*
X88249134Y-64264321D01*
X88179983Y-64218116D01*
X88100336Y-64164897D01*
X87935000Y-64096413D01*
X87759481Y-64061500D01*
X87759479Y-64061500D01*
X87114900Y-64061500D01*
X87046779Y-64041498D01*
X87025809Y-64024599D01*
X86935004Y-63933794D01*
X86762009Y-63808106D01*
X86762007Y-63808105D01*
X86760920Y-63807439D01*
X86760591Y-63807075D01*
X86758004Y-63805196D01*
X86758398Y-63804652D01*
X86713283Y-63754796D01*
X86701670Y-63684756D01*
X86729766Y-63619555D01*
X86758130Y-63594978D01*
X86758004Y-63594804D01*
X86760030Y-63593331D01*
X86760920Y-63592561D01*
X86761997Y-63591899D01*
X86762009Y-63591894D01*
X86935004Y-63466206D01*
X87086206Y-63315004D01*
X87211894Y-63142009D01*
X87213035Y-63140439D01*
X87269257Y-63097085D01*
X87314971Y-63088500D01*
X87955050Y-63088500D01*
X88023171Y-63108502D01*
G37*
%TD.AperFunction*%
%TA.AperFunction,Conductor*%
G36*
X124680445Y-64579766D02*
G01*
X124705021Y-64608130D01*
X124705196Y-64608004D01*
X124706668Y-64610030D01*
X124707439Y-64610920D01*
X124708105Y-64612007D01*
X124708106Y-64612009D01*
X124833794Y-64785004D01*
X124833796Y-64785006D01*
X124833798Y-64785009D01*
X124984990Y-64936201D01*
X124984993Y-64936203D01*
X124984996Y-64936206D01*
X125157991Y-65061894D01*
X125158001Y-65061899D01*
X125159567Y-65062859D01*
X125160042Y-65063384D01*
X125161996Y-65064804D01*
X125161697Y-65065214D01*
X125207200Y-65115505D01*
X125218808Y-65185546D01*
X125190707Y-65250745D01*
X125162157Y-65275484D01*
X125162259Y-65275624D01*
X125160639Y-65276800D01*
X125159574Y-65277724D01*
X125158261Y-65278528D01*
X125105831Y-65316621D01*
X125105831Y-65316622D01*
X125745051Y-65955842D01*
X125677007Y-65974075D01*
X125562993Y-66039901D01*
X125469901Y-66132993D01*
X125404075Y-66247007D01*
X125385842Y-66315051D01*
X124746622Y-65675831D01*
X124746621Y-65675831D01*
X124708522Y-65728269D01*
X124707422Y-65730065D01*
X124706827Y-65730603D01*
X124705624Y-65732259D01*
X124705275Y-65732006D01*
X124654768Y-65777689D01*
X124584725Y-65789286D01*
X124519531Y-65761174D01*
X124494440Y-65732211D01*
X124494376Y-65732258D01*
X124493830Y-65731506D01*
X124492563Y-65730044D01*
X124491462Y-65728248D01*
X124453378Y-65675831D01*
X123814157Y-66315051D01*
X123795925Y-66247007D01*
X123730099Y-66132993D01*
X123637007Y-66039901D01*
X123522993Y-65974075D01*
X123454947Y-65955841D01*
X124094168Y-65316621D01*
X124094167Y-65316620D01*
X124041750Y-65278536D01*
X124040428Y-65277726D01*
X124040030Y-65277286D01*
X124037742Y-65275624D01*
X124038091Y-65275143D01*
X123992797Y-65225078D01*
X123981191Y-65155036D01*
X124009295Y-65089839D01*
X124038075Y-65064903D01*
X124038004Y-65064804D01*
X124039158Y-65063965D01*
X124040441Y-65062854D01*
X124041992Y-65061902D01*
X124042009Y-65061894D01*
X124215004Y-64936206D01*
X124366206Y-64785004D01*
X124491894Y-64612009D01*
X124491899Y-64611997D01*
X124492561Y-64610920D01*
X124492924Y-64610591D01*
X124494804Y-64608004D01*
X124495347Y-64608398D01*
X124545204Y-64563283D01*
X124615244Y-64551670D01*
X124680445Y-64579766D01*
G37*
%TD.AperFunction*%
%TA.AperFunction,Conductor*%
G36*
X88633171Y-60568502D02*
G01*
X88654145Y-60585405D01*
X92676426Y-64607687D01*
X92676429Y-64607689D01*
X92680231Y-64611491D01*
X92740684Y-64651884D01*
X92788083Y-64683555D01*
X92907923Y-64733194D01*
X93035143Y-64758500D01*
X101075049Y-64758500D01*
X101143170Y-64778502D01*
X101164144Y-64795404D01*
X101527712Y-65158972D01*
X101876634Y-65507893D01*
X101892992Y-65537852D01*
X101910024Y-65567436D01*
X101909951Y-65568911D01*
X101910659Y-65570206D01*
X101908224Y-65604244D01*
X101906558Y-65638348D01*
X101905663Y-65640059D01*
X101905595Y-65641021D01*
X101890085Y-65670204D01*
X101889789Y-65670617D01*
X101848106Y-65727991D01*
X101846309Y-65731515D01*
X101841170Y-65738715D01*
X101816574Y-65758007D01*
X101793407Y-65778967D01*
X101788391Y-65780114D01*
X101785308Y-65782533D01*
X101772575Y-65783732D01*
X101738624Y-65791500D01*
X92624950Y-65791500D01*
X92556829Y-65771498D01*
X92535855Y-65754595D01*
X88699773Y-61918513D01*
X88699769Y-61918509D01*
X88591917Y-61846445D01*
X88591062Y-61846091D01*
X88472080Y-61796807D01*
X88472077Y-61796806D01*
X88344860Y-61771500D01*
X88344857Y-61771500D01*
X87314971Y-61771500D01*
X87246850Y-61751498D01*
X87213035Y-61719561D01*
X87176630Y-61669454D01*
X87086206Y-61544996D01*
X87086203Y-61544993D01*
X87086201Y-61544990D01*
X86935009Y-61393798D01*
X86935006Y-61393796D01*
X86935004Y-61393794D01*
X86776063Y-61278317D01*
X86762012Y-61268108D01*
X86760920Y-61267439D01*
X86760591Y-61267075D01*
X86758004Y-61265196D01*
X86758398Y-61264652D01*
X86713283Y-61214796D01*
X86701670Y-61144756D01*
X86729766Y-61079555D01*
X86758130Y-61054978D01*
X86758004Y-61054804D01*
X86760030Y-61053331D01*
X86760920Y-61052561D01*
X86761997Y-61051899D01*
X86762009Y-61051894D01*
X86935004Y-60926206D01*
X87086206Y-60775004D01*
X87195593Y-60624446D01*
X87213035Y-60600439D01*
X87269257Y-60557085D01*
X87314971Y-60548500D01*
X88565050Y-60548500D01*
X88633171Y-60568502D01*
G37*
%TD.AperFunction*%
%TA.AperFunction,Conductor*%
G36*
X89143171Y-58028502D02*
G01*
X89164145Y-58045405D01*
X91035241Y-59916500D01*
X92888510Y-61769769D01*
X92980231Y-61861490D01*
X93088083Y-61933555D01*
X93207923Y-61983194D01*
X93335143Y-62008500D01*
X101738624Y-62008500D01*
X101806745Y-62028502D01*
X101846056Y-62068664D01*
X101848106Y-62072009D01*
X101973794Y-62245004D01*
X101973796Y-62245006D01*
X101973798Y-62245009D01*
X102124990Y-62396201D01*
X102124993Y-62396203D01*
X102124996Y-62396206D01*
X102297991Y-62521894D01*
X102297996Y-62521896D01*
X102299088Y-62522566D01*
X102299418Y-62522931D01*
X102301996Y-62524804D01*
X102301602Y-62525345D01*
X102346721Y-62575213D01*
X102358328Y-62645255D01*
X102330226Y-62710453D01*
X102301870Y-62735023D01*
X102301996Y-62735196D01*
X102299982Y-62736658D01*
X102299088Y-62737434D01*
X102297987Y-62738108D01*
X102124993Y-62863796D01*
X102124990Y-62863798D01*
X101973798Y-63014990D01*
X101973796Y-63014993D01*
X101848108Y-63187987D01*
X101751027Y-63378519D01*
X101748829Y-63385283D01*
X101708750Y-63443885D01*
X101643351Y-63471516D01*
X101598262Y-63467440D01*
X101598148Y-63468014D01*
X101592770Y-63466944D01*
X101592435Y-63466914D01*
X101592085Y-63466808D01*
X101592078Y-63466806D01*
X101592077Y-63466806D01*
X101540371Y-63456520D01*
X101464860Y-63441500D01*
X101464857Y-63441500D01*
X93424950Y-63441500D01*
X93356829Y-63421498D01*
X93335855Y-63404595D01*
X89309773Y-59378513D01*
X89309769Y-59378509D01*
X89201917Y-59306445D01*
X89106509Y-59266926D01*
X89082080Y-59256807D01*
X89082077Y-59256806D01*
X88954860Y-59231500D01*
X88954857Y-59231500D01*
X87314971Y-59231500D01*
X87246850Y-59211498D01*
X87213035Y-59179561D01*
X87141462Y-59081050D01*
X87086206Y-59004996D01*
X87086203Y-59004993D01*
X87086201Y-59004990D01*
X86935009Y-58853798D01*
X86935006Y-58853796D01*
X86935004Y-58853794D01*
X86762009Y-58728106D01*
X86762007Y-58728105D01*
X86760920Y-58727439D01*
X86760591Y-58727075D01*
X86758004Y-58725196D01*
X86758398Y-58724652D01*
X86713283Y-58674796D01*
X86701670Y-58604756D01*
X86729766Y-58539555D01*
X86758130Y-58514978D01*
X86758004Y-58514804D01*
X86760030Y-58513331D01*
X86760920Y-58512561D01*
X86761997Y-58511899D01*
X86762009Y-58511894D01*
X86935004Y-58386206D01*
X87086206Y-58235004D01*
X87211894Y-58062009D01*
X87213035Y-58060439D01*
X87269257Y-58017085D01*
X87314971Y-58008500D01*
X89075050Y-58008500D01*
X89143171Y-58028502D01*
G37*
%TD.AperFunction*%
%TA.AperFunction,Conductor*%
G36*
X89843171Y-55478502D02*
G01*
X89864145Y-55495405D01*
X93588510Y-59219769D01*
X93680231Y-59311490D01*
X93788083Y-59383555D01*
X93907923Y-59433194D01*
X94035143Y-59458500D01*
X101733439Y-59458500D01*
X101801560Y-59478502D01*
X101845706Y-59527298D01*
X101848106Y-59532009D01*
X101848108Y-59532012D01*
X101868387Y-59559924D01*
X101973794Y-59705004D01*
X101973796Y-59705006D01*
X101973798Y-59705009D01*
X102124990Y-59856201D01*
X102124993Y-59856203D01*
X102124996Y-59856206D01*
X102297991Y-59981894D01*
X102297996Y-59981896D01*
X102299088Y-59982566D01*
X102299418Y-59982931D01*
X102301996Y-59984804D01*
X102301602Y-59985345D01*
X102346721Y-60035213D01*
X102358328Y-60105255D01*
X102330226Y-60170453D01*
X102301870Y-60195023D01*
X102301996Y-60195196D01*
X102299982Y-60196658D01*
X102299088Y-60197434D01*
X102297987Y-60198108D01*
X102124993Y-60323796D01*
X102124990Y-60323798D01*
X101973798Y-60474990D01*
X101973796Y-60474993D01*
X101973794Y-60474996D01*
X101858273Y-60633998D01*
X101854231Y-60639561D01*
X101798009Y-60682915D01*
X101752295Y-60691500D01*
X93724949Y-60691500D01*
X93656828Y-60671498D01*
X93635854Y-60654595D01*
X91727821Y-58746562D01*
X89819769Y-56838509D01*
X89711917Y-56766445D01*
X89592080Y-56716807D01*
X89592077Y-56716806D01*
X89464860Y-56691500D01*
X89464857Y-56691500D01*
X87314971Y-56691500D01*
X87246850Y-56671498D01*
X87213035Y-56639561D01*
X87176630Y-56589454D01*
X87086206Y-56464996D01*
X87086203Y-56464993D01*
X87086201Y-56464990D01*
X86935009Y-56313798D01*
X86935006Y-56313796D01*
X86935004Y-56313794D01*
X86762009Y-56188106D01*
X86762007Y-56188105D01*
X86760920Y-56187439D01*
X86760591Y-56187075D01*
X86758004Y-56185196D01*
X86758398Y-56184652D01*
X86713283Y-56134796D01*
X86701670Y-56064756D01*
X86729766Y-55999555D01*
X86758130Y-55974978D01*
X86758004Y-55974804D01*
X86760030Y-55973331D01*
X86760920Y-55972561D01*
X86761997Y-55971899D01*
X86762009Y-55971894D01*
X86935004Y-55846206D01*
X87086206Y-55695004D01*
X87211894Y-55522009D01*
X87211898Y-55521999D01*
X87213944Y-55518664D01*
X87266593Y-55471033D01*
X87321376Y-55458500D01*
X89775050Y-55458500D01*
X89843171Y-55478502D01*
G37*
%TD.AperFunction*%
%TA.AperFunction,Conductor*%
G36*
X90953171Y-52928502D02*
G01*
X90974145Y-52945405D01*
X94698510Y-56669769D01*
X94790231Y-56761490D01*
X94898083Y-56833555D01*
X95017923Y-56883194D01*
X95145143Y-56908500D01*
X99545050Y-56908500D01*
X99613171Y-56928502D01*
X99634145Y-56945405D01*
X100615145Y-57926405D01*
X100649171Y-57988717D01*
X100644106Y-58059532D01*
X100601559Y-58116368D01*
X100535039Y-58141179D01*
X100526050Y-58141500D01*
X94424949Y-58141500D01*
X94356828Y-58121498D01*
X94335854Y-58104595D01*
X90519773Y-54288513D01*
X90519772Y-54288512D01*
X90519769Y-54288509D01*
X90411917Y-54216445D01*
X90375991Y-54201564D01*
X90292080Y-54166807D01*
X90292077Y-54166806D01*
X90164860Y-54141500D01*
X90164857Y-54141500D01*
X87307705Y-54141500D01*
X87239584Y-54121498D01*
X87205769Y-54089561D01*
X87086206Y-53924996D01*
X87086203Y-53924993D01*
X87086201Y-53924990D01*
X86935009Y-53773798D01*
X86935006Y-53773796D01*
X86935004Y-53773794D01*
X86762009Y-53648106D01*
X86762007Y-53648105D01*
X86760920Y-53647439D01*
X86760591Y-53647075D01*
X86758004Y-53645196D01*
X86758398Y-53644652D01*
X86713283Y-53594796D01*
X86701670Y-53524756D01*
X86729766Y-53459555D01*
X86758130Y-53434978D01*
X86758004Y-53434804D01*
X86760030Y-53433331D01*
X86760920Y-53432561D01*
X86761997Y-53431899D01*
X86762009Y-53431894D01*
X86935004Y-53306206D01*
X87086206Y-53155004D01*
X87211894Y-52982009D01*
X87214293Y-52977299D01*
X87263039Y-52925684D01*
X87326561Y-52908500D01*
X90885050Y-52908500D01*
X90953171Y-52928502D01*
G37*
%TD.AperFunction*%
%TA.AperFunction,Conductor*%
G36*
X96963527Y-50383502D02*
G01*
X96984501Y-50400405D01*
X99576161Y-52992067D01*
X99576167Y-52992072D01*
X99679925Y-53061401D01*
X99761447Y-53095168D01*
X99795215Y-53109155D01*
X99917606Y-53133500D01*
X99917607Y-53133500D01*
X100042394Y-53133500D01*
X101605228Y-53133500D01*
X101673349Y-53153502D01*
X101719842Y-53207158D01*
X101729946Y-53277432D01*
X101725061Y-53298436D01*
X101684952Y-53421878D01*
X101684951Y-53421883D01*
X101684951Y-53421884D01*
X101651500Y-53633084D01*
X101651500Y-53846916D01*
X101684951Y-54058116D01*
X101684952Y-54058121D01*
X101744210Y-54240500D01*
X101751028Y-54261483D01*
X101848106Y-54452009D01*
X101973794Y-54625004D01*
X101973796Y-54625006D01*
X101973798Y-54625009D01*
X102124990Y-54776201D01*
X102124993Y-54776203D01*
X102124996Y-54776206D01*
X102297991Y-54901894D01*
X102297996Y-54901896D01*
X102299088Y-54902566D01*
X102299418Y-54902931D01*
X102301996Y-54904804D01*
X102301602Y-54905345D01*
X102346721Y-54955213D01*
X102358328Y-55025255D01*
X102330226Y-55090453D01*
X102301870Y-55115023D01*
X102301996Y-55115196D01*
X102299982Y-55116658D01*
X102299088Y-55117434D01*
X102297987Y-55118108D01*
X102124993Y-55243796D01*
X102124990Y-55243798D01*
X101973798Y-55394990D01*
X101973796Y-55394993D01*
X101848108Y-55567987D01*
X101751029Y-55758515D01*
X101751026Y-55758521D01*
X101684952Y-55961878D01*
X101684951Y-55961883D01*
X101684951Y-55961884D01*
X101651500Y-56173084D01*
X101651500Y-56386916D01*
X101663867Y-56464996D01*
X101684952Y-56598121D01*
X101708232Y-56669769D01*
X101723515Y-56716807D01*
X101726686Y-56726564D01*
X101727502Y-56755134D01*
X101731571Y-56783432D01*
X101728503Y-56790149D01*
X101728714Y-56797532D01*
X101713950Y-56822013D01*
X101702077Y-56848012D01*
X101695865Y-56852004D01*
X101692051Y-56858329D01*
X101666395Y-56870943D01*
X101642351Y-56886396D01*
X101631915Y-56887896D01*
X101628339Y-56889655D01*
X101606853Y-56891500D01*
X101494950Y-56891500D01*
X101426829Y-56871498D01*
X101405855Y-56854595D01*
X100289773Y-55738513D01*
X100289769Y-55738509D01*
X100181917Y-55666445D01*
X100142261Y-55650019D01*
X100062080Y-55616807D01*
X100062077Y-55616806D01*
X99934860Y-55591500D01*
X99934857Y-55591500D01*
X95534949Y-55591500D01*
X95466828Y-55571498D01*
X95445854Y-55554595D01*
X93549713Y-53658454D01*
X91629769Y-51738509D01*
X91521917Y-51666445D01*
X91402080Y-51616807D01*
X91402077Y-51616806D01*
X91274860Y-51591500D01*
X91274857Y-51591500D01*
X87300440Y-51591500D01*
X87232319Y-51571498D01*
X87198504Y-51539561D01*
X87135941Y-51453451D01*
X87086206Y-51384996D01*
X87086203Y-51384993D01*
X87086201Y-51384990D01*
X86935009Y-51233798D01*
X86935006Y-51233796D01*
X86935004Y-51233794D01*
X86762009Y-51108106D01*
X86762007Y-51108105D01*
X86760920Y-51107439D01*
X86760591Y-51107075D01*
X86758004Y-51105196D01*
X86758398Y-51104652D01*
X86713283Y-51054796D01*
X86701670Y-50984756D01*
X86729766Y-50919555D01*
X86758130Y-50894978D01*
X86758004Y-50894804D01*
X86760030Y-50893331D01*
X86760920Y-50892561D01*
X86761997Y-50891899D01*
X86762009Y-50891894D01*
X86935004Y-50766206D01*
X87086206Y-50615004D01*
X87211894Y-50442009D01*
X87216844Y-50432294D01*
X87265593Y-50380680D01*
X87329109Y-50363500D01*
X96895406Y-50363500D01*
X96963527Y-50383502D01*
G37*
%TD.AperFunction*%
%TA.AperFunction,Conductor*%
G36*
X109063385Y-55645307D02*
G01*
X109067258Y-55647112D01*
X109067262Y-55647115D01*
X109235574Y-55702887D01*
X109339455Y-55713500D01*
X110740544Y-55713499D01*
X110844426Y-55702887D01*
X111012738Y-55647115D01*
X111012743Y-55647112D01*
X111016615Y-55645307D01*
X111069868Y-55633500D01*
X121938225Y-55633500D01*
X122006346Y-55653502D01*
X122052839Y-55707158D01*
X122062943Y-55777432D01*
X122058058Y-55798436D01*
X122004952Y-55961878D01*
X122004951Y-55961883D01*
X122004951Y-55961884D01*
X121971500Y-56173084D01*
X121971500Y-56386916D01*
X121983867Y-56464996D01*
X122004952Y-56598121D01*
X122028232Y-56669769D01*
X122043515Y-56716807D01*
X122046686Y-56726564D01*
X122048714Y-56797532D01*
X122012051Y-56858329D01*
X121948339Y-56889655D01*
X121926853Y-56891500D01*
X107144950Y-56891500D01*
X107115029Y-56882714D01*
X107084564Y-56876087D01*
X107079469Y-56872273D01*
X107076829Y-56871498D01*
X107055854Y-56854595D01*
X106910098Y-56708838D01*
X106876073Y-56646526D01*
X106874745Y-56600032D01*
X106875047Y-56598119D01*
X106875049Y-56598116D01*
X106908500Y-56386916D01*
X106908500Y-56173084D01*
X106875049Y-55961884D01*
X106821941Y-55798435D01*
X106819915Y-55727468D01*
X106856577Y-55666671D01*
X106920289Y-55635345D01*
X106941775Y-55633500D01*
X109010132Y-55633500D01*
X109063385Y-55645307D01*
G37*
%TD.AperFunction*%
%TA.AperFunction,Conductor*%
G36*
X122451032Y-49909026D02*
G01*
X122482249Y-49916286D01*
X122484841Y-49918954D01*
X122488411Y-49920002D01*
X122509393Y-49944217D01*
X122531729Y-49967200D01*
X122532467Y-49970846D01*
X122534904Y-49973658D01*
X122539464Y-50005378D01*
X122545828Y-50036783D01*
X122544478Y-50040249D01*
X122545008Y-50043932D01*
X122531694Y-50073082D01*
X122520069Y-50102942D01*
X122516452Y-50106456D01*
X122515514Y-50108512D01*
X122494353Y-50127933D01*
X122459246Y-50153440D01*
X122444993Y-50163796D01*
X122444990Y-50163798D01*
X122293798Y-50314990D01*
X122293796Y-50314993D01*
X122168108Y-50487987D01*
X122071029Y-50678515D01*
X122071026Y-50678521D01*
X122004952Y-50881878D01*
X122004951Y-50881883D01*
X122004951Y-50881884D01*
X121971500Y-51093084D01*
X121971500Y-51306916D01*
X121983867Y-51384996D01*
X122004952Y-51518121D01*
X122071026Y-51721478D01*
X122071028Y-51721483D01*
X122168106Y-51912009D01*
X122293794Y-52085004D01*
X122293796Y-52085006D01*
X122293798Y-52085009D01*
X122444990Y-52236201D01*
X122444993Y-52236203D01*
X122444996Y-52236206D01*
X122617991Y-52361894D01*
X122617996Y-52361896D01*
X122619088Y-52362566D01*
X122619418Y-52362931D01*
X122621996Y-52364804D01*
X122621602Y-52365345D01*
X122666721Y-52415213D01*
X122678328Y-52485255D01*
X122650226Y-52550453D01*
X122621870Y-52575023D01*
X122621996Y-52575196D01*
X122619982Y-52576658D01*
X122619088Y-52577434D01*
X122617987Y-52578108D01*
X122444993Y-52703796D01*
X122444990Y-52703798D01*
X122293798Y-52854990D01*
X122293796Y-52854993D01*
X122168108Y-53027987D01*
X122071029Y-53218515D01*
X122071026Y-53218521D01*
X122004952Y-53421878D01*
X122004951Y-53421883D01*
X122004951Y-53421884D01*
X121971500Y-53633084D01*
X121971500Y-53846916D01*
X122004951Y-54058116D01*
X122004952Y-54058121D01*
X122017907Y-54097991D01*
X122051560Y-54201565D01*
X122053588Y-54272531D01*
X122016925Y-54333329D01*
X121953213Y-54364655D01*
X121931727Y-54366500D01*
X111574499Y-54366500D01*
X111506378Y-54346498D01*
X111459885Y-54292842D01*
X111448499Y-54240500D01*
X111448499Y-54079455D01*
X111437887Y-53975574D01*
X111411795Y-53896832D01*
X111382115Y-53807262D01*
X111289030Y-53656348D01*
X111289029Y-53656347D01*
X111289024Y-53656341D01*
X111163658Y-53530975D01*
X111163652Y-53530970D01*
X111160413Y-53528972D01*
X111012738Y-53437885D01*
X110926288Y-53409239D01*
X110844427Y-53382113D01*
X110844420Y-53382112D01*
X110740553Y-53371500D01*
X109339455Y-53371500D01*
X109235574Y-53382112D01*
X109067261Y-53437885D01*
X108916347Y-53530970D01*
X108916341Y-53530975D01*
X108790975Y-53656341D01*
X108790970Y-53656347D01*
X108697885Y-53807262D01*
X108642113Y-53975572D01*
X108642112Y-53975579D01*
X108631500Y-54079446D01*
X108631500Y-54240500D01*
X108611498Y-54308621D01*
X108557842Y-54355114D01*
X108505500Y-54366500D01*
X106948273Y-54366500D01*
X106880152Y-54346498D01*
X106833659Y-54292842D01*
X106823555Y-54222568D01*
X106828438Y-54201570D01*
X106875049Y-54058116D01*
X106908500Y-53846916D01*
X106908500Y-53633084D01*
X106875049Y-53421884D01*
X106808972Y-53218517D01*
X106711894Y-53027991D01*
X106586206Y-52854996D01*
X106586203Y-52854993D01*
X106586201Y-52854990D01*
X106435009Y-52703798D01*
X106435006Y-52703796D01*
X106435004Y-52703794D01*
X106300246Y-52605887D01*
X106262012Y-52578108D01*
X106260920Y-52577439D01*
X106260591Y-52577075D01*
X106258004Y-52575196D01*
X106258398Y-52574652D01*
X106213283Y-52524796D01*
X106201670Y-52454756D01*
X106229766Y-52389555D01*
X106258130Y-52364978D01*
X106258004Y-52364804D01*
X106260030Y-52363331D01*
X106260920Y-52362561D01*
X106261997Y-52361899D01*
X106262009Y-52361894D01*
X106435004Y-52236206D01*
X106586206Y-52085004D01*
X106711894Y-51912009D01*
X106727941Y-51880516D01*
X108632000Y-51880516D01*
X108642605Y-51984318D01*
X108642606Y-51984321D01*
X108698342Y-52152525D01*
X108791365Y-52303339D01*
X108791370Y-52303345D01*
X108916654Y-52428629D01*
X108916660Y-52428634D01*
X109067474Y-52521657D01*
X109235678Y-52577393D01*
X109235681Y-52577394D01*
X109339483Y-52587999D01*
X109339483Y-52588000D01*
X109786000Y-52588000D01*
X110294000Y-52588000D01*
X110740517Y-52588000D01*
X110740516Y-52587999D01*
X110844318Y-52577394D01*
X110844321Y-52577393D01*
X111012525Y-52521657D01*
X111163339Y-52428634D01*
X111163345Y-52428629D01*
X111288629Y-52303345D01*
X111288634Y-52303339D01*
X111381657Y-52152525D01*
X111437393Y-51984321D01*
X111437394Y-51984318D01*
X111447999Y-51880516D01*
X111448000Y-51880516D01*
X111448000Y-51671500D01*
X110294000Y-51671500D01*
X110294000Y-52588000D01*
X109786000Y-52588000D01*
X109786000Y-51671500D01*
X108632000Y-51671500D01*
X108632000Y-51880516D01*
X106727941Y-51880516D01*
X106808972Y-51721483D01*
X106842983Y-51616806D01*
X106854821Y-51580373D01*
X106868183Y-51539248D01*
X106875049Y-51518116D01*
X106908500Y-51306916D01*
X106908500Y-51093084D01*
X106886548Y-50954483D01*
X108632000Y-50954483D01*
X108632000Y-51163500D01*
X109786000Y-51163500D01*
X110294000Y-51163500D01*
X111448000Y-51163500D01*
X111448000Y-50954483D01*
X111437394Y-50850681D01*
X111437393Y-50850678D01*
X111381657Y-50682474D01*
X111288634Y-50531660D01*
X111288629Y-50531654D01*
X111163345Y-50406370D01*
X111163339Y-50406365D01*
X111012525Y-50313342D01*
X110844321Y-50257606D01*
X110844318Y-50257605D01*
X110740516Y-50247000D01*
X110294000Y-50247000D01*
X110294000Y-51163500D01*
X109786000Y-51163500D01*
X109786000Y-50247000D01*
X109339483Y-50247000D01*
X109235681Y-50257605D01*
X109235678Y-50257606D01*
X109067474Y-50313342D01*
X108916660Y-50406365D01*
X108916654Y-50406370D01*
X108791370Y-50531654D01*
X108791365Y-50531660D01*
X108698342Y-50682474D01*
X108642606Y-50850678D01*
X108642605Y-50850681D01*
X108632000Y-50954483D01*
X106886548Y-50954483D01*
X106875049Y-50881884D01*
X106808972Y-50678517D01*
X106711894Y-50487991D01*
X106586206Y-50314996D01*
X106586203Y-50314993D01*
X106586201Y-50314990D01*
X106435009Y-50163798D01*
X106435006Y-50163796D01*
X106435004Y-50163794D01*
X106385648Y-50127934D01*
X106342295Y-50071714D01*
X106336220Y-50000978D01*
X106369351Y-49938186D01*
X106431171Y-49903275D01*
X106459710Y-49900000D01*
X122420290Y-49900000D01*
X122451032Y-49909026D01*
G37*
%TD.AperFunction*%
M02*
