%TF.GenerationSoftware,KiCad,Pcbnew,9.0.4*%
%TF.CreationDate,2025-12-11T10:44:19+01:00*%
%TF.ProjectId,pvmeter,70766d65-7465-4722-9e6b-696361645f70,1.4*%
%TF.SameCoordinates,Original*%
%TF.FileFunction,Legend,Top*%
%TF.FilePolarity,Positive*%
%FSLAX46Y46*%
G04 Gerber Fmt 4.6, Leading zero omitted, Abs format (unit mm)*
G04 Created by KiCad (PCBNEW 9.0.4) date 2025-12-11 10:44:19*
%MOMM*%
%LPD*%
G01*
G04 APERTURE LIST*
G04 Aperture macros list*
%AMRoundRect*
0 Rectangle with rounded corners*
0 $1 Rounding radius*
0 $2 $3 $4 $5 $6 $7 $8 $9 X,Y pos of 4 corners*
0 Add a 4 corners polygon primitive as box body*
4,1,4,$2,$3,$4,$5,$6,$7,$8,$9,$2,$3,0*
0 Add four circle primitives for the rounded corners*
1,1,$1+$1,$2,$3*
1,1,$1+$1,$4,$5*
1,1,$1+$1,$6,$7*
1,1,$1+$1,$8,$9*
0 Add four rect primitives between the rounded corners*
20,1,$1+$1,$2,$3,$4,$5,0*
20,1,$1+$1,$4,$5,$6,$7,0*
20,1,$1+$1,$6,$7,$8,$9,0*
20,1,$1+$1,$8,$9,$2,$3,0*%
%AMFreePoly0*
4,1,19,-0.850000,0.510000,-0.510000,0.850000,0.255000,0.850000,0.408997,0.829726,0.552500,0.770285,0.675729,0.675729,0.770285,0.552500,0.829726,0.408997,0.850000,0.255000,0.850000,-0.510000,0.510000,-0.850000,-0.255000,-0.850000,-0.408997,-0.829726,-0.552500,-0.770285,-0.675729,-0.675729,-0.770285,-0.552500,-0.829726,-0.408997,-0.850000,-0.255000,-0.850000,0.510000,-0.850000,0.510000,
$1*%
G04 Aperture macros list end*
%ADD10C,0.150000*%
%ADD11C,0.600000*%
%ADD12C,0.800000*%
%ADD13C,0.120000*%
%ADD14C,0.200000*%
%ADD15C,0.700000*%
%ADD16R,1.600000X1.600000*%
%ADD17C,1.600000*%
%ADD18RoundRect,0.250000X0.625000X-0.312500X0.625000X0.312500X-0.625000X0.312500X-0.625000X-0.312500X0*%
%ADD19R,2.200000X2.500000*%
%ADD20R,2.200000X1.550000*%
%ADD21RoundRect,0.250000X-0.312500X-0.625000X0.312500X-0.625000X0.312500X0.625000X-0.312500X0.625000X0*%
%ADD22C,3.000000*%
%ADD23RoundRect,0.375000X0.375000X-0.625000X0.375000X0.625000X-0.375000X0.625000X-0.375000X-0.625000X0*%
%ADD24RoundRect,0.500000X1.400000X-0.500000X1.400000X0.500000X-1.400000X0.500000X-1.400000X-0.500000X0*%
%ADD25RoundRect,0.250000X-0.650000X0.412500X-0.650000X-0.412500X0.650000X-0.412500X0.650000X0.412500X0*%
%ADD26RoundRect,0.307018X-0.567982X-0.692982X0.567982X-0.692982X0.567982X0.692982X-0.567982X0.692982X0*%
%ADD27RoundRect,0.315790X-0.584210X-0.684210X0.584210X-0.684210X0.584210X0.684210X-0.584210X0.684210X0*%
%ADD28FreePoly0,0.000000*%
%ADD29C,1.700000*%
%ADD30R,1.700000X1.700000*%
%ADD31O,1.700000X1.700000*%
%ADD32RoundRect,0.250000X0.650000X-0.412500X0.650000X0.412500X-0.650000X0.412500X-0.650000X-0.412500X0*%
%ADD33O,2.000000X1.700000*%
%ADD34R,2.000000X1.700000*%
%ADD35R,2.200000X2.200000*%
%ADD36C,2.200000*%
%ADD37RoundRect,0.250000X0.312500X0.625000X-0.312500X0.625000X-0.312500X-0.625000X0.312500X-0.625000X0*%
%ADD38R,1.500000X1.600000*%
%ADD39RoundRect,0.249999X1.425001X-0.512501X1.425001X0.512501X-1.425001X0.512501X-1.425001X-0.512501X0*%
%ADD40R,2.500000X2.200000*%
%ADD41R,1.550000X2.200000*%
%ADD42C,3.100000*%
%ADD43R,3.100000X3.100000*%
G04 APERTURE END LIST*
D10*
X151000000Y-53500000D02*
X161000000Y-53500000D01*
X161000000Y-63500000D01*
X151000000Y-63500000D01*
X151000000Y-53500000D01*
G36*
X151000000Y-53500000D02*
G01*
X161000000Y-53500000D01*
X161000000Y-63500000D01*
X151000000Y-63500000D01*
X151000000Y-53500000D01*
G37*
X216898152Y-88885714D02*
X216898152Y-89123809D01*
X216898152Y-89123809D02*
X215469580Y-89123809D01*
X215469580Y-89123809D02*
X215469580Y-88885714D01*
X216041009Y-87409523D02*
X216041009Y-87742856D01*
X216564819Y-87742856D02*
X215564819Y-87742856D01*
X215564819Y-87742856D02*
X215564819Y-87266666D01*
X215564819Y-86885713D02*
X216374342Y-86885713D01*
X216374342Y-86885713D02*
X216469580Y-86838094D01*
X216469580Y-86838094D02*
X216517200Y-86790475D01*
X216517200Y-86790475D02*
X216564819Y-86695237D01*
X216564819Y-86695237D02*
X216564819Y-86504761D01*
X216564819Y-86504761D02*
X216517200Y-86409523D01*
X216517200Y-86409523D02*
X216469580Y-86361904D01*
X216469580Y-86361904D02*
X216374342Y-86314285D01*
X216374342Y-86314285D02*
X215564819Y-86314285D01*
X216517200Y-85885713D02*
X216564819Y-85742856D01*
X216564819Y-85742856D02*
X216564819Y-85504761D01*
X216564819Y-85504761D02*
X216517200Y-85409523D01*
X216517200Y-85409523D02*
X216469580Y-85361904D01*
X216469580Y-85361904D02*
X216374342Y-85314285D01*
X216374342Y-85314285D02*
X216279104Y-85314285D01*
X216279104Y-85314285D02*
X216183866Y-85361904D01*
X216183866Y-85361904D02*
X216136247Y-85409523D01*
X216136247Y-85409523D02*
X216088628Y-85504761D01*
X216088628Y-85504761D02*
X216041009Y-85695237D01*
X216041009Y-85695237D02*
X215993390Y-85790475D01*
X215993390Y-85790475D02*
X215945771Y-85838094D01*
X215945771Y-85838094D02*
X215850533Y-85885713D01*
X215850533Y-85885713D02*
X215755295Y-85885713D01*
X215755295Y-85885713D02*
X215660057Y-85838094D01*
X215660057Y-85838094D02*
X215612438Y-85790475D01*
X215612438Y-85790475D02*
X215564819Y-85695237D01*
X215564819Y-85695237D02*
X215564819Y-85457142D01*
X215564819Y-85457142D02*
X215612438Y-85314285D01*
X216041009Y-84885713D02*
X216041009Y-84552380D01*
X216564819Y-84409523D02*
X216564819Y-84885713D01*
X216564819Y-84885713D02*
X215564819Y-84885713D01*
X215564819Y-84885713D02*
X215564819Y-84409523D01*
X216898152Y-83314284D02*
X216898152Y-83076189D01*
X216898152Y-83076189D02*
X215469580Y-83076189D01*
X215469580Y-83076189D02*
X215469580Y-83314284D01*
D11*
X108928569Y-90006657D02*
X108928569Y-87006657D01*
X110214284Y-90006657D02*
X110214284Y-88435228D01*
X110214284Y-88435228D02*
X110071426Y-88149514D01*
X110071426Y-88149514D02*
X109785712Y-88006657D01*
X109785712Y-88006657D02*
X109357141Y-88006657D01*
X109357141Y-88006657D02*
X109071426Y-88149514D01*
X109071426Y-88149514D02*
X108928569Y-88292371D01*
X111214284Y-88006657D02*
X112357141Y-88006657D01*
X111642855Y-87006657D02*
X111642855Y-89578085D01*
X111642855Y-89578085D02*
X111785712Y-89863800D01*
X111785712Y-89863800D02*
X112071427Y-90006657D01*
X112071427Y-90006657D02*
X112357141Y-90006657D01*
X112928570Y-88006657D02*
X114071427Y-88006657D01*
X113357141Y-87006657D02*
X113357141Y-89578085D01*
X113357141Y-89578085D02*
X113499998Y-89863800D01*
X113499998Y-89863800D02*
X113785713Y-90006657D01*
X113785713Y-90006657D02*
X114071427Y-90006657D01*
X115071427Y-88006657D02*
X115071427Y-91006657D01*
X115071427Y-88149514D02*
X115357142Y-88006657D01*
X115357142Y-88006657D02*
X115928570Y-88006657D01*
X115928570Y-88006657D02*
X116214284Y-88149514D01*
X116214284Y-88149514D02*
X116357142Y-88292371D01*
X116357142Y-88292371D02*
X116499999Y-88578085D01*
X116499999Y-88578085D02*
X116499999Y-89435228D01*
X116499999Y-89435228D02*
X116357142Y-89720942D01*
X116357142Y-89720942D02*
X116214284Y-89863800D01*
X116214284Y-89863800D02*
X115928570Y-90006657D01*
X115928570Y-90006657D02*
X115357142Y-90006657D01*
X115357142Y-90006657D02*
X115071427Y-89863800D01*
X117642856Y-89863800D02*
X117928570Y-90006657D01*
X117928570Y-90006657D02*
X118499999Y-90006657D01*
X118499999Y-90006657D02*
X118785713Y-89863800D01*
X118785713Y-89863800D02*
X118928570Y-89578085D01*
X118928570Y-89578085D02*
X118928570Y-89435228D01*
X118928570Y-89435228D02*
X118785713Y-89149514D01*
X118785713Y-89149514D02*
X118499999Y-89006657D01*
X118499999Y-89006657D02*
X118071428Y-89006657D01*
X118071428Y-89006657D02*
X117785713Y-88863800D01*
X117785713Y-88863800D02*
X117642856Y-88578085D01*
X117642856Y-88578085D02*
X117642856Y-88435228D01*
X117642856Y-88435228D02*
X117785713Y-88149514D01*
X117785713Y-88149514D02*
X118071428Y-88006657D01*
X118071428Y-88006657D02*
X118499999Y-88006657D01*
X118499999Y-88006657D02*
X118785713Y-88149514D01*
X120214284Y-89720942D02*
X120357141Y-89863800D01*
X120357141Y-89863800D02*
X120214284Y-90006657D01*
X120214284Y-90006657D02*
X120071427Y-89863800D01*
X120071427Y-89863800D02*
X120214284Y-89720942D01*
X120214284Y-89720942D02*
X120214284Y-90006657D01*
X120214284Y-88149514D02*
X120357141Y-88292371D01*
X120357141Y-88292371D02*
X120214284Y-88435228D01*
X120214284Y-88435228D02*
X120071427Y-88292371D01*
X120071427Y-88292371D02*
X120214284Y-88149514D01*
X120214284Y-88149514D02*
X120214284Y-88435228D01*
X123785712Y-86863800D02*
X121214284Y-90720942D01*
X126928569Y-86863800D02*
X124357141Y-90720942D01*
X129214284Y-88006657D02*
X129214284Y-90435228D01*
X129214284Y-90435228D02*
X129071426Y-90720942D01*
X129071426Y-90720942D02*
X128928569Y-90863800D01*
X128928569Y-90863800D02*
X128642855Y-91006657D01*
X128642855Y-91006657D02*
X128214284Y-91006657D01*
X128214284Y-91006657D02*
X127928569Y-90863800D01*
X129214284Y-89863800D02*
X128928569Y-90006657D01*
X128928569Y-90006657D02*
X128357141Y-90006657D01*
X128357141Y-90006657D02*
X128071426Y-89863800D01*
X128071426Y-89863800D02*
X127928569Y-89720942D01*
X127928569Y-89720942D02*
X127785712Y-89435228D01*
X127785712Y-89435228D02*
X127785712Y-88578085D01*
X127785712Y-88578085D02*
X127928569Y-88292371D01*
X127928569Y-88292371D02*
X128071426Y-88149514D01*
X128071426Y-88149514D02*
X128357141Y-88006657D01*
X128357141Y-88006657D02*
X128928569Y-88006657D01*
X128928569Y-88006657D02*
X129214284Y-88149514D01*
X130642855Y-90006657D02*
X130642855Y-88006657D01*
X130642855Y-87006657D02*
X130499998Y-87149514D01*
X130499998Y-87149514D02*
X130642855Y-87292371D01*
X130642855Y-87292371D02*
X130785712Y-87149514D01*
X130785712Y-87149514D02*
X130642855Y-87006657D01*
X130642855Y-87006657D02*
X130642855Y-87292371D01*
X131642855Y-88006657D02*
X132785712Y-88006657D01*
X132071426Y-87006657D02*
X132071426Y-89578085D01*
X132071426Y-89578085D02*
X132214283Y-89863800D01*
X132214283Y-89863800D02*
X132499998Y-90006657D01*
X132499998Y-90006657D02*
X132785712Y-90006657D01*
X133785712Y-90006657D02*
X133785712Y-87006657D01*
X135071427Y-90006657D02*
X135071427Y-88435228D01*
X135071427Y-88435228D02*
X134928569Y-88149514D01*
X134928569Y-88149514D02*
X134642855Y-88006657D01*
X134642855Y-88006657D02*
X134214284Y-88006657D01*
X134214284Y-88006657D02*
X133928569Y-88149514D01*
X133928569Y-88149514D02*
X133785712Y-88292371D01*
X137785713Y-88006657D02*
X137785713Y-90006657D01*
X136499998Y-88006657D02*
X136499998Y-89578085D01*
X136499998Y-89578085D02*
X136642855Y-89863800D01*
X136642855Y-89863800D02*
X136928570Y-90006657D01*
X136928570Y-90006657D02*
X137357141Y-90006657D01*
X137357141Y-90006657D02*
X137642855Y-89863800D01*
X137642855Y-89863800D02*
X137785713Y-89720942D01*
X139214284Y-90006657D02*
X139214284Y-87006657D01*
X139214284Y-88149514D02*
X139499999Y-88006657D01*
X139499999Y-88006657D02*
X140071427Y-88006657D01*
X140071427Y-88006657D02*
X140357141Y-88149514D01*
X140357141Y-88149514D02*
X140499999Y-88292371D01*
X140499999Y-88292371D02*
X140642856Y-88578085D01*
X140642856Y-88578085D02*
X140642856Y-89435228D01*
X140642856Y-89435228D02*
X140499999Y-89720942D01*
X140499999Y-89720942D02*
X140357141Y-89863800D01*
X140357141Y-89863800D02*
X140071427Y-90006657D01*
X140071427Y-90006657D02*
X139499999Y-90006657D01*
X139499999Y-90006657D02*
X139214284Y-89863800D01*
X141928570Y-89720942D02*
X142071427Y-89863800D01*
X142071427Y-89863800D02*
X141928570Y-90006657D01*
X141928570Y-90006657D02*
X141785713Y-89863800D01*
X141785713Y-89863800D02*
X141928570Y-89720942D01*
X141928570Y-89720942D02*
X141928570Y-90006657D01*
X144642856Y-89863800D02*
X144357141Y-90006657D01*
X144357141Y-90006657D02*
X143785713Y-90006657D01*
X143785713Y-90006657D02*
X143499998Y-89863800D01*
X143499998Y-89863800D02*
X143357141Y-89720942D01*
X143357141Y-89720942D02*
X143214284Y-89435228D01*
X143214284Y-89435228D02*
X143214284Y-88578085D01*
X143214284Y-88578085D02*
X143357141Y-88292371D01*
X143357141Y-88292371D02*
X143499998Y-88149514D01*
X143499998Y-88149514D02*
X143785713Y-88006657D01*
X143785713Y-88006657D02*
X144357141Y-88006657D01*
X144357141Y-88006657D02*
X144642856Y-88149514D01*
X146357142Y-90006657D02*
X146071427Y-89863800D01*
X146071427Y-89863800D02*
X145928570Y-89720942D01*
X145928570Y-89720942D02*
X145785713Y-89435228D01*
X145785713Y-89435228D02*
X145785713Y-88578085D01*
X145785713Y-88578085D02*
X145928570Y-88292371D01*
X145928570Y-88292371D02*
X146071427Y-88149514D01*
X146071427Y-88149514D02*
X146357142Y-88006657D01*
X146357142Y-88006657D02*
X146785713Y-88006657D01*
X146785713Y-88006657D02*
X147071427Y-88149514D01*
X147071427Y-88149514D02*
X147214285Y-88292371D01*
X147214285Y-88292371D02*
X147357142Y-88578085D01*
X147357142Y-88578085D02*
X147357142Y-89435228D01*
X147357142Y-89435228D02*
X147214285Y-89720942D01*
X147214285Y-89720942D02*
X147071427Y-89863800D01*
X147071427Y-89863800D02*
X146785713Y-90006657D01*
X146785713Y-90006657D02*
X146357142Y-90006657D01*
X148642856Y-90006657D02*
X148642856Y-88006657D01*
X148642856Y-88292371D02*
X148785713Y-88149514D01*
X148785713Y-88149514D02*
X149071428Y-88006657D01*
X149071428Y-88006657D02*
X149499999Y-88006657D01*
X149499999Y-88006657D02*
X149785713Y-88149514D01*
X149785713Y-88149514D02*
X149928571Y-88435228D01*
X149928571Y-88435228D02*
X149928571Y-90006657D01*
X149928571Y-88435228D02*
X150071428Y-88149514D01*
X150071428Y-88149514D02*
X150357142Y-88006657D01*
X150357142Y-88006657D02*
X150785713Y-88006657D01*
X150785713Y-88006657D02*
X151071428Y-88149514D01*
X151071428Y-88149514D02*
X151214285Y-88435228D01*
X151214285Y-88435228D02*
X151214285Y-90006657D01*
X154785713Y-86863800D02*
X152214285Y-90720942D01*
X155642856Y-89863800D02*
X155928570Y-90006657D01*
X155928570Y-90006657D02*
X156499999Y-90006657D01*
X156499999Y-90006657D02*
X156785713Y-89863800D01*
X156785713Y-89863800D02*
X156928570Y-89578085D01*
X156928570Y-89578085D02*
X156928570Y-89435228D01*
X156928570Y-89435228D02*
X156785713Y-89149514D01*
X156785713Y-89149514D02*
X156499999Y-89006657D01*
X156499999Y-89006657D02*
X156071428Y-89006657D01*
X156071428Y-89006657D02*
X155785713Y-88863800D01*
X155785713Y-88863800D02*
X155642856Y-88578085D01*
X155642856Y-88578085D02*
X155642856Y-88435228D01*
X155642856Y-88435228D02*
X155785713Y-88149514D01*
X155785713Y-88149514D02*
X156071428Y-88006657D01*
X156071428Y-88006657D02*
X156499999Y-88006657D01*
X156499999Y-88006657D02*
X156785713Y-88149514D01*
X158642856Y-90006657D02*
X158357141Y-89863800D01*
X158357141Y-89863800D02*
X158214284Y-89720942D01*
X158214284Y-89720942D02*
X158071427Y-89435228D01*
X158071427Y-89435228D02*
X158071427Y-88578085D01*
X158071427Y-88578085D02*
X158214284Y-88292371D01*
X158214284Y-88292371D02*
X158357141Y-88149514D01*
X158357141Y-88149514D02*
X158642856Y-88006657D01*
X158642856Y-88006657D02*
X159071427Y-88006657D01*
X159071427Y-88006657D02*
X159357141Y-88149514D01*
X159357141Y-88149514D02*
X159499999Y-88292371D01*
X159499999Y-88292371D02*
X159642856Y-88578085D01*
X159642856Y-88578085D02*
X159642856Y-89435228D01*
X159642856Y-89435228D02*
X159499999Y-89720942D01*
X159499999Y-89720942D02*
X159357141Y-89863800D01*
X159357141Y-89863800D02*
X159071427Y-90006657D01*
X159071427Y-90006657D02*
X158642856Y-90006657D01*
X161357142Y-90006657D02*
X161071427Y-89863800D01*
X161071427Y-89863800D02*
X160928570Y-89578085D01*
X160928570Y-89578085D02*
X160928570Y-87006657D01*
X163785714Y-90006657D02*
X163785714Y-88435228D01*
X163785714Y-88435228D02*
X163642856Y-88149514D01*
X163642856Y-88149514D02*
X163357142Y-88006657D01*
X163357142Y-88006657D02*
X162785714Y-88006657D01*
X162785714Y-88006657D02*
X162499999Y-88149514D01*
X163785714Y-89863800D02*
X163499999Y-90006657D01*
X163499999Y-90006657D02*
X162785714Y-90006657D01*
X162785714Y-90006657D02*
X162499999Y-89863800D01*
X162499999Y-89863800D02*
X162357142Y-89578085D01*
X162357142Y-89578085D02*
X162357142Y-89292371D01*
X162357142Y-89292371D02*
X162499999Y-89006657D01*
X162499999Y-89006657D02*
X162785714Y-88863800D01*
X162785714Y-88863800D02*
X163499999Y-88863800D01*
X163499999Y-88863800D02*
X163785714Y-88720942D01*
X165214285Y-90006657D02*
X165214285Y-88006657D01*
X165214285Y-88578085D02*
X165357142Y-88292371D01*
X165357142Y-88292371D02*
X165500000Y-88149514D01*
X165500000Y-88149514D02*
X165785714Y-88006657D01*
X165785714Y-88006657D02*
X166071428Y-88006657D01*
X167071428Y-90006657D02*
X167071428Y-87006657D01*
X167071428Y-88149514D02*
X167357143Y-88006657D01*
X167357143Y-88006657D02*
X167928571Y-88006657D01*
X167928571Y-88006657D02*
X168214285Y-88149514D01*
X168214285Y-88149514D02*
X168357143Y-88292371D01*
X168357143Y-88292371D02*
X168500000Y-88578085D01*
X168500000Y-88578085D02*
X168500000Y-89435228D01*
X168500000Y-89435228D02*
X168357143Y-89720942D01*
X168357143Y-89720942D02*
X168214285Y-89863800D01*
X168214285Y-89863800D02*
X167928571Y-90006657D01*
X167928571Y-90006657D02*
X167357143Y-90006657D01*
X167357143Y-90006657D02*
X167071428Y-89863800D01*
X169785714Y-90006657D02*
X169785714Y-88006657D01*
X169785714Y-87006657D02*
X169642857Y-87149514D01*
X169642857Y-87149514D02*
X169785714Y-87292371D01*
X169785714Y-87292371D02*
X169928571Y-87149514D01*
X169928571Y-87149514D02*
X169785714Y-87006657D01*
X169785714Y-87006657D02*
X169785714Y-87292371D01*
X171642857Y-90006657D02*
X171357142Y-89863800D01*
X171357142Y-89863800D02*
X171214285Y-89578085D01*
X171214285Y-89578085D02*
X171214285Y-87006657D01*
X174071429Y-90006657D02*
X174071429Y-87006657D01*
X174071429Y-89863800D02*
X173785714Y-90006657D01*
X173785714Y-90006657D02*
X173214286Y-90006657D01*
X173214286Y-90006657D02*
X172928571Y-89863800D01*
X172928571Y-89863800D02*
X172785714Y-89720942D01*
X172785714Y-89720942D02*
X172642857Y-89435228D01*
X172642857Y-89435228D02*
X172642857Y-88578085D01*
X172642857Y-88578085D02*
X172785714Y-88292371D01*
X172785714Y-88292371D02*
X172928571Y-88149514D01*
X172928571Y-88149514D02*
X173214286Y-88006657D01*
X173214286Y-88006657D02*
X173785714Y-88006657D01*
X173785714Y-88006657D02*
X174071429Y-88149514D01*
X176785715Y-88006657D02*
X176785715Y-90006657D01*
X175500000Y-88006657D02*
X175500000Y-89578085D01*
X175500000Y-89578085D02*
X175642857Y-89863800D01*
X175642857Y-89863800D02*
X175928572Y-90006657D01*
X175928572Y-90006657D02*
X176357143Y-90006657D01*
X176357143Y-90006657D02*
X176642857Y-89863800D01*
X176642857Y-89863800D02*
X176785715Y-89720942D01*
X178214286Y-88006657D02*
X178214286Y-90006657D01*
X178214286Y-88292371D02*
X178357143Y-88149514D01*
X178357143Y-88149514D02*
X178642858Y-88006657D01*
X178642858Y-88006657D02*
X179071429Y-88006657D01*
X179071429Y-88006657D02*
X179357143Y-88149514D01*
X179357143Y-88149514D02*
X179500001Y-88435228D01*
X179500001Y-88435228D02*
X179500001Y-90006657D01*
X182214287Y-88006657D02*
X182214287Y-90435228D01*
X182214287Y-90435228D02*
X182071429Y-90720942D01*
X182071429Y-90720942D02*
X181928572Y-90863800D01*
X181928572Y-90863800D02*
X181642858Y-91006657D01*
X181642858Y-91006657D02*
X181214287Y-91006657D01*
X181214287Y-91006657D02*
X180928572Y-90863800D01*
X182214287Y-89863800D02*
X181928572Y-90006657D01*
X181928572Y-90006657D02*
X181357144Y-90006657D01*
X181357144Y-90006657D02*
X181071429Y-89863800D01*
X181071429Y-89863800D02*
X180928572Y-89720942D01*
X180928572Y-89720942D02*
X180785715Y-89435228D01*
X180785715Y-89435228D02*
X180785715Y-88578085D01*
X180785715Y-88578085D02*
X180928572Y-88292371D01*
X180928572Y-88292371D02*
X181071429Y-88149514D01*
X181071429Y-88149514D02*
X181357144Y-88006657D01*
X181357144Y-88006657D02*
X181928572Y-88006657D01*
X181928572Y-88006657D02*
X182214287Y-88149514D01*
X185785715Y-86863800D02*
X183214287Y-90720942D01*
X186785715Y-88006657D02*
X186785715Y-91006657D01*
X186785715Y-88149514D02*
X187071430Y-88006657D01*
X187071430Y-88006657D02*
X187642858Y-88006657D01*
X187642858Y-88006657D02*
X187928572Y-88149514D01*
X187928572Y-88149514D02*
X188071430Y-88292371D01*
X188071430Y-88292371D02*
X188214287Y-88578085D01*
X188214287Y-88578085D02*
X188214287Y-89435228D01*
X188214287Y-89435228D02*
X188071430Y-89720942D01*
X188071430Y-89720942D02*
X187928572Y-89863800D01*
X187928572Y-89863800D02*
X187642858Y-90006657D01*
X187642858Y-90006657D02*
X187071430Y-90006657D01*
X187071430Y-90006657D02*
X186785715Y-89863800D01*
X189214287Y-88006657D02*
X189928573Y-90006657D01*
X189928573Y-90006657D02*
X190642858Y-88006657D01*
X191785715Y-90006657D02*
X191785715Y-88006657D01*
X191785715Y-88292371D02*
X191928572Y-88149514D01*
X191928572Y-88149514D02*
X192214287Y-88006657D01*
X192214287Y-88006657D02*
X192642858Y-88006657D01*
X192642858Y-88006657D02*
X192928572Y-88149514D01*
X192928572Y-88149514D02*
X193071430Y-88435228D01*
X193071430Y-88435228D02*
X193071430Y-90006657D01*
X193071430Y-88435228D02*
X193214287Y-88149514D01*
X193214287Y-88149514D02*
X193500001Y-88006657D01*
X193500001Y-88006657D02*
X193928572Y-88006657D01*
X193928572Y-88006657D02*
X194214287Y-88149514D01*
X194214287Y-88149514D02*
X194357144Y-88435228D01*
X194357144Y-88435228D02*
X194357144Y-90006657D01*
X196928572Y-89863800D02*
X196642858Y-90006657D01*
X196642858Y-90006657D02*
X196071430Y-90006657D01*
X196071430Y-90006657D02*
X195785715Y-89863800D01*
X195785715Y-89863800D02*
X195642858Y-89578085D01*
X195642858Y-89578085D02*
X195642858Y-88435228D01*
X195642858Y-88435228D02*
X195785715Y-88149514D01*
X195785715Y-88149514D02*
X196071430Y-88006657D01*
X196071430Y-88006657D02*
X196642858Y-88006657D01*
X196642858Y-88006657D02*
X196928572Y-88149514D01*
X196928572Y-88149514D02*
X197071430Y-88435228D01*
X197071430Y-88435228D02*
X197071430Y-88720942D01*
X197071430Y-88720942D02*
X195642858Y-89006657D01*
X197928573Y-88006657D02*
X199071430Y-88006657D01*
X198357144Y-87006657D02*
X198357144Y-89578085D01*
X198357144Y-89578085D02*
X198500001Y-89863800D01*
X198500001Y-89863800D02*
X198785716Y-90006657D01*
X198785716Y-90006657D02*
X199071430Y-90006657D01*
X201214287Y-89863800D02*
X200928573Y-90006657D01*
X200928573Y-90006657D02*
X200357145Y-90006657D01*
X200357145Y-90006657D02*
X200071430Y-89863800D01*
X200071430Y-89863800D02*
X199928573Y-89578085D01*
X199928573Y-89578085D02*
X199928573Y-88435228D01*
X199928573Y-88435228D02*
X200071430Y-88149514D01*
X200071430Y-88149514D02*
X200357145Y-88006657D01*
X200357145Y-88006657D02*
X200928573Y-88006657D01*
X200928573Y-88006657D02*
X201214287Y-88149514D01*
X201214287Y-88149514D02*
X201357145Y-88435228D01*
X201357145Y-88435228D02*
X201357145Y-88720942D01*
X201357145Y-88720942D02*
X199928573Y-89006657D01*
X202642859Y-90006657D02*
X202642859Y-88006657D01*
X202642859Y-88578085D02*
X202785716Y-88292371D01*
X202785716Y-88292371D02*
X202928574Y-88149514D01*
X202928574Y-88149514D02*
X203214288Y-88006657D01*
X203214288Y-88006657D02*
X203500002Y-88006657D01*
D12*
X115660000Y-106020165D02*
X115660000Y-102520165D01*
X115660000Y-102520165D02*
X117660000Y-106020165D01*
X117660000Y-106020165D02*
X117660000Y-102520165D01*
X117743334Y-111654969D02*
X116076667Y-111654969D01*
X116076667Y-111654969D02*
X116076667Y-108154969D01*
D10*
X136775714Y-75928152D02*
X136775714Y-76594819D01*
X136537619Y-75547200D02*
X136299524Y-76261485D01*
X136299524Y-76261485D02*
X136918571Y-76261485D01*
X137204286Y-75594819D02*
X137870952Y-75594819D01*
X137870952Y-75594819D02*
X137442381Y-76594819D01*
X138442381Y-75594819D02*
X138537619Y-75594819D01*
X138537619Y-75594819D02*
X138632857Y-75642438D01*
X138632857Y-75642438D02*
X138680476Y-75690057D01*
X138680476Y-75690057D02*
X138728095Y-75785295D01*
X138728095Y-75785295D02*
X138775714Y-75975771D01*
X138775714Y-75975771D02*
X138775714Y-76213866D01*
X138775714Y-76213866D02*
X138728095Y-76404342D01*
X138728095Y-76404342D02*
X138680476Y-76499580D01*
X138680476Y-76499580D02*
X138632857Y-76547200D01*
X138632857Y-76547200D02*
X138537619Y-76594819D01*
X138537619Y-76594819D02*
X138442381Y-76594819D01*
X138442381Y-76594819D02*
X138347143Y-76547200D01*
X138347143Y-76547200D02*
X138299524Y-76499580D01*
X138299524Y-76499580D02*
X138251905Y-76404342D01*
X138251905Y-76404342D02*
X138204286Y-76213866D01*
X138204286Y-76213866D02*
X138204286Y-75975771D01*
X138204286Y-75975771D02*
X138251905Y-75785295D01*
X138251905Y-75785295D02*
X138299524Y-75690057D01*
X138299524Y-75690057D02*
X138347143Y-75642438D01*
X138347143Y-75642438D02*
X138442381Y-75594819D01*
X139632857Y-75928152D02*
X139632857Y-76594819D01*
X139204286Y-75928152D02*
X139204286Y-76451961D01*
X139204286Y-76451961D02*
X139251905Y-76547200D01*
X139251905Y-76547200D02*
X139347143Y-76594819D01*
X139347143Y-76594819D02*
X139490000Y-76594819D01*
X139490000Y-76594819D02*
X139585238Y-76547200D01*
X139585238Y-76547200D02*
X139632857Y-76499580D01*
D13*
X154303855Y-84128571D02*
X154303855Y-84471428D01*
X154303855Y-84299999D02*
X153503855Y-84299999D01*
X153503855Y-84299999D02*
X153618140Y-84357142D01*
X153618140Y-84357142D02*
X153694331Y-84414285D01*
X153694331Y-84414285D02*
X153732426Y-84471428D01*
X154303855Y-83871427D02*
X153503855Y-83871427D01*
X153503855Y-83871427D02*
X154303855Y-83528570D01*
X154303855Y-83528570D02*
X153503855Y-83528570D01*
X153770521Y-82985714D02*
X154303855Y-82985714D01*
X153465760Y-83128571D02*
X154037188Y-83271428D01*
X154037188Y-83271428D02*
X154037188Y-82899999D01*
X104667618Y-80453855D02*
X104210475Y-80453855D01*
X104439047Y-80453855D02*
X104439047Y-79653855D01*
X104439047Y-79653855D02*
X104362856Y-79768140D01*
X104362856Y-79768140D02*
X104286666Y-79844331D01*
X104286666Y-79844331D02*
X104210475Y-79882426D01*
X105162857Y-79653855D02*
X105239047Y-79653855D01*
X105239047Y-79653855D02*
X105315238Y-79691950D01*
X105315238Y-79691950D02*
X105353333Y-79730045D01*
X105353333Y-79730045D02*
X105391428Y-79806236D01*
X105391428Y-79806236D02*
X105429523Y-79958617D01*
X105429523Y-79958617D02*
X105429523Y-80149093D01*
X105429523Y-80149093D02*
X105391428Y-80301474D01*
X105391428Y-80301474D02*
X105353333Y-80377664D01*
X105353333Y-80377664D02*
X105315238Y-80415760D01*
X105315238Y-80415760D02*
X105239047Y-80453855D01*
X105239047Y-80453855D02*
X105162857Y-80453855D01*
X105162857Y-80453855D02*
X105086666Y-80415760D01*
X105086666Y-80415760D02*
X105048571Y-80377664D01*
X105048571Y-80377664D02*
X105010476Y-80301474D01*
X105010476Y-80301474D02*
X104972380Y-80149093D01*
X104972380Y-80149093D02*
X104972380Y-79958617D01*
X104972380Y-79958617D02*
X105010476Y-79806236D01*
X105010476Y-79806236D02*
X105048571Y-79730045D01*
X105048571Y-79730045D02*
X105086666Y-79691950D01*
X105086666Y-79691950D02*
X105162857Y-79653855D01*
X93313855Y-128257143D02*
X93313855Y-128600000D01*
X93313855Y-128428571D02*
X92513855Y-128428571D01*
X92513855Y-128428571D02*
X92628140Y-128485714D01*
X92628140Y-128485714D02*
X92704331Y-128542857D01*
X92704331Y-128542857D02*
X92742426Y-128600000D01*
X92513855Y-127885714D02*
X92513855Y-127828571D01*
X92513855Y-127828571D02*
X92551950Y-127771428D01*
X92551950Y-127771428D02*
X92590045Y-127742857D01*
X92590045Y-127742857D02*
X92666236Y-127714285D01*
X92666236Y-127714285D02*
X92818617Y-127685714D01*
X92818617Y-127685714D02*
X93009093Y-127685714D01*
X93009093Y-127685714D02*
X93161474Y-127714285D01*
X93161474Y-127714285D02*
X93237664Y-127742857D01*
X93237664Y-127742857D02*
X93275760Y-127771428D01*
X93275760Y-127771428D02*
X93313855Y-127828571D01*
X93313855Y-127828571D02*
X93313855Y-127885714D01*
X93313855Y-127885714D02*
X93275760Y-127942857D01*
X93275760Y-127942857D02*
X93237664Y-127971428D01*
X93237664Y-127971428D02*
X93161474Y-127999999D01*
X93161474Y-127999999D02*
X93009093Y-128028571D01*
X93009093Y-128028571D02*
X92818617Y-128028571D01*
X92818617Y-128028571D02*
X92666236Y-127999999D01*
X92666236Y-127999999D02*
X92590045Y-127971428D01*
X92590045Y-127971428D02*
X92551950Y-127942857D01*
X92551950Y-127942857D02*
X92513855Y-127885714D01*
X93313855Y-127428570D02*
X92513855Y-127428570D01*
X93009093Y-127371428D02*
X93313855Y-127199999D01*
X92780521Y-127199999D02*
X93085283Y-127428570D01*
D14*
X88535714Y-65144642D02*
X89678572Y-65144642D01*
X89107143Y-65716070D02*
X89107143Y-64573213D01*
X89107143Y-66702415D02*
X88964286Y-66630986D01*
X88964286Y-66630986D02*
X88750000Y-66630986D01*
X88750000Y-66630986D02*
X88535714Y-66702415D01*
X88535714Y-66702415D02*
X88392857Y-66845272D01*
X88392857Y-66845272D02*
X88321428Y-66988129D01*
X88321428Y-66988129D02*
X88250000Y-67273843D01*
X88250000Y-67273843D02*
X88250000Y-67488129D01*
X88250000Y-67488129D02*
X88321428Y-67773843D01*
X88321428Y-67773843D02*
X88392857Y-67916700D01*
X88392857Y-67916700D02*
X88535714Y-68059558D01*
X88535714Y-68059558D02*
X88750000Y-68130986D01*
X88750000Y-68130986D02*
X88892857Y-68130986D01*
X88892857Y-68130986D02*
X89107143Y-68059558D01*
X89107143Y-68059558D02*
X89178571Y-67988129D01*
X89178571Y-67988129D02*
X89178571Y-67488129D01*
X89178571Y-67488129D02*
X88892857Y-67488129D01*
X89821428Y-68130986D02*
X89821428Y-66630986D01*
X89821428Y-66630986D02*
X90678571Y-68130986D01*
X90678571Y-68130986D02*
X90678571Y-66630986D01*
X91392857Y-68130986D02*
X91392857Y-66630986D01*
X91392857Y-66630986D02*
X91750000Y-66630986D01*
X91750000Y-66630986D02*
X91964286Y-66702415D01*
X91964286Y-66702415D02*
X92107143Y-66845272D01*
X92107143Y-66845272D02*
X92178572Y-66988129D01*
X92178572Y-66988129D02*
X92250000Y-67273843D01*
X92250000Y-67273843D02*
X92250000Y-67488129D01*
X92250000Y-67488129D02*
X92178572Y-67773843D01*
X92178572Y-67773843D02*
X92107143Y-67916700D01*
X92107143Y-67916700D02*
X91964286Y-68059558D01*
X91964286Y-68059558D02*
X91750000Y-68130986D01*
X91750000Y-68130986D02*
X91392857Y-68130986D01*
D10*
X225805714Y-130208152D02*
X225805714Y-130874819D01*
X225567619Y-129827200D02*
X225329524Y-130541485D01*
X225329524Y-130541485D02*
X225948571Y-130541485D01*
X226234286Y-129874819D02*
X226900952Y-129874819D01*
X226900952Y-129874819D02*
X226472381Y-130874819D01*
X227472381Y-129874819D02*
X227567619Y-129874819D01*
X227567619Y-129874819D02*
X227662857Y-129922438D01*
X227662857Y-129922438D02*
X227710476Y-129970057D01*
X227710476Y-129970057D02*
X227758095Y-130065295D01*
X227758095Y-130065295D02*
X227805714Y-130255771D01*
X227805714Y-130255771D02*
X227805714Y-130493866D01*
X227805714Y-130493866D02*
X227758095Y-130684342D01*
X227758095Y-130684342D02*
X227710476Y-130779580D01*
X227710476Y-130779580D02*
X227662857Y-130827200D01*
X227662857Y-130827200D02*
X227567619Y-130874819D01*
X227567619Y-130874819D02*
X227472381Y-130874819D01*
X227472381Y-130874819D02*
X227377143Y-130827200D01*
X227377143Y-130827200D02*
X227329524Y-130779580D01*
X227329524Y-130779580D02*
X227281905Y-130684342D01*
X227281905Y-130684342D02*
X227234286Y-130493866D01*
X227234286Y-130493866D02*
X227234286Y-130255771D01*
X227234286Y-130255771D02*
X227281905Y-130065295D01*
X227281905Y-130065295D02*
X227329524Y-129970057D01*
X227329524Y-129970057D02*
X227377143Y-129922438D01*
X227377143Y-129922438D02*
X227472381Y-129874819D01*
X228662857Y-130208152D02*
X228662857Y-130874819D01*
X228234286Y-130208152D02*
X228234286Y-130731961D01*
X228234286Y-130731961D02*
X228281905Y-130827200D01*
X228281905Y-130827200D02*
X228377143Y-130874819D01*
X228377143Y-130874819D02*
X228520000Y-130874819D01*
X228520000Y-130874819D02*
X228615238Y-130827200D01*
X228615238Y-130827200D02*
X228662857Y-130779580D01*
D15*
X135333331Y-47666101D02*
X135666665Y-47832767D01*
X135666665Y-47832767D02*
X136333331Y-47832767D01*
X136333331Y-47832767D02*
X136666665Y-47666101D01*
X136666665Y-47666101D02*
X136833331Y-47332767D01*
X136833331Y-47332767D02*
X136833331Y-47166101D01*
X136833331Y-47166101D02*
X136666665Y-46832767D01*
X136666665Y-46832767D02*
X136333331Y-46666101D01*
X136333331Y-46666101D02*
X135833331Y-46666101D01*
X135833331Y-46666101D02*
X135499998Y-46499434D01*
X135499998Y-46499434D02*
X135333331Y-46166101D01*
X135333331Y-46166101D02*
X135333331Y-45999434D01*
X135333331Y-45999434D02*
X135499998Y-45666101D01*
X135499998Y-45666101D02*
X135833331Y-45499434D01*
X135833331Y-45499434D02*
X136333331Y-45499434D01*
X136333331Y-45499434D02*
X136666665Y-45666101D01*
X138833331Y-47832767D02*
X138499998Y-47666101D01*
X138499998Y-47666101D02*
X138333331Y-47499434D01*
X138333331Y-47499434D02*
X138166664Y-47166101D01*
X138166664Y-47166101D02*
X138166664Y-46166101D01*
X138166664Y-46166101D02*
X138333331Y-45832767D01*
X138333331Y-45832767D02*
X138499998Y-45666101D01*
X138499998Y-45666101D02*
X138833331Y-45499434D01*
X138833331Y-45499434D02*
X139333331Y-45499434D01*
X139333331Y-45499434D02*
X139666664Y-45666101D01*
X139666664Y-45666101D02*
X139833331Y-45832767D01*
X139833331Y-45832767D02*
X139999998Y-46166101D01*
X139999998Y-46166101D02*
X139999998Y-47166101D01*
X139999998Y-47166101D02*
X139833331Y-47499434D01*
X139833331Y-47499434D02*
X139666664Y-47666101D01*
X139666664Y-47666101D02*
X139333331Y-47832767D01*
X139333331Y-47832767D02*
X138833331Y-47832767D01*
X141999998Y-47832767D02*
X141666665Y-47666101D01*
X141666665Y-47666101D02*
X141499998Y-47332767D01*
X141499998Y-47332767D02*
X141499998Y-44332767D01*
X144833331Y-47832767D02*
X144833331Y-45999434D01*
X144833331Y-45999434D02*
X144666664Y-45666101D01*
X144666664Y-45666101D02*
X144333331Y-45499434D01*
X144333331Y-45499434D02*
X143666664Y-45499434D01*
X143666664Y-45499434D02*
X143333331Y-45666101D01*
X144833331Y-47666101D02*
X144499998Y-47832767D01*
X144499998Y-47832767D02*
X143666664Y-47832767D01*
X143666664Y-47832767D02*
X143333331Y-47666101D01*
X143333331Y-47666101D02*
X143166664Y-47332767D01*
X143166664Y-47332767D02*
X143166664Y-46999434D01*
X143166664Y-46999434D02*
X143333331Y-46666101D01*
X143333331Y-46666101D02*
X143666664Y-46499434D01*
X143666664Y-46499434D02*
X144499998Y-46499434D01*
X144499998Y-46499434D02*
X144833331Y-46332767D01*
X146499998Y-47832767D02*
X146499998Y-45499434D01*
X146499998Y-46166101D02*
X146666665Y-45832767D01*
X146666665Y-45832767D02*
X146833331Y-45666101D01*
X146833331Y-45666101D02*
X147166665Y-45499434D01*
X147166665Y-45499434D02*
X147499998Y-45499434D01*
X148666665Y-47832767D02*
X148666665Y-44332767D01*
X148666665Y-45666101D02*
X148999998Y-45499434D01*
X148999998Y-45499434D02*
X149666665Y-45499434D01*
X149666665Y-45499434D02*
X149999998Y-45666101D01*
X149999998Y-45666101D02*
X150166665Y-45832767D01*
X150166665Y-45832767D02*
X150333332Y-46166101D01*
X150333332Y-46166101D02*
X150333332Y-47166101D01*
X150333332Y-47166101D02*
X150166665Y-47499434D01*
X150166665Y-47499434D02*
X149999998Y-47666101D01*
X149999998Y-47666101D02*
X149666665Y-47832767D01*
X149666665Y-47832767D02*
X148999998Y-47832767D01*
X148999998Y-47832767D02*
X148666665Y-47666101D01*
X151833332Y-47832767D02*
X151833332Y-45499434D01*
X151833332Y-44332767D02*
X151666665Y-44499434D01*
X151666665Y-44499434D02*
X151833332Y-44666101D01*
X151833332Y-44666101D02*
X151999999Y-44499434D01*
X151999999Y-44499434D02*
X151833332Y-44332767D01*
X151833332Y-44332767D02*
X151833332Y-44666101D01*
X153999999Y-47832767D02*
X153666666Y-47666101D01*
X153666666Y-47666101D02*
X153499999Y-47332767D01*
X153499999Y-47332767D02*
X153499999Y-44332767D01*
X156833332Y-47832767D02*
X156833332Y-44332767D01*
X156833332Y-47666101D02*
X156499999Y-47832767D01*
X156499999Y-47832767D02*
X155833332Y-47832767D01*
X155833332Y-47832767D02*
X155499999Y-47666101D01*
X155499999Y-47666101D02*
X155333332Y-47499434D01*
X155333332Y-47499434D02*
X155166665Y-47166101D01*
X155166665Y-47166101D02*
X155166665Y-46166101D01*
X155166665Y-46166101D02*
X155333332Y-45832767D01*
X155333332Y-45832767D02*
X155499999Y-45666101D01*
X155499999Y-45666101D02*
X155833332Y-45499434D01*
X155833332Y-45499434D02*
X156499999Y-45499434D01*
X156499999Y-45499434D02*
X156833332Y-45666101D01*
X159999999Y-45499434D02*
X159999999Y-47832767D01*
X158499999Y-45499434D02*
X158499999Y-47332767D01*
X158499999Y-47332767D02*
X158666666Y-47666101D01*
X158666666Y-47666101D02*
X158999999Y-47832767D01*
X158999999Y-47832767D02*
X159499999Y-47832767D01*
X159499999Y-47832767D02*
X159833332Y-47666101D01*
X159833332Y-47666101D02*
X159999999Y-47499434D01*
X161666666Y-45499434D02*
X161666666Y-47832767D01*
X161666666Y-45832767D02*
X161833333Y-45666101D01*
X161833333Y-45666101D02*
X162166666Y-45499434D01*
X162166666Y-45499434D02*
X162666666Y-45499434D01*
X162666666Y-45499434D02*
X162999999Y-45666101D01*
X162999999Y-45666101D02*
X163166666Y-45999434D01*
X163166666Y-45999434D02*
X163166666Y-47832767D01*
X166333333Y-45499434D02*
X166333333Y-48332767D01*
X166333333Y-48332767D02*
X166166666Y-48666101D01*
X166166666Y-48666101D02*
X166000000Y-48832767D01*
X166000000Y-48832767D02*
X165666666Y-48999434D01*
X165666666Y-48999434D02*
X165166666Y-48999434D01*
X165166666Y-48999434D02*
X164833333Y-48832767D01*
X166333333Y-47666101D02*
X166000000Y-47832767D01*
X166000000Y-47832767D02*
X165333333Y-47832767D01*
X165333333Y-47832767D02*
X165000000Y-47666101D01*
X165000000Y-47666101D02*
X164833333Y-47499434D01*
X164833333Y-47499434D02*
X164666666Y-47166101D01*
X164666666Y-47166101D02*
X164666666Y-46166101D01*
X164666666Y-46166101D02*
X164833333Y-45832767D01*
X164833333Y-45832767D02*
X165000000Y-45666101D01*
X165000000Y-45666101D02*
X165333333Y-45499434D01*
X165333333Y-45499434D02*
X166000000Y-45499434D01*
X166000000Y-45499434D02*
X166333333Y-45666101D01*
X168000000Y-47499434D02*
X168166667Y-47666101D01*
X168166667Y-47666101D02*
X168000000Y-47832767D01*
X168000000Y-47832767D02*
X167833333Y-47666101D01*
X167833333Y-47666101D02*
X168000000Y-47499434D01*
X168000000Y-47499434D02*
X168000000Y-47832767D01*
X170166667Y-47832767D02*
X169833334Y-47666101D01*
X169833334Y-47666101D02*
X169666667Y-47499434D01*
X169666667Y-47499434D02*
X169500000Y-47166101D01*
X169500000Y-47166101D02*
X169500000Y-46166101D01*
X169500000Y-46166101D02*
X169666667Y-45832767D01*
X169666667Y-45832767D02*
X169833334Y-45666101D01*
X169833334Y-45666101D02*
X170166667Y-45499434D01*
X170166667Y-45499434D02*
X170666667Y-45499434D01*
X170666667Y-45499434D02*
X171000000Y-45666101D01*
X171000000Y-45666101D02*
X171166667Y-45832767D01*
X171166667Y-45832767D02*
X171333334Y-46166101D01*
X171333334Y-46166101D02*
X171333334Y-47166101D01*
X171333334Y-47166101D02*
X171166667Y-47499434D01*
X171166667Y-47499434D02*
X171000000Y-47666101D01*
X171000000Y-47666101D02*
X170666667Y-47832767D01*
X170666667Y-47832767D02*
X170166667Y-47832767D01*
X172833334Y-47832767D02*
X172833334Y-45499434D01*
X172833334Y-46166101D02*
X173000001Y-45832767D01*
X173000001Y-45832767D02*
X173166667Y-45666101D01*
X173166667Y-45666101D02*
X173500001Y-45499434D01*
X173500001Y-45499434D02*
X173833334Y-45499434D01*
X176500001Y-45499434D02*
X176500001Y-48332767D01*
X176500001Y-48332767D02*
X176333334Y-48666101D01*
X176333334Y-48666101D02*
X176166668Y-48832767D01*
X176166668Y-48832767D02*
X175833334Y-48999434D01*
X175833334Y-48999434D02*
X175333334Y-48999434D01*
X175333334Y-48999434D02*
X175000001Y-48832767D01*
X176500001Y-47666101D02*
X176166668Y-47832767D01*
X176166668Y-47832767D02*
X175500001Y-47832767D01*
X175500001Y-47832767D02*
X175166668Y-47666101D01*
X175166668Y-47666101D02*
X175000001Y-47499434D01*
X175000001Y-47499434D02*
X174833334Y-47166101D01*
X174833334Y-47166101D02*
X174833334Y-46166101D01*
X174833334Y-46166101D02*
X175000001Y-45832767D01*
X175000001Y-45832767D02*
X175166668Y-45666101D01*
X175166668Y-45666101D02*
X175500001Y-45499434D01*
X175500001Y-45499434D02*
X176166668Y-45499434D01*
X176166668Y-45499434D02*
X176500001Y-45666101D01*
D11*
X147857142Y-69941741D02*
X147857142Y-72941741D01*
X147857142Y-70084598D02*
X148142857Y-69941741D01*
X148142857Y-69941741D02*
X148714285Y-69941741D01*
X148714285Y-69941741D02*
X148999999Y-70084598D01*
X148999999Y-70084598D02*
X149142857Y-70227455D01*
X149142857Y-70227455D02*
X149285714Y-70513169D01*
X149285714Y-70513169D02*
X149285714Y-71370312D01*
X149285714Y-71370312D02*
X149142857Y-71656026D01*
X149142857Y-71656026D02*
X148999999Y-71798884D01*
X148999999Y-71798884D02*
X148714285Y-71941741D01*
X148714285Y-71941741D02*
X148142857Y-71941741D01*
X148142857Y-71941741D02*
X147857142Y-71798884D01*
X150285714Y-69941741D02*
X151000000Y-71941741D01*
X151000000Y-71941741D02*
X151714285Y-69941741D01*
X152857142Y-71941741D02*
X152857142Y-69941741D01*
X152857142Y-70227455D02*
X152999999Y-70084598D01*
X152999999Y-70084598D02*
X153285714Y-69941741D01*
X153285714Y-69941741D02*
X153714285Y-69941741D01*
X153714285Y-69941741D02*
X153999999Y-70084598D01*
X153999999Y-70084598D02*
X154142857Y-70370312D01*
X154142857Y-70370312D02*
X154142857Y-71941741D01*
X154142857Y-70370312D02*
X154285714Y-70084598D01*
X154285714Y-70084598D02*
X154571428Y-69941741D01*
X154571428Y-69941741D02*
X154999999Y-69941741D01*
X154999999Y-69941741D02*
X155285714Y-70084598D01*
X155285714Y-70084598D02*
X155428571Y-70370312D01*
X155428571Y-70370312D02*
X155428571Y-71941741D01*
X157999999Y-71798884D02*
X157714285Y-71941741D01*
X157714285Y-71941741D02*
X157142857Y-71941741D01*
X157142857Y-71941741D02*
X156857142Y-71798884D01*
X156857142Y-71798884D02*
X156714285Y-71513169D01*
X156714285Y-71513169D02*
X156714285Y-70370312D01*
X156714285Y-70370312D02*
X156857142Y-70084598D01*
X156857142Y-70084598D02*
X157142857Y-69941741D01*
X157142857Y-69941741D02*
X157714285Y-69941741D01*
X157714285Y-69941741D02*
X157999999Y-70084598D01*
X157999999Y-70084598D02*
X158142857Y-70370312D01*
X158142857Y-70370312D02*
X158142857Y-70656026D01*
X158142857Y-70656026D02*
X156714285Y-70941741D01*
X159000000Y-69941741D02*
X160142857Y-69941741D01*
X159428571Y-68941741D02*
X159428571Y-71513169D01*
X159428571Y-71513169D02*
X159571428Y-71798884D01*
X159571428Y-71798884D02*
X159857143Y-71941741D01*
X159857143Y-71941741D02*
X160142857Y-71941741D01*
X162285714Y-71798884D02*
X162000000Y-71941741D01*
X162000000Y-71941741D02*
X161428572Y-71941741D01*
X161428572Y-71941741D02*
X161142857Y-71798884D01*
X161142857Y-71798884D02*
X161000000Y-71513169D01*
X161000000Y-71513169D02*
X161000000Y-70370312D01*
X161000000Y-70370312D02*
X161142857Y-70084598D01*
X161142857Y-70084598D02*
X161428572Y-69941741D01*
X161428572Y-69941741D02*
X162000000Y-69941741D01*
X162000000Y-69941741D02*
X162285714Y-70084598D01*
X162285714Y-70084598D02*
X162428572Y-70370312D01*
X162428572Y-70370312D02*
X162428572Y-70656026D01*
X162428572Y-70656026D02*
X161000000Y-70941741D01*
X163714286Y-71941741D02*
X163714286Y-69941741D01*
X163714286Y-70513169D02*
X163857143Y-70227455D01*
X163857143Y-70227455D02*
X164000001Y-70084598D01*
X164000001Y-70084598D02*
X164285715Y-69941741D01*
X164285715Y-69941741D02*
X164571429Y-69941741D01*
X151714286Y-74771573D02*
X152428572Y-76771573D01*
X152428572Y-76771573D02*
X153142857Y-74771573D01*
X155857143Y-76771573D02*
X154142857Y-76771573D01*
X155000000Y-76771573D02*
X155000000Y-73771573D01*
X155000000Y-73771573D02*
X154714286Y-74200144D01*
X154714286Y-74200144D02*
X154428571Y-74485858D01*
X154428571Y-74485858D02*
X154142857Y-74628716D01*
X157142857Y-76485858D02*
X157285714Y-76628716D01*
X157285714Y-76628716D02*
X157142857Y-76771573D01*
X157142857Y-76771573D02*
X157000000Y-76628716D01*
X157000000Y-76628716D02*
X157142857Y-76485858D01*
X157142857Y-76485858D02*
X157142857Y-76771573D01*
X160000000Y-73771573D02*
X158571428Y-73771573D01*
X158571428Y-73771573D02*
X158428571Y-75200144D01*
X158428571Y-75200144D02*
X158571428Y-75057287D01*
X158571428Y-75057287D02*
X158857143Y-74914430D01*
X158857143Y-74914430D02*
X159571428Y-74914430D01*
X159571428Y-74914430D02*
X159857143Y-75057287D01*
X159857143Y-75057287D02*
X160000000Y-75200144D01*
X160000000Y-75200144D02*
X160142857Y-75485858D01*
X160142857Y-75485858D02*
X160142857Y-76200144D01*
X160142857Y-76200144D02*
X160000000Y-76485858D01*
X160000000Y-76485858D02*
X159857143Y-76628716D01*
X159857143Y-76628716D02*
X159571428Y-76771573D01*
X159571428Y-76771573D02*
X158857143Y-76771573D01*
X158857143Y-76771573D02*
X158571428Y-76628716D01*
X158571428Y-76628716D02*
X158428571Y-76485858D01*
D13*
X107579048Y-80377664D02*
X107617143Y-80415760D01*
X107617143Y-80415760D02*
X107579048Y-80453855D01*
X107579048Y-80453855D02*
X107540952Y-80415760D01*
X107540952Y-80415760D02*
X107579048Y-80377664D01*
X107579048Y-80377664D02*
X107579048Y-80453855D01*
X108379047Y-80453855D02*
X107921904Y-80453855D01*
X108150476Y-80453855D02*
X108150476Y-79653855D01*
X108150476Y-79653855D02*
X108074285Y-79768140D01*
X108074285Y-79768140D02*
X107998095Y-79844331D01*
X107998095Y-79844331D02*
X107921904Y-79882426D01*
D12*
X189700000Y-106110165D02*
X189700000Y-102610165D01*
X189700000Y-102610165D02*
X191700000Y-106110165D01*
X191700000Y-106110165D02*
X191700000Y-102610165D01*
X191783334Y-111744969D02*
X190116667Y-111744969D01*
X190116667Y-111744969D02*
X190116667Y-108244969D01*
D13*
X109679048Y-53237664D02*
X109717143Y-53275760D01*
X109717143Y-53275760D02*
X109679048Y-53313855D01*
X109679048Y-53313855D02*
X109640952Y-53275760D01*
X109640952Y-53275760D02*
X109679048Y-53237664D01*
X109679048Y-53237664D02*
X109679048Y-53313855D01*
X110479047Y-53313855D02*
X110021904Y-53313855D01*
X110250476Y-53313855D02*
X110250476Y-52513855D01*
X110250476Y-52513855D02*
X110174285Y-52628140D01*
X110174285Y-52628140D02*
X110098095Y-52704331D01*
X110098095Y-52704331D02*
X110021904Y-52742426D01*
X160092545Y-84412857D02*
X160054450Y-84384285D01*
X160054450Y-84384285D02*
X160016355Y-84327143D01*
X160016355Y-84327143D02*
X160016355Y-84184285D01*
X160016355Y-84184285D02*
X160054450Y-84127143D01*
X160054450Y-84127143D02*
X160092545Y-84098571D01*
X160092545Y-84098571D02*
X160168736Y-84070000D01*
X160168736Y-84070000D02*
X160244926Y-84070000D01*
X160244926Y-84070000D02*
X160359212Y-84098571D01*
X160359212Y-84098571D02*
X160816355Y-84441428D01*
X160816355Y-84441428D02*
X160816355Y-84070000D01*
X160016355Y-83698571D02*
X160016355Y-83641428D01*
X160016355Y-83641428D02*
X160054450Y-83584285D01*
X160054450Y-83584285D02*
X160092545Y-83555714D01*
X160092545Y-83555714D02*
X160168736Y-83527142D01*
X160168736Y-83527142D02*
X160321117Y-83498571D01*
X160321117Y-83498571D02*
X160511593Y-83498571D01*
X160511593Y-83498571D02*
X160663974Y-83527142D01*
X160663974Y-83527142D02*
X160740164Y-83555714D01*
X160740164Y-83555714D02*
X160778260Y-83584285D01*
X160778260Y-83584285D02*
X160816355Y-83641428D01*
X160816355Y-83641428D02*
X160816355Y-83698571D01*
X160816355Y-83698571D02*
X160778260Y-83755714D01*
X160778260Y-83755714D02*
X160740164Y-83784285D01*
X160740164Y-83784285D02*
X160663974Y-83812856D01*
X160663974Y-83812856D02*
X160511593Y-83841428D01*
X160511593Y-83841428D02*
X160321117Y-83841428D01*
X160321117Y-83841428D02*
X160168736Y-83812856D01*
X160168736Y-83812856D02*
X160092545Y-83784285D01*
X160092545Y-83784285D02*
X160054450Y-83755714D01*
X160054450Y-83755714D02*
X160016355Y-83698571D01*
X160016355Y-83127142D02*
X160016355Y-83069999D01*
X160016355Y-83069999D02*
X160054450Y-83012856D01*
X160054450Y-83012856D02*
X160092545Y-82984285D01*
X160092545Y-82984285D02*
X160168736Y-82955713D01*
X160168736Y-82955713D02*
X160321117Y-82927142D01*
X160321117Y-82927142D02*
X160511593Y-82927142D01*
X160511593Y-82927142D02*
X160663974Y-82955713D01*
X160663974Y-82955713D02*
X160740164Y-82984285D01*
X160740164Y-82984285D02*
X160778260Y-83012856D01*
X160778260Y-83012856D02*
X160816355Y-83069999D01*
X160816355Y-83069999D02*
X160816355Y-83127142D01*
X160816355Y-83127142D02*
X160778260Y-83184285D01*
X160778260Y-83184285D02*
X160740164Y-83212856D01*
X160740164Y-83212856D02*
X160663974Y-83241427D01*
X160663974Y-83241427D02*
X160511593Y-83269999D01*
X160511593Y-83269999D02*
X160321117Y-83269999D01*
X160321117Y-83269999D02*
X160168736Y-83241427D01*
X160168736Y-83241427D02*
X160092545Y-83212856D01*
X160092545Y-83212856D02*
X160054450Y-83184285D01*
X160054450Y-83184285D02*
X160016355Y-83127142D01*
X93363855Y-133057143D02*
X93363855Y-133400000D01*
X93363855Y-133228571D02*
X92563855Y-133228571D01*
X92563855Y-133228571D02*
X92678140Y-133285714D01*
X92678140Y-133285714D02*
X92754331Y-133342857D01*
X92754331Y-133342857D02*
X92792426Y-133400000D01*
X92563855Y-132685714D02*
X92563855Y-132628571D01*
X92563855Y-132628571D02*
X92601950Y-132571428D01*
X92601950Y-132571428D02*
X92640045Y-132542857D01*
X92640045Y-132542857D02*
X92716236Y-132514285D01*
X92716236Y-132514285D02*
X92868617Y-132485714D01*
X92868617Y-132485714D02*
X93059093Y-132485714D01*
X93059093Y-132485714D02*
X93211474Y-132514285D01*
X93211474Y-132514285D02*
X93287664Y-132542857D01*
X93287664Y-132542857D02*
X93325760Y-132571428D01*
X93325760Y-132571428D02*
X93363855Y-132628571D01*
X93363855Y-132628571D02*
X93363855Y-132685714D01*
X93363855Y-132685714D02*
X93325760Y-132742857D01*
X93325760Y-132742857D02*
X93287664Y-132771428D01*
X93287664Y-132771428D02*
X93211474Y-132799999D01*
X93211474Y-132799999D02*
X93059093Y-132828571D01*
X93059093Y-132828571D02*
X92868617Y-132828571D01*
X92868617Y-132828571D02*
X92716236Y-132799999D01*
X92716236Y-132799999D02*
X92640045Y-132771428D01*
X92640045Y-132771428D02*
X92601950Y-132742857D01*
X92601950Y-132742857D02*
X92563855Y-132685714D01*
X93363855Y-132228570D02*
X92563855Y-132228570D01*
X93059093Y-132171428D02*
X93363855Y-131999999D01*
X92830521Y-131999999D02*
X93135283Y-132228570D01*
X137823571Y-60657355D02*
X137480714Y-60657355D01*
X137652143Y-60657355D02*
X137652143Y-59857355D01*
X137652143Y-59857355D02*
X137595000Y-59971640D01*
X137595000Y-59971640D02*
X137537857Y-60047831D01*
X137537857Y-60047831D02*
X137480714Y-60085926D01*
X138080715Y-60657355D02*
X138080715Y-59857355D01*
X138137858Y-60352593D02*
X138309286Y-60657355D01*
X138309286Y-60124021D02*
X138080715Y-60428783D01*
X168403571Y-80615474D02*
X168832143Y-80615474D01*
X168317857Y-80872617D02*
X168617857Y-79972617D01*
X168617857Y-79972617D02*
X168917857Y-80872617D01*
X169217857Y-80872617D02*
X169217857Y-79972617D01*
X169217857Y-79972617D02*
X169517857Y-80615474D01*
X169517857Y-80615474D02*
X169817857Y-79972617D01*
X169817857Y-79972617D02*
X169817857Y-80872617D01*
X170203571Y-80829760D02*
X170332143Y-80872617D01*
X170332143Y-80872617D02*
X170546428Y-80872617D01*
X170546428Y-80872617D02*
X170632143Y-80829760D01*
X170632143Y-80829760D02*
X170675000Y-80786902D01*
X170675000Y-80786902D02*
X170717857Y-80701188D01*
X170717857Y-80701188D02*
X170717857Y-80615474D01*
X170717857Y-80615474D02*
X170675000Y-80529760D01*
X170675000Y-80529760D02*
X170632143Y-80486902D01*
X170632143Y-80486902D02*
X170546428Y-80444045D01*
X170546428Y-80444045D02*
X170375000Y-80401188D01*
X170375000Y-80401188D02*
X170289285Y-80358331D01*
X170289285Y-80358331D02*
X170246428Y-80315474D01*
X170246428Y-80315474D02*
X170203571Y-80229760D01*
X170203571Y-80229760D02*
X170203571Y-80144045D01*
X170203571Y-80144045D02*
X170246428Y-80058331D01*
X170246428Y-80058331D02*
X170289285Y-80015474D01*
X170289285Y-80015474D02*
X170375000Y-79972617D01*
X170375000Y-79972617D02*
X170589285Y-79972617D01*
X170589285Y-79972617D02*
X170717857Y-80015474D01*
X171575000Y-80872617D02*
X171060714Y-80872617D01*
X171317857Y-80872617D02*
X171317857Y-79972617D01*
X171317857Y-79972617D02*
X171232143Y-80101188D01*
X171232143Y-80101188D02*
X171146428Y-80186902D01*
X171146428Y-80186902D02*
X171060714Y-80229760D01*
X172432143Y-80872617D02*
X171917857Y-80872617D01*
X172175000Y-80872617D02*
X172175000Y-79972617D01*
X172175000Y-79972617D02*
X172089286Y-80101188D01*
X172089286Y-80101188D02*
X172003571Y-80186902D01*
X172003571Y-80186902D02*
X171917857Y-80229760D01*
X173289286Y-80872617D02*
X172775000Y-80872617D01*
X173032143Y-80872617D02*
X173032143Y-79972617D01*
X173032143Y-79972617D02*
X172946429Y-80101188D01*
X172946429Y-80101188D02*
X172860714Y-80186902D01*
X172860714Y-80186902D02*
X172775000Y-80229760D01*
X173589286Y-79972617D02*
X174189286Y-79972617D01*
X174189286Y-79972617D02*
X173803572Y-80872617D01*
D10*
X98054819Y-132867856D02*
X97054819Y-132867856D01*
X97054819Y-132867856D02*
X97054819Y-132629761D01*
X97054819Y-132629761D02*
X97102438Y-132486904D01*
X97102438Y-132486904D02*
X97197676Y-132391666D01*
X97197676Y-132391666D02*
X97292914Y-132344047D01*
X97292914Y-132344047D02*
X97483390Y-132296428D01*
X97483390Y-132296428D02*
X97626247Y-132296428D01*
X97626247Y-132296428D02*
X97816723Y-132344047D01*
X97816723Y-132344047D02*
X97911961Y-132391666D01*
X97911961Y-132391666D02*
X98007200Y-132486904D01*
X98007200Y-132486904D02*
X98054819Y-132629761D01*
X98054819Y-132629761D02*
X98054819Y-132867856D01*
X98007200Y-131915475D02*
X98054819Y-131772618D01*
X98054819Y-131772618D02*
X98054819Y-131534523D01*
X98054819Y-131534523D02*
X98007200Y-131439285D01*
X98007200Y-131439285D02*
X97959580Y-131391666D01*
X97959580Y-131391666D02*
X97864342Y-131344047D01*
X97864342Y-131344047D02*
X97769104Y-131344047D01*
X97769104Y-131344047D02*
X97673866Y-131391666D01*
X97673866Y-131391666D02*
X97626247Y-131439285D01*
X97626247Y-131439285D02*
X97578628Y-131534523D01*
X97578628Y-131534523D02*
X97531009Y-131724999D01*
X97531009Y-131724999D02*
X97483390Y-131820237D01*
X97483390Y-131820237D02*
X97435771Y-131867856D01*
X97435771Y-131867856D02*
X97340533Y-131915475D01*
X97340533Y-131915475D02*
X97245295Y-131915475D01*
X97245295Y-131915475D02*
X97150057Y-131867856D01*
X97150057Y-131867856D02*
X97102438Y-131820237D01*
X97102438Y-131820237D02*
X97054819Y-131724999D01*
X97054819Y-131724999D02*
X97054819Y-131486904D01*
X97054819Y-131486904D02*
X97102438Y-131344047D01*
X97054819Y-131010713D02*
X97054819Y-130391666D01*
X97054819Y-130391666D02*
X97435771Y-130724999D01*
X97435771Y-130724999D02*
X97435771Y-130582142D01*
X97435771Y-130582142D02*
X97483390Y-130486904D01*
X97483390Y-130486904D02*
X97531009Y-130439285D01*
X97531009Y-130439285D02*
X97626247Y-130391666D01*
X97626247Y-130391666D02*
X97864342Y-130391666D01*
X97864342Y-130391666D02*
X97959580Y-130439285D01*
X97959580Y-130439285D02*
X98007200Y-130486904D01*
X98007200Y-130486904D02*
X98054819Y-130582142D01*
X98054819Y-130582142D02*
X98054819Y-130867856D01*
X98054819Y-130867856D02*
X98007200Y-130963094D01*
X98007200Y-130963094D02*
X97959580Y-131010713D01*
X97150057Y-130010713D02*
X97102438Y-129963094D01*
X97102438Y-129963094D02*
X97054819Y-129867856D01*
X97054819Y-129867856D02*
X97054819Y-129629761D01*
X97054819Y-129629761D02*
X97102438Y-129534523D01*
X97102438Y-129534523D02*
X97150057Y-129486904D01*
X97150057Y-129486904D02*
X97245295Y-129439285D01*
X97245295Y-129439285D02*
X97340533Y-129439285D01*
X97340533Y-129439285D02*
X97483390Y-129486904D01*
X97483390Y-129486904D02*
X98054819Y-130058332D01*
X98054819Y-130058332D02*
X98054819Y-129439285D01*
X97054819Y-129105951D02*
X97054819Y-128486904D01*
X97054819Y-128486904D02*
X97435771Y-128820237D01*
X97435771Y-128820237D02*
X97435771Y-128677380D01*
X97435771Y-128677380D02*
X97483390Y-128582142D01*
X97483390Y-128582142D02*
X97531009Y-128534523D01*
X97531009Y-128534523D02*
X97626247Y-128486904D01*
X97626247Y-128486904D02*
X97864342Y-128486904D01*
X97864342Y-128486904D02*
X97959580Y-128534523D01*
X97959580Y-128534523D02*
X98007200Y-128582142D01*
X98007200Y-128582142D02*
X98054819Y-128677380D01*
X98054819Y-128677380D02*
X98054819Y-128963094D01*
X98054819Y-128963094D02*
X98007200Y-129058332D01*
X98007200Y-129058332D02*
X97959580Y-129105951D01*
X98054819Y-127534523D02*
X98054819Y-128105951D01*
X98054819Y-127820237D02*
X97054819Y-127820237D01*
X97054819Y-127820237D02*
X97197676Y-127915475D01*
X97197676Y-127915475D02*
X97292914Y-128010713D01*
X97292914Y-128010713D02*
X97340533Y-128105951D01*
X213795714Y-70954819D02*
X213890952Y-70954819D01*
X213890952Y-70954819D02*
X213986190Y-71002438D01*
X213986190Y-71002438D02*
X214033809Y-71050057D01*
X214033809Y-71050057D02*
X214081428Y-71145295D01*
X214081428Y-71145295D02*
X214129047Y-71335771D01*
X214129047Y-71335771D02*
X214129047Y-71573866D01*
X214129047Y-71573866D02*
X214081428Y-71764342D01*
X214081428Y-71764342D02*
X214033809Y-71859580D01*
X214033809Y-71859580D02*
X213986190Y-71907200D01*
X213986190Y-71907200D02*
X213890952Y-71954819D01*
X213890952Y-71954819D02*
X213795714Y-71954819D01*
X213795714Y-71954819D02*
X213700476Y-71907200D01*
X213700476Y-71907200D02*
X213652857Y-71859580D01*
X213652857Y-71859580D02*
X213605238Y-71764342D01*
X213605238Y-71764342D02*
X213557619Y-71573866D01*
X213557619Y-71573866D02*
X213557619Y-71335771D01*
X213557619Y-71335771D02*
X213605238Y-71145295D01*
X213605238Y-71145295D02*
X213652857Y-71050057D01*
X213652857Y-71050057D02*
X213700476Y-71002438D01*
X213700476Y-71002438D02*
X213795714Y-70954819D01*
X214557619Y-71859580D02*
X214605238Y-71907200D01*
X214605238Y-71907200D02*
X214557619Y-71954819D01*
X214557619Y-71954819D02*
X214510000Y-71907200D01*
X214510000Y-71907200D02*
X214557619Y-71859580D01*
X214557619Y-71859580D02*
X214557619Y-71954819D01*
X215557618Y-71954819D02*
X214986190Y-71954819D01*
X215271904Y-71954819D02*
X215271904Y-70954819D01*
X215271904Y-70954819D02*
X215176666Y-71097676D01*
X215176666Y-71097676D02*
X215081428Y-71192914D01*
X215081428Y-71192914D02*
X214986190Y-71240533D01*
X216414761Y-71288152D02*
X216414761Y-71954819D01*
X215986190Y-71288152D02*
X215986190Y-71811961D01*
X215986190Y-71811961D02*
X216033809Y-71907200D01*
X216033809Y-71907200D02*
X216129047Y-71954819D01*
X216129047Y-71954819D02*
X216271904Y-71954819D01*
X216271904Y-71954819D02*
X216367142Y-71907200D01*
X216367142Y-71907200D02*
X216414761Y-71859580D01*
D14*
X187978571Y-63944742D02*
X187978571Y-62744742D01*
X187978571Y-63316171D02*
X188664285Y-63316171D01*
X188664285Y-63944742D02*
X188664285Y-62744742D01*
X189807142Y-63944742D02*
X189235714Y-63944742D01*
X189235714Y-63944742D02*
X189235714Y-62744742D01*
X190207143Y-63944742D02*
X190207143Y-62744742D01*
X190892857Y-63944742D02*
X190378571Y-63259028D01*
X190892857Y-62744742D02*
X190207143Y-63430457D01*
X191407143Y-63487600D02*
X192321429Y-63487600D01*
X193464285Y-62744742D02*
X192892857Y-62744742D01*
X192892857Y-62744742D02*
X192835714Y-63316171D01*
X192835714Y-63316171D02*
X192892857Y-63259028D01*
X192892857Y-63259028D02*
X193007143Y-63201885D01*
X193007143Y-63201885D02*
X193292857Y-63201885D01*
X193292857Y-63201885D02*
X193407143Y-63259028D01*
X193407143Y-63259028D02*
X193464285Y-63316171D01*
X193464285Y-63316171D02*
X193521428Y-63430457D01*
X193521428Y-63430457D02*
X193521428Y-63716171D01*
X193521428Y-63716171D02*
X193464285Y-63830457D01*
X193464285Y-63830457D02*
X193407143Y-63887600D01*
X193407143Y-63887600D02*
X193292857Y-63944742D01*
X193292857Y-63944742D02*
X193007143Y-63944742D01*
X193007143Y-63944742D02*
X192892857Y-63887600D01*
X192892857Y-63887600D02*
X192835714Y-63830457D01*
X194035714Y-63944742D02*
X194035714Y-62744742D01*
X194035714Y-62744742D02*
X194435714Y-63601885D01*
X194435714Y-63601885D02*
X194835714Y-62744742D01*
X194835714Y-62744742D02*
X194835714Y-63944742D01*
X195635714Y-62744742D02*
X195750000Y-62744742D01*
X195750000Y-62744742D02*
X195864286Y-62801885D01*
X195864286Y-62801885D02*
X195921429Y-62859028D01*
X195921429Y-62859028D02*
X195978571Y-62973314D01*
X195978571Y-62973314D02*
X196035714Y-63201885D01*
X196035714Y-63201885D02*
X196035714Y-63487600D01*
X196035714Y-63487600D02*
X195978571Y-63716171D01*
X195978571Y-63716171D02*
X195921429Y-63830457D01*
X195921429Y-63830457D02*
X195864286Y-63887600D01*
X195864286Y-63887600D02*
X195750000Y-63944742D01*
X195750000Y-63944742D02*
X195635714Y-63944742D01*
X195635714Y-63944742D02*
X195521429Y-63887600D01*
X195521429Y-63887600D02*
X195464286Y-63830457D01*
X195464286Y-63830457D02*
X195407143Y-63716171D01*
X195407143Y-63716171D02*
X195350000Y-63487600D01*
X195350000Y-63487600D02*
X195350000Y-63201885D01*
X195350000Y-63201885D02*
X195407143Y-62973314D01*
X195407143Y-62973314D02*
X195464286Y-62859028D01*
X195464286Y-62859028D02*
X195521429Y-62801885D01*
X195521429Y-62801885D02*
X195635714Y-62744742D01*
X197121428Y-62744742D02*
X196550000Y-62744742D01*
X196550000Y-62744742D02*
X196492857Y-63316171D01*
X196492857Y-63316171D02*
X196550000Y-63259028D01*
X196550000Y-63259028D02*
X196664286Y-63201885D01*
X196664286Y-63201885D02*
X196950000Y-63201885D01*
X196950000Y-63201885D02*
X197064286Y-63259028D01*
X197064286Y-63259028D02*
X197121428Y-63316171D01*
X197121428Y-63316171D02*
X197178571Y-63430457D01*
X197178571Y-63430457D02*
X197178571Y-63716171D01*
X197178571Y-63716171D02*
X197121428Y-63830457D01*
X197121428Y-63830457D02*
X197064286Y-63887600D01*
X197064286Y-63887600D02*
X196950000Y-63944742D01*
X196950000Y-63944742D02*
X196664286Y-63944742D01*
X196664286Y-63944742D02*
X196550000Y-63887600D01*
X196550000Y-63887600D02*
X196492857Y-63830457D01*
D10*
X154738095Y-102317319D02*
X155309523Y-102317319D01*
X155023809Y-103317319D02*
X155023809Y-102317319D01*
X156214285Y-103317319D02*
X155880952Y-102841128D01*
X155642857Y-103317319D02*
X155642857Y-102317319D01*
X155642857Y-102317319D02*
X156023809Y-102317319D01*
X156023809Y-102317319D02*
X156119047Y-102364938D01*
X156119047Y-102364938D02*
X156166666Y-102412557D01*
X156166666Y-102412557D02*
X156214285Y-102507795D01*
X156214285Y-102507795D02*
X156214285Y-102650652D01*
X156214285Y-102650652D02*
X156166666Y-102745890D01*
X156166666Y-102745890D02*
X156119047Y-102793509D01*
X156119047Y-102793509D02*
X156023809Y-102841128D01*
X156023809Y-102841128D02*
X155642857Y-102841128D01*
X157166666Y-103317319D02*
X156595238Y-103317319D01*
X156880952Y-103317319D02*
X156880952Y-102317319D01*
X156880952Y-102317319D02*
X156785714Y-102460176D01*
X156785714Y-102460176D02*
X156690476Y-102555414D01*
X156690476Y-102555414D02*
X156595238Y-102603033D01*
X89579819Y-60697618D02*
X88579819Y-60697618D01*
X88579819Y-60697618D02*
X88579819Y-60459523D01*
X88579819Y-60459523D02*
X88627438Y-60316666D01*
X88627438Y-60316666D02*
X88722676Y-60221428D01*
X88722676Y-60221428D02*
X88817914Y-60173809D01*
X88817914Y-60173809D02*
X89008390Y-60126190D01*
X89008390Y-60126190D02*
X89151247Y-60126190D01*
X89151247Y-60126190D02*
X89341723Y-60173809D01*
X89341723Y-60173809D02*
X89436961Y-60221428D01*
X89436961Y-60221428D02*
X89532200Y-60316666D01*
X89532200Y-60316666D02*
X89579819Y-60459523D01*
X89579819Y-60459523D02*
X89579819Y-60697618D01*
X89579819Y-59697618D02*
X88913152Y-59697618D01*
X88579819Y-59697618D02*
X88627438Y-59745237D01*
X88627438Y-59745237D02*
X88675057Y-59697618D01*
X88675057Y-59697618D02*
X88627438Y-59649999D01*
X88627438Y-59649999D02*
X88579819Y-59697618D01*
X88579819Y-59697618D02*
X88675057Y-59697618D01*
X89532200Y-59269047D02*
X89579819Y-59173809D01*
X89579819Y-59173809D02*
X89579819Y-58983333D01*
X89579819Y-58983333D02*
X89532200Y-58888095D01*
X89532200Y-58888095D02*
X89436961Y-58840476D01*
X89436961Y-58840476D02*
X89389342Y-58840476D01*
X89389342Y-58840476D02*
X89294104Y-58888095D01*
X89294104Y-58888095D02*
X89246485Y-58983333D01*
X89246485Y-58983333D02*
X89246485Y-59126190D01*
X89246485Y-59126190D02*
X89198866Y-59221428D01*
X89198866Y-59221428D02*
X89103628Y-59269047D01*
X89103628Y-59269047D02*
X89056009Y-59269047D01*
X89056009Y-59269047D02*
X88960771Y-59221428D01*
X88960771Y-59221428D02*
X88913152Y-59126190D01*
X88913152Y-59126190D02*
X88913152Y-58983333D01*
X88913152Y-58983333D02*
X88960771Y-58888095D01*
X88913152Y-58411904D02*
X89913152Y-58411904D01*
X88960771Y-58411904D02*
X88913152Y-58316666D01*
X88913152Y-58316666D02*
X88913152Y-58126190D01*
X88913152Y-58126190D02*
X88960771Y-58030952D01*
X88960771Y-58030952D02*
X89008390Y-57983333D01*
X89008390Y-57983333D02*
X89103628Y-57935714D01*
X89103628Y-57935714D02*
X89389342Y-57935714D01*
X89389342Y-57935714D02*
X89484580Y-57983333D01*
X89484580Y-57983333D02*
X89532200Y-58030952D01*
X89532200Y-58030952D02*
X89579819Y-58126190D01*
X89579819Y-58126190D02*
X89579819Y-58316666D01*
X89579819Y-58316666D02*
X89532200Y-58411904D01*
X89579819Y-57364285D02*
X89532200Y-57459523D01*
X89532200Y-57459523D02*
X89436961Y-57507142D01*
X89436961Y-57507142D02*
X88579819Y-57507142D01*
X89579819Y-56554761D02*
X89056009Y-56554761D01*
X89056009Y-56554761D02*
X88960771Y-56602380D01*
X88960771Y-56602380D02*
X88913152Y-56697618D01*
X88913152Y-56697618D02*
X88913152Y-56888094D01*
X88913152Y-56888094D02*
X88960771Y-56983332D01*
X89532200Y-56554761D02*
X89579819Y-56649999D01*
X89579819Y-56649999D02*
X89579819Y-56888094D01*
X89579819Y-56888094D02*
X89532200Y-56983332D01*
X89532200Y-56983332D02*
X89436961Y-57030951D01*
X89436961Y-57030951D02*
X89341723Y-57030951D01*
X89341723Y-57030951D02*
X89246485Y-56983332D01*
X89246485Y-56983332D02*
X89198866Y-56888094D01*
X89198866Y-56888094D02*
X89198866Y-56649999D01*
X89198866Y-56649999D02*
X89151247Y-56554761D01*
X88913152Y-56173808D02*
X89579819Y-55935713D01*
X88913152Y-55697618D02*
X89579819Y-55935713D01*
X89579819Y-55935713D02*
X89817914Y-56030951D01*
X89817914Y-56030951D02*
X89865533Y-56078570D01*
X89865533Y-56078570D02*
X89913152Y-56173808D01*
X89532200Y-54602379D02*
X89579819Y-54459522D01*
X89579819Y-54459522D02*
X89579819Y-54221427D01*
X89579819Y-54221427D02*
X89532200Y-54126189D01*
X89532200Y-54126189D02*
X89484580Y-54078570D01*
X89484580Y-54078570D02*
X89389342Y-54030951D01*
X89389342Y-54030951D02*
X89294104Y-54030951D01*
X89294104Y-54030951D02*
X89198866Y-54078570D01*
X89198866Y-54078570D02*
X89151247Y-54126189D01*
X89151247Y-54126189D02*
X89103628Y-54221427D01*
X89103628Y-54221427D02*
X89056009Y-54411903D01*
X89056009Y-54411903D02*
X89008390Y-54507141D01*
X89008390Y-54507141D02*
X88960771Y-54554760D01*
X88960771Y-54554760D02*
X88865533Y-54602379D01*
X88865533Y-54602379D02*
X88770295Y-54602379D01*
X88770295Y-54602379D02*
X88675057Y-54554760D01*
X88675057Y-54554760D02*
X88627438Y-54507141D01*
X88627438Y-54507141D02*
X88579819Y-54411903D01*
X88579819Y-54411903D02*
X88579819Y-54173808D01*
X88579819Y-54173808D02*
X88627438Y-54030951D01*
X89579819Y-53602379D02*
X88579819Y-53602379D01*
X88579819Y-53602379D02*
X88579819Y-53221427D01*
X88579819Y-53221427D02*
X88627438Y-53126189D01*
X88627438Y-53126189D02*
X88675057Y-53078570D01*
X88675057Y-53078570D02*
X88770295Y-53030951D01*
X88770295Y-53030951D02*
X88913152Y-53030951D01*
X88913152Y-53030951D02*
X89008390Y-53078570D01*
X89008390Y-53078570D02*
X89056009Y-53126189D01*
X89056009Y-53126189D02*
X89103628Y-53221427D01*
X89103628Y-53221427D02*
X89103628Y-53602379D01*
X89579819Y-52602379D02*
X88579819Y-52602379D01*
X212711009Y-86333333D02*
X212711009Y-86666666D01*
X213234819Y-86666666D02*
X212234819Y-86666666D01*
X212234819Y-86666666D02*
X212234819Y-86190476D01*
X213234819Y-85285714D02*
X213234819Y-85857142D01*
X213234819Y-85571428D02*
X212234819Y-85571428D01*
X212234819Y-85571428D02*
X212377676Y-85666666D01*
X212377676Y-85666666D02*
X212472914Y-85761904D01*
X212472914Y-85761904D02*
X212520533Y-85857142D01*
D13*
X235501355Y-61371428D02*
X235501355Y-61714285D01*
X235501355Y-61542856D02*
X234701355Y-61542856D01*
X234701355Y-61542856D02*
X234815640Y-61599999D01*
X234815640Y-61599999D02*
X234891831Y-61657142D01*
X234891831Y-61657142D02*
X234929926Y-61714285D01*
X235501355Y-61114284D02*
X234701355Y-61114284D01*
X235196593Y-61057142D02*
X235501355Y-60885713D01*
X234968021Y-60885713D02*
X235272783Y-61114284D01*
D10*
X215026190Y-54181009D02*
X214692857Y-54181009D01*
X214692857Y-54704819D02*
X214692857Y-53704819D01*
X214692857Y-53704819D02*
X215169047Y-53704819D01*
X215550000Y-54704819D02*
X215550000Y-54038152D01*
X215550000Y-53704819D02*
X215502381Y-53752438D01*
X215502381Y-53752438D02*
X215550000Y-53800057D01*
X215550000Y-53800057D02*
X215597619Y-53752438D01*
X215597619Y-53752438D02*
X215550000Y-53704819D01*
X215550000Y-53704819D02*
X215550000Y-53800057D01*
X216169047Y-54704819D02*
X216073809Y-54657200D01*
X216073809Y-54657200D02*
X216026190Y-54561961D01*
X216026190Y-54561961D02*
X216026190Y-53704819D01*
X216407143Y-54038152D02*
X216788095Y-54038152D01*
X216550000Y-53704819D02*
X216550000Y-54561961D01*
X216550000Y-54561961D02*
X216597619Y-54657200D01*
X216597619Y-54657200D02*
X216692857Y-54704819D01*
X216692857Y-54704819D02*
X216788095Y-54704819D01*
X217502381Y-54657200D02*
X217407143Y-54704819D01*
X217407143Y-54704819D02*
X217216667Y-54704819D01*
X217216667Y-54704819D02*
X217121429Y-54657200D01*
X217121429Y-54657200D02*
X217073810Y-54561961D01*
X217073810Y-54561961D02*
X217073810Y-54181009D01*
X217073810Y-54181009D02*
X217121429Y-54085771D01*
X217121429Y-54085771D02*
X217216667Y-54038152D01*
X217216667Y-54038152D02*
X217407143Y-54038152D01*
X217407143Y-54038152D02*
X217502381Y-54085771D01*
X217502381Y-54085771D02*
X217550000Y-54181009D01*
X217550000Y-54181009D02*
X217550000Y-54276247D01*
X217550000Y-54276247D02*
X217073810Y-54371485D01*
X217978572Y-54704819D02*
X217978572Y-54038152D01*
X217978572Y-54228628D02*
X218026191Y-54133390D01*
X218026191Y-54133390D02*
X218073810Y-54085771D01*
X218073810Y-54085771D02*
X218169048Y-54038152D01*
X218169048Y-54038152D02*
X218264286Y-54038152D01*
X218359525Y-54800057D02*
X219121429Y-54800057D01*
X219359525Y-54181009D02*
X219692858Y-54181009D01*
X219835715Y-54704819D02*
X219359525Y-54704819D01*
X219359525Y-54704819D02*
X219359525Y-53704819D01*
X219359525Y-53704819D02*
X219835715Y-53704819D01*
X220264287Y-54704819D02*
X220264287Y-53704819D01*
X220264287Y-53704819D02*
X220597620Y-54419104D01*
X220597620Y-54419104D02*
X220930953Y-53704819D01*
X220930953Y-53704819D02*
X220930953Y-54704819D01*
X221407144Y-54704819D02*
X221407144Y-53704819D01*
D13*
X136575000Y-78305000D02*
X136575000Y-77505000D01*
X136175000Y-77905000D02*
X136975000Y-77905000D01*
X133820000Y-75430000D02*
X141980000Y-75430000D01*
X133820000Y-75390000D02*
X141980000Y-75390000D01*
X133821000Y-75350000D02*
X141979000Y-75350000D01*
X133822000Y-75310000D02*
X141978000Y-75310000D01*
X133823000Y-75270000D02*
X141977000Y-75270000D01*
X133825000Y-75230000D02*
X141975000Y-75230000D01*
X133827000Y-75190000D02*
X141973000Y-75190000D01*
X133830000Y-75150000D02*
X141970000Y-75150000D01*
X133832000Y-75110000D02*
X141968000Y-75110000D01*
X133836000Y-75070000D02*
X141964000Y-75070000D01*
X133839000Y-75030000D02*
X141961000Y-75030000D01*
X133844000Y-74990000D02*
X141956000Y-74990000D01*
X133848000Y-74950000D02*
X141952000Y-74950000D01*
X133853000Y-74910000D02*
X141947000Y-74910000D01*
X133858000Y-74870000D02*
X141942000Y-74870000D01*
X133864000Y-74830000D02*
X141936000Y-74830000D01*
X133870000Y-74790000D02*
X141930000Y-74790000D01*
X133877000Y-74750000D02*
X141923000Y-74750000D01*
X133883000Y-74710000D02*
X141917000Y-74710000D01*
X133891000Y-74670000D02*
X141909000Y-74670000D01*
X133898000Y-74630000D02*
X141902000Y-74630000D01*
X133907000Y-74590000D02*
X141893000Y-74590000D01*
X133915000Y-74550000D02*
X141885000Y-74550000D01*
X133924000Y-74510000D02*
X141876000Y-74510000D01*
X133933000Y-74470000D02*
X141867000Y-74470000D01*
X133943000Y-74430000D02*
X141857000Y-74430000D01*
X133953000Y-74390000D02*
X141847000Y-74390000D01*
X133964000Y-74350000D02*
X141836000Y-74350000D01*
X133975000Y-74310000D02*
X141825000Y-74310000D01*
X133987000Y-74270000D02*
X141813000Y-74270000D01*
X133999000Y-74230000D02*
X141801000Y-74230000D01*
X134011000Y-74190000D02*
X141789000Y-74190000D01*
X134024000Y-74150000D02*
X141776000Y-74150000D01*
X134037000Y-74110000D02*
X141763000Y-74110000D01*
X134051000Y-74070000D02*
X141749000Y-74070000D01*
X134065000Y-74030000D02*
X141735000Y-74030000D01*
X134080000Y-73990000D02*
X141720000Y-73990000D01*
X134095000Y-73950000D02*
X136860000Y-73950000D01*
X138940000Y-73950000D02*
X141705000Y-73950000D01*
X134111000Y-73910000D02*
X136860000Y-73910000D01*
X138940000Y-73910000D02*
X141689000Y-73910000D01*
X134127000Y-73870000D02*
X136860000Y-73870000D01*
X138940000Y-73870000D02*
X141673000Y-73870000D01*
X134143000Y-73830000D02*
X136860000Y-73830000D01*
X138940000Y-73830000D02*
X141657000Y-73830000D01*
X134160000Y-73790000D02*
X136860000Y-73790000D01*
X138940000Y-73790000D02*
X141640000Y-73790000D01*
X134178000Y-73750000D02*
X136860000Y-73750000D01*
X138940000Y-73750000D02*
X141622000Y-73750000D01*
X134196000Y-73710000D02*
X136860000Y-73710000D01*
X138940000Y-73710000D02*
X141604000Y-73710000D01*
X134215000Y-73670000D02*
X136860000Y-73670000D01*
X138940000Y-73670000D02*
X141585000Y-73670000D01*
X134234000Y-73630000D02*
X136860000Y-73630000D01*
X138940000Y-73630000D02*
X141566000Y-73630000D01*
X134254000Y-73590000D02*
X136860000Y-73590000D01*
X138940000Y-73590000D02*
X141546000Y-73590000D01*
X134274000Y-73550000D02*
X136860000Y-73550000D01*
X138940000Y-73550000D02*
X141526000Y-73550000D01*
X134295000Y-73510000D02*
X136860000Y-73510000D01*
X138940000Y-73510000D02*
X141505000Y-73510000D01*
X134316000Y-73470000D02*
X136860000Y-73470000D01*
X138940000Y-73470000D02*
X141484000Y-73470000D01*
X134338000Y-73430000D02*
X136860000Y-73430000D01*
X138940000Y-73430000D02*
X141462000Y-73430000D01*
X134361000Y-73390000D02*
X136860000Y-73390000D01*
X138940000Y-73390000D02*
X141439000Y-73390000D01*
X134384000Y-73350000D02*
X136860000Y-73350000D01*
X138940000Y-73350000D02*
X141416000Y-73350000D01*
X134407000Y-73310000D02*
X136860000Y-73310000D01*
X138940000Y-73310000D02*
X141393000Y-73310000D01*
X134432000Y-73270000D02*
X136860000Y-73270000D01*
X138940000Y-73270000D02*
X141368000Y-73270000D01*
X134457000Y-73230000D02*
X136860000Y-73230000D01*
X138940000Y-73230000D02*
X141343000Y-73230000D01*
X134482000Y-73190000D02*
X136860000Y-73190000D01*
X138940000Y-73190000D02*
X141318000Y-73190000D01*
X134508000Y-73150000D02*
X136860000Y-73150000D01*
X138940000Y-73150000D02*
X141292000Y-73150000D01*
X134535000Y-73110000D02*
X136860000Y-73110000D01*
X138940000Y-73110000D02*
X141265000Y-73110000D01*
X134563000Y-73070000D02*
X136860000Y-73070000D01*
X138940000Y-73070000D02*
X141237000Y-73070000D01*
X134591000Y-73030000D02*
X136860000Y-73030000D01*
X138940000Y-73030000D02*
X141209000Y-73030000D01*
X134620000Y-72990000D02*
X136860000Y-72990000D01*
X138940000Y-72990000D02*
X141180000Y-72990000D01*
X134650000Y-72950000D02*
X136860000Y-72950000D01*
X138940000Y-72950000D02*
X141150000Y-72950000D01*
X134681000Y-72910000D02*
X136860000Y-72910000D01*
X138940000Y-72910000D02*
X141119000Y-72910000D01*
X134712000Y-72870000D02*
X136860000Y-72870000D01*
X138940000Y-72870000D02*
X141088000Y-72870000D01*
X134744000Y-72830000D02*
X136860000Y-72830000D01*
X138940000Y-72830000D02*
X141056000Y-72830000D01*
X134777000Y-72790000D02*
X136860000Y-72790000D01*
X138940000Y-72790000D02*
X141023000Y-72790000D01*
X134811000Y-72750000D02*
X136860000Y-72750000D01*
X138940000Y-72750000D02*
X140989000Y-72750000D01*
X134845000Y-72710000D02*
X136860000Y-72710000D01*
X138940000Y-72710000D02*
X140955000Y-72710000D01*
X134881000Y-72670000D02*
X136860000Y-72670000D01*
X138940000Y-72670000D02*
X140919000Y-72670000D01*
X134918000Y-72630000D02*
X136860000Y-72630000D01*
X138940000Y-72630000D02*
X140882000Y-72630000D01*
X134955000Y-72590000D02*
X136860000Y-72590000D01*
X138940000Y-72590000D02*
X140845000Y-72590000D01*
X134994000Y-72550000D02*
X136860000Y-72550000D01*
X138940000Y-72550000D02*
X140806000Y-72550000D01*
X135033000Y-72510000D02*
X136860000Y-72510000D01*
X138940000Y-72510000D02*
X140767000Y-72510000D01*
X135074000Y-72470000D02*
X136860000Y-72470000D01*
X138940000Y-72470000D02*
X140726000Y-72470000D01*
X135116000Y-72430000D02*
X136860000Y-72430000D01*
X138940000Y-72430000D02*
X140684000Y-72430000D01*
X135159000Y-72390000D02*
X136860000Y-72390000D01*
X138940000Y-72390000D02*
X140641000Y-72390000D01*
X135204000Y-72350000D02*
X136860000Y-72350000D01*
X138940000Y-72350000D02*
X140596000Y-72350000D01*
X135249000Y-72310000D02*
X136860000Y-72310000D01*
X138940000Y-72310000D02*
X140551000Y-72310000D01*
X135296000Y-72270000D02*
X136860000Y-72270000D01*
X138940000Y-72270000D02*
X140504000Y-72270000D01*
X135345000Y-72230000D02*
X136860000Y-72230000D01*
X138940000Y-72230000D02*
X140455000Y-72230000D01*
X135395000Y-72190000D02*
X136860000Y-72190000D01*
X138940000Y-72190000D02*
X140405000Y-72190000D01*
X135447000Y-72150000D02*
X136860000Y-72150000D01*
X138940000Y-72150000D02*
X140353000Y-72150000D01*
X135500000Y-72110000D02*
X136860000Y-72110000D01*
X138940000Y-72110000D02*
X140300000Y-72110000D01*
X135556000Y-72070000D02*
X136860000Y-72070000D01*
X138940000Y-72070000D02*
X140244000Y-72070000D01*
X135613000Y-72030000D02*
X136860000Y-72030000D01*
X138940000Y-72030000D02*
X140187000Y-72030000D01*
X135673000Y-71990000D02*
X136860000Y-71990000D01*
X138940000Y-71990000D02*
X140127000Y-71990000D01*
X135735000Y-71950000D02*
X136860000Y-71950000D01*
X138940000Y-71950000D02*
X140065000Y-71950000D01*
X135799000Y-71910000D02*
X136860000Y-71910000D01*
X138940000Y-71910000D02*
X140001000Y-71910000D01*
X135866000Y-71870000D02*
X139934000Y-71870000D01*
X135936000Y-71830000D02*
X139864000Y-71830000D01*
X136010000Y-71790000D02*
X139790000Y-71790000D01*
X136087000Y-71750000D02*
X139713000Y-71750000D01*
X136169000Y-71710000D02*
X139631000Y-71710000D01*
X136256000Y-71670000D02*
X139544000Y-71670000D01*
X136348000Y-71630000D02*
X139452000Y-71630000D01*
X136447000Y-71590000D02*
X139353000Y-71590000D01*
X136554000Y-71550000D02*
X139246000Y-71550000D01*
X136672000Y-71510000D02*
X139128000Y-71510000D01*
X136803000Y-71470000D02*
X138997000Y-71470000D01*
X136953000Y-71430000D02*
X138847000Y-71430000D01*
X137132000Y-71390000D02*
X138668000Y-71390000D01*
X137367000Y-71350000D02*
X138433000Y-71350000D01*
X142020000Y-75430000D02*
G75*
G02*
X133780000Y-75430000I-4120000J0D01*
G01*
X133780000Y-75430000D02*
G75*
G02*
X142020000Y-75430000I4120000J0D01*
G01*
X231040000Y-131010000D02*
G75*
G02*
X222800000Y-131010000I-4120000J0D01*
G01*
X222800000Y-131010000D02*
G75*
G02*
X231040000Y-131010000I4120000J0D01*
G01*
X227453000Y-135090000D02*
X226387000Y-135090000D01*
X227688000Y-135050000D02*
X226152000Y-135050000D01*
X227867000Y-135010000D02*
X225973000Y-135010000D01*
X228017000Y-134970000D02*
X225823000Y-134970000D01*
X228148000Y-134930000D02*
X225692000Y-134930000D01*
X228266000Y-134890000D02*
X225574000Y-134890000D01*
X228373000Y-134850000D02*
X225467000Y-134850000D01*
X228472000Y-134810000D02*
X225368000Y-134810000D01*
X228564000Y-134770000D02*
X225276000Y-134770000D01*
X228651000Y-134730000D02*
X225189000Y-134730000D01*
X228733000Y-134690000D02*
X225107000Y-134690000D01*
X228810000Y-134650000D02*
X225030000Y-134650000D01*
X228884000Y-134610000D02*
X224956000Y-134610000D01*
X228954000Y-134570000D02*
X224886000Y-134570000D01*
X225880000Y-134530000D02*
X224819000Y-134530000D01*
X229021000Y-134530000D02*
X227960000Y-134530000D01*
X225880000Y-134490000D02*
X224755000Y-134490000D01*
X229085000Y-134490000D02*
X227960000Y-134490000D01*
X225880000Y-134450000D02*
X224693000Y-134450000D01*
X229147000Y-134450000D02*
X227960000Y-134450000D01*
X225880000Y-134410000D02*
X224633000Y-134410000D01*
X229207000Y-134410000D02*
X227960000Y-134410000D01*
X225880000Y-134370000D02*
X224576000Y-134370000D01*
X229264000Y-134370000D02*
X227960000Y-134370000D01*
X225880000Y-134330000D02*
X224520000Y-134330000D01*
X229320000Y-134330000D02*
X227960000Y-134330000D01*
X225880000Y-134290000D02*
X224467000Y-134290000D01*
X229373000Y-134290000D02*
X227960000Y-134290000D01*
X225880000Y-134250000D02*
X224415000Y-134250000D01*
X229425000Y-134250000D02*
X227960000Y-134250000D01*
X225880000Y-134210000D02*
X224365000Y-134210000D01*
X229475000Y-134210000D02*
X227960000Y-134210000D01*
X225880000Y-134170000D02*
X224316000Y-134170000D01*
X229524000Y-134170000D02*
X227960000Y-134170000D01*
X225880000Y-134130000D02*
X224269000Y-134130000D01*
X229571000Y-134130000D02*
X227960000Y-134130000D01*
X225880000Y-134090000D02*
X224224000Y-134090000D01*
X229616000Y-134090000D02*
X227960000Y-134090000D01*
X225880000Y-134050000D02*
X224179000Y-134050000D01*
X229661000Y-134050000D02*
X227960000Y-134050000D01*
X225880000Y-134010000D02*
X224136000Y-134010000D01*
X229704000Y-134010000D02*
X227960000Y-134010000D01*
X225880000Y-133970000D02*
X224094000Y-133970000D01*
X229746000Y-133970000D02*
X227960000Y-133970000D01*
X225880000Y-133930000D02*
X224053000Y-133930000D01*
X229787000Y-133930000D02*
X227960000Y-133930000D01*
X225880000Y-133890000D02*
X224014000Y-133890000D01*
X229826000Y-133890000D02*
X227960000Y-133890000D01*
X225880000Y-133850000D02*
X223975000Y-133850000D01*
X229865000Y-133850000D02*
X227960000Y-133850000D01*
X225880000Y-133810000D02*
X223938000Y-133810000D01*
X229902000Y-133810000D02*
X227960000Y-133810000D01*
X225880000Y-133770000D02*
X223901000Y-133770000D01*
X229939000Y-133770000D02*
X227960000Y-133770000D01*
X225880000Y-133730000D02*
X223865000Y-133730000D01*
X229975000Y-133730000D02*
X227960000Y-133730000D01*
X225880000Y-133690000D02*
X223831000Y-133690000D01*
X230009000Y-133690000D02*
X227960000Y-133690000D01*
X225880000Y-133650000D02*
X223797000Y-133650000D01*
X230043000Y-133650000D02*
X227960000Y-133650000D01*
X225880000Y-133610000D02*
X223764000Y-133610000D01*
X230076000Y-133610000D02*
X227960000Y-133610000D01*
X225880000Y-133570000D02*
X223732000Y-133570000D01*
X230108000Y-133570000D02*
X227960000Y-133570000D01*
X225880000Y-133530000D02*
X223701000Y-133530000D01*
X230139000Y-133530000D02*
X227960000Y-133530000D01*
X225880000Y-133490000D02*
X223670000Y-133490000D01*
X230170000Y-133490000D02*
X227960000Y-133490000D01*
X225880000Y-133450000D02*
X223640000Y-133450000D01*
X230200000Y-133450000D02*
X227960000Y-133450000D01*
X225880000Y-133410000D02*
X223611000Y-133410000D01*
X230229000Y-133410000D02*
X227960000Y-133410000D01*
X225880000Y-133370000D02*
X223583000Y-133370000D01*
X230257000Y-133370000D02*
X227960000Y-133370000D01*
X225880000Y-133330000D02*
X223555000Y-133330000D01*
X230285000Y-133330000D02*
X227960000Y-133330000D01*
X225880000Y-133290000D02*
X223528000Y-133290000D01*
X230312000Y-133290000D02*
X227960000Y-133290000D01*
X225880000Y-133250000D02*
X223502000Y-133250000D01*
X230338000Y-133250000D02*
X227960000Y-133250000D01*
X225880000Y-133210000D02*
X223477000Y-133210000D01*
X230363000Y-133210000D02*
X227960000Y-133210000D01*
X225880000Y-133170000D02*
X223452000Y-133170000D01*
X230388000Y-133170000D02*
X227960000Y-133170000D01*
X225880000Y-133130000D02*
X223427000Y-133130000D01*
X230413000Y-133130000D02*
X227960000Y-133130000D01*
X225880000Y-133090000D02*
X223404000Y-133090000D01*
X230436000Y-133090000D02*
X227960000Y-133090000D01*
X225880000Y-133050000D02*
X223381000Y-133050000D01*
X230459000Y-133050000D02*
X227960000Y-133050000D01*
X225880000Y-133010000D02*
X223358000Y-133010000D01*
X230482000Y-133010000D02*
X227960000Y-133010000D01*
X225880000Y-132970000D02*
X223336000Y-132970000D01*
X230504000Y-132970000D02*
X227960000Y-132970000D01*
X225880000Y-132930000D02*
X223315000Y-132930000D01*
X230525000Y-132930000D02*
X227960000Y-132930000D01*
X225880000Y-132890000D02*
X223294000Y-132890000D01*
X230546000Y-132890000D02*
X227960000Y-132890000D01*
X225880000Y-132850000D02*
X223274000Y-132850000D01*
X230566000Y-132850000D02*
X227960000Y-132850000D01*
X225880000Y-132810000D02*
X223254000Y-132810000D01*
X230586000Y-132810000D02*
X227960000Y-132810000D01*
X225880000Y-132770000D02*
X223235000Y-132770000D01*
X230605000Y-132770000D02*
X227960000Y-132770000D01*
X225880000Y-132730000D02*
X223216000Y-132730000D01*
X230624000Y-132730000D02*
X227960000Y-132730000D01*
X225880000Y-132690000D02*
X223198000Y-132690000D01*
X230642000Y-132690000D02*
X227960000Y-132690000D01*
X225880000Y-132650000D02*
X223180000Y-132650000D01*
X230660000Y-132650000D02*
X227960000Y-132650000D01*
X225880000Y-132610000D02*
X223163000Y-132610000D01*
X230677000Y-132610000D02*
X227960000Y-132610000D01*
X225880000Y-132570000D02*
X223147000Y-132570000D01*
X230693000Y-132570000D02*
X227960000Y-132570000D01*
X225880000Y-132530000D02*
X223131000Y-132530000D01*
X230709000Y-132530000D02*
X227960000Y-132530000D01*
X225880000Y-132490000D02*
X223115000Y-132490000D01*
X230725000Y-132490000D02*
X227960000Y-132490000D01*
X230740000Y-132450000D02*
X223100000Y-132450000D01*
X230755000Y-132410000D02*
X223085000Y-132410000D01*
X230769000Y-132370000D02*
X223071000Y-132370000D01*
X230783000Y-132330000D02*
X223057000Y-132330000D01*
X230796000Y-132290000D02*
X223044000Y-132290000D01*
X230809000Y-132250000D02*
X223031000Y-132250000D01*
X230821000Y-132210000D02*
X223019000Y-132210000D01*
X230833000Y-132170000D02*
X223007000Y-132170000D01*
X230845000Y-132130000D02*
X222995000Y-132130000D01*
X230856000Y-132090000D02*
X222984000Y-132090000D01*
X230867000Y-132050000D02*
X222973000Y-132050000D01*
X230877000Y-132010000D02*
X222963000Y-132010000D01*
X230887000Y-131970000D02*
X222953000Y-131970000D01*
X230896000Y-131930000D02*
X222944000Y-131930000D01*
X230905000Y-131890000D02*
X222935000Y-131890000D01*
X230913000Y-131850000D02*
X222927000Y-131850000D01*
X230922000Y-131810000D02*
X222918000Y-131810000D01*
X230929000Y-131770000D02*
X222911000Y-131770000D01*
X230937000Y-131730000D02*
X222903000Y-131730000D01*
X230943000Y-131690000D02*
X222897000Y-131690000D01*
X230950000Y-131650000D02*
X222890000Y-131650000D01*
X230956000Y-131610000D02*
X222884000Y-131610000D01*
X230962000Y-131570000D02*
X222878000Y-131570000D01*
X230967000Y-131530000D02*
X222873000Y-131530000D01*
X230972000Y-131490000D02*
X222868000Y-131490000D01*
X230976000Y-131450000D02*
X222864000Y-131450000D01*
X230981000Y-131410000D02*
X222859000Y-131410000D01*
X230984000Y-131370000D02*
X222856000Y-131370000D01*
X230988000Y-131330000D02*
X222852000Y-131330000D01*
X230990000Y-131290000D02*
X222850000Y-131290000D01*
X230993000Y-131250000D02*
X222847000Y-131250000D01*
X230995000Y-131210000D02*
X222845000Y-131210000D01*
X230997000Y-131170000D02*
X222843000Y-131170000D01*
X230998000Y-131130000D02*
X222842000Y-131130000D01*
X230999000Y-131090000D02*
X222841000Y-131090000D01*
X231000000Y-131050000D02*
X222840000Y-131050000D01*
X231000000Y-131010000D02*
X222840000Y-131010000D01*
X228645000Y-128535000D02*
X227845000Y-128535000D01*
X228245000Y-128135000D02*
X228245000Y-128935000D01*
X136990000Y-60989564D02*
X136990000Y-59535436D01*
X138810000Y-60989564D02*
X138810000Y-59535436D01*
X140950000Y-57267500D02*
X140950000Y-62467500D01*
X140950000Y-57267500D02*
X143250000Y-57267500D01*
X140950000Y-62467500D02*
X143850000Y-62467500D01*
X143850000Y-57832885D02*
X143850000Y-62467500D01*
X143850000Y-57832885D02*
X143250000Y-57267500D01*
X143850000Y-57267500D01*
X143850000Y-57832885D01*
G36*
X143850000Y-57832885D02*
G01*
X143250000Y-57267500D01*
X143850000Y-57267500D01*
X143850000Y-57832885D01*
G37*
X92222936Y-126990000D02*
X93677064Y-126990000D01*
X92222936Y-128810000D02*
X93677064Y-128810000D01*
X171331399Y-101795000D02*
X171336325Y-112770000D01*
X174746175Y-112770000D02*
X171336325Y-112770000D01*
X174746176Y-101800209D02*
X171336325Y-101789791D01*
X174746176Y-101800209D02*
X174746175Y-112770000D01*
X92222936Y-131790000D02*
X93677064Y-131790000D01*
X92222936Y-133610000D02*
X93677064Y-133610000D01*
X167865000Y-78402500D02*
X169125000Y-78402500D01*
X167865000Y-82162500D02*
X167865000Y-78402500D01*
X174685000Y-78402500D02*
X173425000Y-78402500D01*
X174685000Y-82162500D02*
X174685000Y-78402500D01*
X167965000Y-83442500D02*
X167635000Y-83682500D01*
X167635000Y-83202500D01*
X167965000Y-83442500D01*
G36*
X167965000Y-83442500D02*
G01*
X167635000Y-83682500D01*
X167635000Y-83202500D01*
X167965000Y-83442500D01*
G37*
X103890000Y-79378748D02*
X103890000Y-80801252D01*
X105710000Y-79378748D02*
X105710000Y-80801252D01*
X150982500Y-82450000D02*
X150982500Y-84950000D01*
X150982500Y-84950000D02*
X155392500Y-84950000D01*
X151082500Y-82450000D02*
X151082500Y-84950000D01*
X151182500Y-82450000D02*
X151182500Y-84950000D01*
X155392500Y-82450000D02*
X150982500Y-82450000D01*
X101560000Y-70450000D02*
X101560000Y-44900000D01*
X101560000Y-70450000D02*
X104010000Y-70450000D01*
X104010000Y-70450000D02*
X104010000Y-77450000D01*
X104010000Y-77450000D02*
X127260000Y-77450000D01*
X125210000Y-42850000D02*
X103610000Y-42850000D01*
X127260000Y-77450000D02*
X127260000Y-44900000D01*
X101560000Y-44900000D02*
G75*
G02*
X103610000Y-42850000I2050000J0D01*
G01*
X125210000Y-42850000D02*
G75*
G02*
X127260000Y-44900000I0J-2050000D01*
G01*
X101105000Y-51200000D02*
X100470000Y-51835000D01*
X100470000Y-50565000D01*
X101105000Y-51200000D01*
G36*
X101105000Y-51200000D02*
G01*
X100470000Y-51835000D01*
X100470000Y-50565000D01*
X101105000Y-51200000D01*
G37*
X85198041Y-123740781D02*
X85198041Y-136560781D01*
X85198041Y-123740781D02*
X99600000Y-123740000D01*
X85198041Y-136560781D02*
X99600000Y-136560000D01*
X99600000Y-123740000D02*
X99600000Y-136560000D01*
X209390000Y-70665000D02*
X209390000Y-68730000D01*
X209390000Y-74270000D02*
X209390000Y-72335000D01*
X220630000Y-68730000D02*
X209390000Y-68730000D01*
X220630000Y-70665000D02*
X220630000Y-68730000D01*
X220630000Y-74270000D02*
X209390000Y-74270000D01*
X220630000Y-74270000D02*
X220630000Y-72335000D01*
X109130000Y-53691252D02*
X109130000Y-52268748D01*
X110950000Y-53691252D02*
X110950000Y-52268748D01*
X181050000Y-44400000D02*
X181050000Y-82400000D01*
X201350000Y-44150000D02*
X204350000Y-44150000D01*
X204050000Y-44400000D02*
X181050000Y-44400000D01*
X204050000Y-44400000D02*
X204050000Y-82400000D01*
X204050000Y-82400000D02*
X181050000Y-82400000D01*
X204350000Y-44150000D02*
X204350000Y-47150000D01*
X175785000Y-99680000D02*
X175785000Y-114920000D01*
X187785000Y-99680000D02*
X175785000Y-99680000D01*
X187785000Y-99680000D02*
X187785000Y-114920000D01*
X187785000Y-114920000D02*
X175785000Y-114920000D01*
X158700000Y-94487500D02*
X160000000Y-94487500D01*
X160000000Y-94487500D02*
X160000000Y-95787500D01*
X160250000Y-94262500D02*
X151750000Y-94262500D01*
X151750000Y-111462500D01*
X160250000Y-111462500D01*
X160250000Y-94262500D01*
X84720000Y-66240000D02*
X84720000Y-48400000D01*
X87380000Y-48400000D02*
X84720000Y-48400000D01*
X87380000Y-66240000D02*
X84720000Y-66240000D01*
X87380000Y-66240000D02*
X87380000Y-48400000D01*
X87380000Y-67510000D02*
X87380000Y-68840000D01*
X87380000Y-68840000D02*
X86050000Y-68840000D01*
X107090000Y-79378748D02*
X107090000Y-80801252D01*
X108910000Y-79378748D02*
X108910000Y-80801252D01*
X161179564Y-82760000D02*
X159725436Y-82760000D01*
X161179564Y-84580000D02*
X159725436Y-84580000D01*
X200460000Y-126683400D02*
X200460000Y-141303400D01*
X200460000Y-141303400D02*
X200980000Y-141303400D01*
X200980000Y-126683400D02*
X200460000Y-126683400D01*
X200980000Y-127333400D02*
X200980000Y-126683400D01*
X200980000Y-127333400D02*
X209090000Y-127333400D01*
X200980000Y-141303400D02*
X200980000Y-140653400D01*
X209090000Y-140653400D02*
X200980000Y-140653400D01*
X215940000Y-127333400D02*
X212610000Y-127333400D01*
X215940000Y-127333400D02*
X215940000Y-140653400D01*
X215940000Y-140653400D02*
X212610000Y-140653400D01*
X216160000Y-129593400D02*
X216160000Y-131393400D01*
X211070000Y-88052064D02*
X211070000Y-83947936D01*
X214490000Y-88052064D02*
X214490000Y-83947936D01*
X234410436Y-60390000D02*
X235864564Y-60390000D01*
X234410436Y-62210000D02*
X235864564Y-62210000D01*
X232550000Y-68850000D02*
X232550000Y-66550000D01*
X232550000Y-68850000D02*
X237750000Y-68850000D01*
X233115385Y-65950000D02*
X237750000Y-65950000D01*
X237750000Y-68850000D02*
X237750000Y-65950000D01*
X232550000Y-66550000D02*
X232550000Y-65950000D01*
X233115385Y-65950000D01*
X232550000Y-66550000D01*
G36*
X232550000Y-66550000D02*
G01*
X232550000Y-65950000D01*
X233115385Y-65950000D01*
X232550000Y-66550000D01*
G37*
X119240000Y-99530000D02*
X131240000Y-99530000D01*
X119240000Y-114770000D02*
X119240000Y-99530000D01*
X119240000Y-114770000D02*
X131240000Y-114770000D01*
X131240000Y-114770000D02*
X131240000Y-99530000D01*
X209100000Y-44200000D02*
X209100000Y-64200000D01*
X209100000Y-64200000D02*
X227100000Y-64200000D01*
X226100000Y-44200000D02*
X209100000Y-44200000D01*
X227100000Y-45200000D02*
X226100000Y-44200000D01*
X227100000Y-64200000D02*
X227100000Y-45200000D01*
X132305074Y-112629791D02*
X132305075Y-101660000D01*
X132305074Y-112629791D02*
X135714925Y-112640209D01*
X132305075Y-101660000D02*
X135714925Y-101660000D01*
X135719851Y-112635000D02*
X135714925Y-101660000D01*
%LPC*%
D16*
X137900000Y-77930000D03*
D17*
X137900000Y-72930000D03*
X226920000Y-133510000D03*
D16*
X226920000Y-128510000D03*
D18*
X137900000Y-61725000D03*
X137900000Y-58800000D03*
D19*
X142400000Y-61017500D03*
D20*
X142400000Y-58442500D03*
D21*
X91487500Y-127900000D03*
X94412500Y-127900000D03*
D22*
X173041250Y-103470000D03*
X173041250Y-111090000D03*
D21*
X91487500Y-132700000D03*
X94412500Y-132700000D03*
D23*
X168975000Y-83462500D03*
X171275000Y-83462500D03*
X173575000Y-83462500D03*
D24*
X171275000Y-77162500D03*
D25*
X104800000Y-78527500D03*
X104800000Y-81652500D03*
D26*
X152157500Y-83700000D03*
D27*
X156007500Y-83700000D03*
D28*
X103010000Y-51200000D03*
D29*
X103010000Y-53740000D03*
X103010000Y-56280000D03*
X103010000Y-58820000D03*
X103010000Y-61360000D03*
X103010000Y-63900000D03*
X103010000Y-66440000D03*
X103010000Y-68980000D03*
X125870000Y-68980000D03*
X125870000Y-66440000D03*
X125870000Y-63900000D03*
X125870000Y-61360000D03*
X125870000Y-58820000D03*
X125870000Y-56280000D03*
X125870000Y-53740000D03*
X125870000Y-51200000D03*
X105550000Y-51200000D03*
X105550000Y-53740000D03*
X105550000Y-56280000D03*
X105550000Y-58820000D03*
X105550000Y-61360000D03*
X105550000Y-63900000D03*
X105550000Y-66440000D03*
X105550000Y-68980000D03*
X123330000Y-68980000D03*
X123330000Y-66440000D03*
X123330000Y-63900000D03*
X123330000Y-61360000D03*
X123330000Y-58820000D03*
X123330000Y-56280000D03*
X123330000Y-53740000D03*
X123330000Y-51200000D03*
D30*
X86750000Y-135300000D03*
D31*
X86750000Y-132760000D03*
X86750000Y-130220000D03*
X86750000Y-127680000D03*
X86750000Y-125140000D03*
D17*
X220010000Y-71500000D03*
X210010000Y-71500000D03*
D32*
X110040000Y-54542500D03*
X110040000Y-51417500D03*
D33*
X189550000Y-46600000D03*
D34*
X195550000Y-46600000D03*
D33*
X201550000Y-80200000D03*
X183550000Y-80200000D03*
D22*
X177785000Y-103490000D03*
X177785000Y-111110000D03*
D35*
X156000000Y-96512500D03*
D36*
X156000000Y-109262500D03*
D30*
X86050000Y-67510000D03*
D31*
X86050000Y-64970000D03*
X86050000Y-62430000D03*
X86050000Y-59890000D03*
X86050000Y-57350000D03*
X86050000Y-54810000D03*
X86050000Y-52270000D03*
X86050000Y-49730000D03*
D25*
X108000000Y-78527500D03*
X108000000Y-81652500D03*
D37*
X161915000Y-83670000D03*
X158990000Y-83670000D03*
D38*
X213560000Y-130493400D03*
D17*
X213560000Y-132993400D03*
X213560000Y-134993400D03*
X213560000Y-137493400D03*
D22*
X210850000Y-127423400D03*
X210850000Y-140563400D03*
D39*
X212780000Y-88987500D03*
X212780000Y-83012500D03*
D21*
X233675000Y-61300000D03*
X236600000Y-61300000D03*
D40*
X236300000Y-67400000D03*
D41*
X233725000Y-67400000D03*
D22*
X129240000Y-110960000D03*
X129240000Y-103340000D03*
D42*
X223100000Y-60700000D03*
X213100000Y-60700000D03*
D43*
X223100000Y-47700000D03*
D42*
X213100000Y-47700000D03*
D22*
X134010000Y-110960000D03*
X134010000Y-103340000D03*
%LPD*%
M02*
