M48
; DRILL file {KiCad 9.0.4} date 2025-12-11T10:44:21+0100
; FORMAT={3:3/ absolute / metric / suppress leading zeros}
; #@! TF.CreationDate,2025-12-11T10:44:21+01:00
; #@! TF.GenerationSoftware,Kicad,Pcbnew,9.0.4
; #@! TF.FileFunction,MixedPlating,1,2
FMAT,2
METRIC,TZ
; #@! TA.AperFunction,Plated,PTH,ViaDrill
T1C0.300
; #@! TA.AperFunction,Plated,PTH,ComponentDrill
T2C0.800
; #@! TA.AperFunction,Plated,PTH,ComponentDrill
T3C0.950
; #@! TA.AperFunction,Plated,PTH,ComponentDrill
T4C1.000
; #@! TA.AperFunction,Plated,PTH,ComponentDrill
T5C1.200
; #@! TA.AperFunction,Plated,PTH,ComponentDrill
T6C1.300
; #@! TA.AperFunction,Plated,PTH,ComponentDrill
T7C1.500
; #@! TA.AperFunction,Plated,PTH,ComponentDrill
T8C1.600
; #@! TA.AperFunction,Plated,PTH,ComponentDrill
T9C2.300
%
G90
G05
T1
X80000Y-51000
X80000Y-61000
X80000Y-71000
X80000Y-121000
X80000Y-131000
X80000Y-141000
X90000Y-51000
X90000Y-71000
X90000Y-121000
X90000Y-141000
X95000Y-57550
X95000Y-60050
X95000Y-62700
X95000Y-65300
X95000Y-67600
X100000Y-51000
X100000Y-71000
X100000Y-81000
X100000Y-91000
X100000Y-101000
X100000Y-111000
X100000Y-121000
X100000Y-131000
X100000Y-141000
X110000Y-51000
X110000Y-61000
X110000Y-71000
X110000Y-81000
X110000Y-91000
X110000Y-101000
X110000Y-111000
X110000Y-121000
X110000Y-131000
X110000Y-141000
X114100Y-56100
X114300Y-52720
X120000Y-51000
X120000Y-61000
X120000Y-71000
X120000Y-81000
X120000Y-91000
X120000Y-101000
X120000Y-111000
X128850Y-55000
X130000Y-51000
X130000Y-61000
X130000Y-71000
X130000Y-81000
X130000Y-91000
X140000Y-51000
X140000Y-61000
X140000Y-71000
X140000Y-91000
X140000Y-101000
X140000Y-111000
X150000Y-51000
X150000Y-61000
X150000Y-71000
X150000Y-81000
X150000Y-91000
X150000Y-101000
X150000Y-111000
X152158Y-83700
X160000Y-51000
X160000Y-71000
X160000Y-81000
X160000Y-91000
X160000Y-101000
X160000Y-111000
X170000Y-51000
X170000Y-61000
X170000Y-71000
X170000Y-91000
X170000Y-101000
X170000Y-111000
X171300Y-83425
X180000Y-51000
X180000Y-61000
X180000Y-71000
X180000Y-91000
X180000Y-101000
X190000Y-51000
X190000Y-61000
X190000Y-71000
X190000Y-81000
X190000Y-91000
X190000Y-101000
X200000Y-51000
X200000Y-61000
X200000Y-71000
X200000Y-81000
X200000Y-91000
X200000Y-101000
X200000Y-111000
X200000Y-121000
X200000Y-131000
X200000Y-141000
X210000Y-51000
X210000Y-81000
X210000Y-91000
X210000Y-101000
X210000Y-111000
X210000Y-121000
X210000Y-131000
X210000Y-151000
X220000Y-51000
X220000Y-121000
X220000Y-131000
X220000Y-141000
X220000Y-151000
X230000Y-51000
X230000Y-61000
X230000Y-71000
X230000Y-121000
X230000Y-131000
X230000Y-141000
X230000Y-151000
X233700Y-61300
X240000Y-51000
X240000Y-61000
X240000Y-71000
X240000Y-121000
X240000Y-131000
X240000Y-141000
X240000Y-151000
T2
X137900Y-72930
X137900Y-77930
X210010Y-71500
X220010Y-71500
X226920Y-128510
X226920Y-133510
T3
X213560Y-130493
X213560Y-132993
X213560Y-134993
X213560Y-137493
T4
X86050Y-49730
X86050Y-52270
X86050Y-54810
X86050Y-57350
X86050Y-59890
X86050Y-62430
X86050Y-64970
X86050Y-67510
X86750Y-125140
X86750Y-127680
X86750Y-130220
X86750Y-132760
X86750Y-135300
X103010Y-51200
X103010Y-53740
X103010Y-56280
X103010Y-58820
X103010Y-61360
X103010Y-63900
X103010Y-66440
X103010Y-68980
X105550Y-51200
X105550Y-53740
X105550Y-56280
X105550Y-58820
X105550Y-61360
X105550Y-63900
X105550Y-66440
X105550Y-68980
X123330Y-51200
X123330Y-53740
X123330Y-56280
X123330Y-58820
X123330Y-61360
X123330Y-63900
X123330Y-66440
X123330Y-68980
X125870Y-51200
X125870Y-53740
X125870Y-56280
X125870Y-58820
X125870Y-61360
X125870Y-63900
X125870Y-66440
X125870Y-68980
X183550Y-80200
X189550Y-46600
X195550Y-46600
X201550Y-80200
T5
X156000Y-96512
X156000Y-109263
T6
X129240Y-103340
X129240Y-110960
X177785Y-103490
X177785Y-111110
T7
X134010Y-103340
X134010Y-110960
X173041Y-103470
X173041Y-111090
T8
X213100Y-47700
X213100Y-60700
X223100Y-47700
X223100Y-60700
T9
X210850Y-127423
X210850Y-140563
M30
