%TF.GenerationSoftware,KiCad,Pcbnew,9.0.4*%
%TF.CreationDate,2025-12-11T10:44:19+01:00*%
%TF.ProjectId,pvmeter,70766d65-7465-4722-9e6b-696361645f70,1.4*%
%TF.SameCoordinates,Original*%
%TF.FileFunction,Soldermask,Top*%
%TF.FilePolarity,Negative*%
%FSLAX46Y46*%
G04 Gerber Fmt 4.6, Leading zero omitted, Abs format (unit mm)*
G04 Created by KiCad (PCBNEW 9.0.4) date 2025-12-11 10:44:19*
%MOMM*%
%LPD*%
G01*
G04 APERTURE LIST*
G04 Aperture macros list*
%AMRoundRect*
0 Rectangle with rounded corners*
0 $1 Rounding radius*
0 $2 $3 $4 $5 $6 $7 $8 $9 X,Y pos of 4 corners*
0 Add a 4 corners polygon primitive as box body*
4,1,4,$2,$3,$4,$5,$6,$7,$8,$9,$2,$3,0*
0 Add four circle primitives for the rounded corners*
1,1,$1+$1,$2,$3*
1,1,$1+$1,$4,$5*
1,1,$1+$1,$6,$7*
1,1,$1+$1,$8,$9*
0 Add four rect primitives between the rounded corners*
20,1,$1+$1,$2,$3,$4,$5,0*
20,1,$1+$1,$4,$5,$6,$7,0*
20,1,$1+$1,$6,$7,$8,$9,0*
20,1,$1+$1,$8,$9,$2,$3,0*%
%AMFreePoly0*
4,1,19,-0.850000,0.510000,-0.510000,0.850000,0.255000,0.850000,0.408997,0.829726,0.552500,0.770285,0.675729,0.675729,0.770285,0.552500,0.829726,0.408997,0.850000,0.255000,0.850000,-0.510000,0.510000,-0.850000,-0.255000,-0.850000,-0.408997,-0.829726,-0.552500,-0.770285,-0.675729,-0.675729,-0.770285,-0.552500,-0.829726,-0.408997,-0.850000,-0.255000,-0.850000,0.510000,-0.850000,0.510000,
$1*%
G04 Aperture macros list end*
%ADD10R,1.600000X1.600000*%
%ADD11C,1.600000*%
%ADD12RoundRect,0.250000X0.625000X-0.312500X0.625000X0.312500X-0.625000X0.312500X-0.625000X-0.312500X0*%
%ADD13R,2.200000X2.500000*%
%ADD14R,2.200000X1.550000*%
%ADD15RoundRect,0.250000X-0.312500X-0.625000X0.312500X-0.625000X0.312500X0.625000X-0.312500X0.625000X0*%
%ADD16C,3.000000*%
%ADD17RoundRect,0.375000X0.375000X-0.625000X0.375000X0.625000X-0.375000X0.625000X-0.375000X-0.625000X0*%
%ADD18RoundRect,0.500000X1.400000X-0.500000X1.400000X0.500000X-1.400000X0.500000X-1.400000X-0.500000X0*%
%ADD19RoundRect,0.250000X-0.650000X0.412500X-0.650000X-0.412500X0.650000X-0.412500X0.650000X0.412500X0*%
%ADD20RoundRect,0.307018X-0.567982X-0.692982X0.567982X-0.692982X0.567982X0.692982X-0.567982X0.692982X0*%
%ADD21RoundRect,0.315790X-0.584210X-0.684210X0.584210X-0.684210X0.584210X0.684210X-0.584210X0.684210X0*%
%ADD22FreePoly0,0.000000*%
%ADD23C,1.700000*%
%ADD24R,1.700000X1.700000*%
%ADD25O,1.700000X1.700000*%
%ADD26RoundRect,0.250000X0.650000X-0.412500X0.650000X0.412500X-0.650000X0.412500X-0.650000X-0.412500X0*%
%ADD27O,2.000000X1.700000*%
%ADD28R,2.000000X1.700000*%
%ADD29R,2.200000X2.200000*%
%ADD30C,2.200000*%
%ADD31RoundRect,0.250000X0.312500X0.625000X-0.312500X0.625000X-0.312500X-0.625000X0.312500X-0.625000X0*%
%ADD32R,1.500000X1.600000*%
%ADD33RoundRect,0.249999X1.425001X-0.512501X1.425001X0.512501X-1.425001X0.512501X-1.425001X-0.512501X0*%
%ADD34R,2.500000X2.200000*%
%ADD35R,1.550000X2.200000*%
%ADD36C,3.100000*%
%ADD37R,3.100000X3.100000*%
G04 APERTURE END LIST*
D10*
X137900000Y-77930000D03*
D11*
X137900000Y-72930000D03*
X226920000Y-133510000D03*
D10*
X226920000Y-128510000D03*
D12*
X137900000Y-61725000D03*
X137900000Y-58800000D03*
D13*
X142400000Y-61017500D03*
D14*
X142400000Y-58442500D03*
D15*
X91487500Y-127900000D03*
X94412500Y-127900000D03*
D16*
X173041250Y-103470000D03*
X173041250Y-111090000D03*
D15*
X91487500Y-132700000D03*
X94412500Y-132700000D03*
D17*
X168975000Y-83462500D03*
X171275000Y-83462500D03*
X173575000Y-83462500D03*
D18*
X171275000Y-77162500D03*
D19*
X104800000Y-78527500D03*
X104800000Y-81652500D03*
D20*
X152157500Y-83700000D03*
D21*
X156007500Y-83700000D03*
D22*
X103010000Y-51200000D03*
D23*
X103010000Y-53740000D03*
X103010000Y-56280000D03*
X103010000Y-58820000D03*
X103010000Y-61360000D03*
X103010000Y-63900000D03*
X103010000Y-66440000D03*
X103010000Y-68980000D03*
X125870000Y-68980000D03*
X125870000Y-66440000D03*
X125870000Y-63900000D03*
X125870000Y-61360000D03*
X125870000Y-58820000D03*
X125870000Y-56280000D03*
X125870000Y-53740000D03*
X125870000Y-51200000D03*
X105550000Y-51200000D03*
X105550000Y-53740000D03*
X105550000Y-56280000D03*
X105550000Y-58820000D03*
X105550000Y-61360000D03*
X105550000Y-63900000D03*
X105550000Y-66440000D03*
X105550000Y-68980000D03*
X123330000Y-68980000D03*
X123330000Y-66440000D03*
X123330000Y-63900000D03*
X123330000Y-61360000D03*
X123330000Y-58820000D03*
X123330000Y-56280000D03*
X123330000Y-53740000D03*
X123330000Y-51200000D03*
D24*
X86750000Y-135300000D03*
D25*
X86750000Y-132760000D03*
X86750000Y-130220000D03*
X86750000Y-127680000D03*
X86750000Y-125140000D03*
D11*
X220010000Y-71500000D03*
X210010000Y-71500000D03*
D26*
X110040000Y-54542500D03*
X110040000Y-51417500D03*
D27*
X189550000Y-46600000D03*
D28*
X195550000Y-46600000D03*
D27*
X201550000Y-80200000D03*
X183550000Y-80200000D03*
D16*
X177785000Y-103490000D03*
X177785000Y-111110000D03*
D29*
X156000000Y-96512500D03*
D30*
X156000000Y-109262500D03*
D24*
X86050000Y-67510000D03*
D25*
X86050000Y-64970000D03*
X86050000Y-62430000D03*
X86050000Y-59890000D03*
X86050000Y-57350000D03*
X86050000Y-54810000D03*
X86050000Y-52270000D03*
X86050000Y-49730000D03*
D19*
X108000000Y-78527500D03*
X108000000Y-81652500D03*
D31*
X161915000Y-83670000D03*
X158990000Y-83670000D03*
D32*
X213560000Y-130493400D03*
D11*
X213560000Y-132993400D03*
X213560000Y-134993400D03*
X213560000Y-137493400D03*
D16*
X210850000Y-127423400D03*
X210850000Y-140563400D03*
D33*
X212780000Y-88987500D03*
X212780000Y-83012500D03*
D15*
X233675000Y-61300000D03*
X236600000Y-61300000D03*
D34*
X236300000Y-67400000D03*
D35*
X233725000Y-67400000D03*
D16*
X129240000Y-110960000D03*
X129240000Y-103340000D03*
D36*
X223100000Y-60700000D03*
X213100000Y-60700000D03*
D37*
X223100000Y-47700000D03*
D36*
X213100000Y-47700000D03*
D16*
X134010000Y-110960000D03*
X134010000Y-103340000D03*
M02*
